<svg width="174" height="39" viewBox="0 0 174 39" fill="none" xmlns="http://www.w3.org/2000/svg">
<path d="M45.2711 12.868V18.178C45.2711 20.014 45.0911 21.562 44.3531 22.318C44.0471 22.642 43.5611 22.894 42.9671 22.966L43.3091 25.18C44.2811 25.18 45.1091 24.928 45.7211 24.586C47.5571 23.506 47.9531 21.112 47.9531 17.998V15.118H50.7071V25H53.4431V12.868H45.2711ZM54.6432 16.198L57.8652 24.244C57.9732 24.46 57.9912 24.604 57.9912 24.694C57.9912 24.82 57.9372 24.964 57.8472 25.09C57.5772 25.54 57.1272 25.972 56.7132 26.188C56.2992 26.44 55.8672 26.602 55.5252 26.656L56.1012 28.978C56.7852 28.888 57.7932 28.6 58.7472 27.772C59.7372 26.89 60.5832 25.486 61.8432 21.994L63.8952 16.198H60.9612L59.8812 20.518C59.7552 21.022 59.6112 21.688 59.4852 22.156H59.4312C59.3232 21.688 59.1432 21.04 58.9992 20.518L57.6852 16.198H54.6432ZM64.8767 16.198V19.114C64.8767 21.202 65.9747 22.282 67.8647 22.282C68.6927 22.282 69.5387 22.066 70.0787 21.724H70.1147V25H72.8507V16.198H70.1147V19.96C69.8627 20.158 69.3767 20.338 68.9267 20.338C67.9907 20.338 67.6127 19.834 67.6127 18.862V16.198H64.8767ZM75.0038 16.198V25H87.4778V16.198H84.7598V22.912H82.5998V16.198H79.8818V22.912H77.7218V16.198H75.0038ZM89.6464 16.198V25H92.9764C93.5884 23.632 94.2544 22.102 94.8124 20.878C95.1724 20.05 95.3884 19.474 95.7304 18.502H95.8024C95.7124 20.374 95.6404 20.95 95.6404 22.318V25H98.2324V16.198H94.8844L93.1744 19.978C92.8144 20.806 92.5804 21.49 92.1664 22.498L92.0944 22.48C92.1664 21.292 92.2384 20.302 92.2384 18.898V16.198H89.6464ZM100.387 16.198V25H103.717C104.329 23.632 104.995 22.102 105.553 20.878C105.913 20.05 106.129 19.474 106.471 18.502H106.543C106.453 20.374 106.381 20.95 106.381 22.318V25H108.973V16.198H105.625L103.915 19.978C103.555 20.806 103.321 21.49 102.907 22.498L102.835 22.48C102.907 21.292 102.979 20.302 102.979 18.898V16.198H100.387ZM102.079 12.562C102.169 14.11 102.961 15.1 104.617 15.1C106.165 15.1 107.155 14.236 107.263 12.562H105.535C105.481 13.336 105.193 13.84 104.653 13.84C104.149 13.84 103.843 13.354 103.825 12.562H102.079ZM114.766 24.964C115.324 25.036 116.62 25.126 117.844 25.126C119.644 25.126 123.046 24.91 123.046 22.408C123.046 21.22 122.182 20.482 120.868 20.266V20.23C121.75 20.05 122.668 19.456 122.668 18.322C122.668 16.234 119.806 16.072 118.312 16.072C116.944 16.072 115.432 16.198 114.766 16.288V24.964ZM117.466 17.818C117.772 17.782 118.024 17.746 118.402 17.746C119.5 17.746 119.968 18.106 119.968 18.682C119.968 19.348 119.266 19.636 118.168 19.636H117.466V17.818ZM117.448 21.22H118.24C119.518 21.22 120.238 21.58 120.238 22.336C120.238 23.2 119.302 23.47 118.366 23.47C117.952 23.47 117.736 23.47 117.448 23.434V21.22ZM124.697 16.198V24.946C125.615 25.054 126.641 25.108 127.631 25.108C128.945 25.108 130.475 24.91 131.609 24.118C132.329 23.632 132.815 22.894 132.815 21.778C132.815 19.528 130.799 18.7 128.855 18.7C128.261 18.7 127.793 18.754 127.433 18.808V16.198H124.697ZM127.415 20.644C127.667 20.608 127.937 20.554 128.369 20.554C129.179 20.554 130.097 20.878 130.097 21.868C130.097 22.894 129.161 23.254 128.243 23.254C127.919 23.254 127.667 23.236 127.415 23.218V20.644ZM133.787 16.198V25H136.523V16.198H133.787ZM146.465 12.04C145.853 12.202 144.665 12.328 143.837 12.418C142.235 12.598 141.029 13.12 140.165 14.038C138.869 15.262 138.275 17.098 138.275 19.384C138.275 22.732 139.805 25.198 142.883 25.198C145.493 25.198 147.401 23.434 147.401 20.572C147.401 17.944 145.871 16.198 143.495 16.198C142.199 16.198 141.137 16.882 140.597 17.854H140.507C140.579 17.152 140.939 16.234 141.461 15.676C142.055 14.992 142.973 14.65 144.233 14.506C144.881 14.452 145.799 14.344 146.321 14.2L146.465 12.04ZM144.593 20.68C144.593 21.922 144.143 23.236 142.847 23.236C141.551 23.236 141.065 21.706 141.065 20.554C141.065 19.798 141.227 19.258 141.533 18.808C141.803 18.394 142.235 18.088 142.811 18.088C144.161 18.088 144.593 19.492 144.593 20.68ZM153.29 16C150.464 16 148.592 17.818 148.592 20.662C148.592 23.506 150.572 25.198 153.146 25.198C155.504 25.198 157.79 23.722 157.79 20.5C157.79 17.854 155.99 16 153.29 16ZM153.218 17.944C154.46 17.944 154.964 19.276 154.964 20.59C154.964 22.174 154.28 23.236 153.218 23.236C152.048 23.236 151.418 22.102 151.418 20.59C151.418 19.294 151.904 17.944 153.218 17.944ZM159.485 28.564H162.221V24.19H162.257C162.653 24.766 163.481 25.198 164.543 25.198C166.505 25.198 168.539 23.686 168.539 20.482C168.539 17.674 166.811 16 164.885 16C163.607 16 162.599 16.486 161.951 17.422H161.915L161.789 16.198H159.413C159.449 17.008 159.485 17.998 159.485 19.15V28.564ZM162.221 20.014C162.221 19.852 162.239 19.672 162.275 19.528C162.455 18.718 163.139 18.142 163.913 18.142C165.137 18.142 165.767 19.204 165.767 20.608C165.767 22.102 165.065 23.092 163.877 23.092C163.085 23.092 162.455 22.534 162.275 21.796C162.239 21.634 162.221 21.436 162.221 21.22V20.014ZM172.583 21.022L172.979 12.868H170.117L170.531 21.022H172.583ZM171.557 25.198C172.529 25.198 173.159 24.496 173.159 23.56C173.141 22.606 172.511 21.922 171.557 21.922C170.603 21.922 169.937 22.606 169.937 23.56C169.937 24.496 170.585 25.198 171.557 25.198Z" fill="#78BC27"/>
<path d="M19.5 0L22.0309 1.89701L24.9938 0.789886L26.8877 3.3231L30.0425 3.09556L31.146 6.05975L34.2371 6.73022L34.4609 9.88524L37.2378 11.3994L36.5636 14.4897L38.8015 16.7249L37.284 19.5L38.8015 22.2751L36.5636 24.5103L37.2378 27.6006L34.4609 29.1148L34.2371 32.2698L31.146 32.9403L30.0425 35.9044L26.8877 35.6769L24.9938 38.2101L22.0309 37.103L19.5 39L16.9691 37.103L14.0062 38.2101L12.1123 35.6769L8.9575 35.9044L7.85396 32.9403L4.76288 32.2698L4.53915 29.1148L1.76218 27.6006L2.43638 24.5103L0.198483 22.2751L1.716 19.5L0.198483 16.7249L2.43638 14.4897L1.76218 11.3994L4.53915 9.88524L4.76288 6.73022L7.85396 6.05975L8.9575 3.09556L12.1123 3.3231L14.0062 0.789886L16.9691 1.89701L19.5 0Z" fill="#78BC27"/>
<path fill-rule="evenodd" clip-rule="evenodd" d="M20.0319 16.6405L19.6007 19H21.9993H23.6306C24.0408 19 24.5862 19.2244 25.1035 19.9347C25.6195 20.6433 26 21.7206 26 23C26 24.2795 25.6195 25.3567 25.1035 26.0653C24.5862 26.7757 24.0408 27 23.6306 27H16V18.9148L16.4834 17.7891L18.2019 13.7868C18.3144 13.6154 18.5705 13.3975 18.9979 13.2776C19.4679 13.1456 19.8661 13.2126 20.0681 13.3203C20.363 13.4775 20.4733 13.5964 20.5057 13.6369C20.5293 13.6664 20.5326 13.6777 20.5373 13.7012C20.5458 13.744 20.5556 13.8428 20.5319 14.0401C20.507 14.2478 20.4583 14.4732 20.3842 14.8047L20.3812 14.8184C20.3434 14.9873 20.2978 15.191 20.2594 15.3958L20.2593 15.3957L20.2576 15.4055L20.0319 16.6405ZM21.0089 11.5554C19.5208 10.7621 17.2259 11.3607 16.4094 12.8923L14.6456 17L14 17H11C10.4477 17 10 17.4477 10 18V28C10 28.5523 10.4477 29 11 29L14 29H16H23.6306C26.0437 29 28 26.3137 28 23C28 19.8702 26.2549 17.3002 24.0279 17.0245C23.8971 17.0083 23.7645 17 23.6306 17H21.9993L22.225 15.765C22.2571 15.5942 22.2962 15.4191 22.336 15.241L22.3361 15.2406C22.3539 15.1609 22.3719 15.0807 22.3894 15C22.6481 13.8062 22.8091 12.515 21.0089 11.5554ZM12 27V19H14V27H12Z" fill="white"/>
</svg>
