<svg width="130" height="48" viewBox="0 0 130 48" fill="none" xmlns="http://www.w3.org/2000/svg">
<rect x="0.5" y="0.5" width="129" height="47" rx="23.5" fill="#78BC27"/>
<path d="M39.636 19.216V30H41.572V25.296H42.036C43.572 25.296 44.148 26.24 44.58 27.552C44.852 28.368 45.108 29.264 45.476 30H47.588C47.108 28.976 46.772 27.888 46.372 26.752C45.892 25.392 45.236 24.368 43.668 24.08L47.572 19.216H45.188L41.892 23.84H41.572V19.216H39.636ZM48.688 19.216L52.288 26.56C52.4 26.768 52.432 26.912 52.336 27.136C52.064 27.744 51.488 28.512 50.576 28.512C50.272 28.512 50.064 28.496 49.904 28.448L49.744 30.032C50 30.128 50.288 30.176 50.752 30.176C51.888 30.176 52.736 29.68 53.44 28.8C54.208 27.792 54.896 26.16 55.52 24.592L57.648 19.216H55.568L54.16 23.328C53.904 24.176 53.712 24.864 53.552 25.36H53.504C53.248 24.72 53.024 24.08 52.736 23.376L50.912 19.216H48.688ZM59.3379 19.216V30H61.3059V20.832H65.6579V30H67.6259V19.216H59.3379ZM70.5404 19.216V30H72.7324L75.4524 25.44C76.1404 24.288 76.8604 22.944 77.3724 21.712H77.4044C77.2764 23.104 77.2604 24.48 77.2604 26.176V30H79.0844V19.216H77.0844L74.2364 24.048C73.5324 25.264 72.8284 26.56 72.2684 27.776L72.2364 27.76C72.3164 26.32 72.3644 24.736 72.3644 23.024V19.216H70.5404ZM84.0413 30H86.0093V20.864H89.1133V19.216H80.9693V20.864H84.0413V30ZM91.0235 19.216V29.968C91.5195 30.032 92.3515 30.112 93.4555 30.112C95.0395 30.112 96.7195 29.776 97.6795 28.784C98.2075 28.224 98.5275 27.472 98.5275 26.448C98.5275 24.048 96.5595 23.008 94.3035 23.008C93.8875 23.008 93.3115 23.04 92.9755 23.088V19.216H91.0235ZM92.9755 24.608C93.2955 24.56 93.6475 24.544 93.9995 24.544C95.3275 24.544 96.4635 25.104 96.4635 26.544C96.4635 27.952 95.3275 28.608 93.9835 28.608C93.5835 28.608 93.2635 28.592 92.9755 28.544V24.608Z" fill="white"/>
<rect x="0.5" y="0.5" width="129" height="47" rx="23.5" stroke="#78BC27"/>
</svg>
