<svg width="242" height="48" viewBox="0 0 242 48" fill="none" xmlns="http://www.w3.org/2000/svg">
<path d="M25.136 17.716V28.5H27.072V23.796H27.536C29.072 23.796 29.648 24.74 30.08 26.052C30.352 26.868 30.608 27.764 30.976 28.5H33.088C32.608 27.476 32.272 26.388 31.872 25.252C31.392 23.892 30.736 22.868 29.168 22.58L33.072 17.716H30.688L27.392 22.34H27.072V17.716H25.136ZM40.735 25.444L41.711 28.5H43.823L40.319 17.716H37.807L34.351 28.5H36.383L37.311 25.444H40.735ZM37.631 23.956L38.463 21.3C38.655 20.66 38.815 19.908 38.975 19.284H39.007C39.167 19.908 39.343 20.644 39.551 21.3L40.399 23.956H37.631ZM47.1363 28.5H49.1043V19.364H52.2083V17.716H44.0643V19.364H47.1363V28.5ZM58.4525 25.444L59.4285 28.5H61.5405L58.0365 17.716H55.5245L52.0685 28.5H54.1005L55.0285 25.444H58.4525ZM55.3485 23.956L56.1805 21.3C56.3725 20.66 56.5325 19.908 56.6925 19.284H56.7245C56.8845 19.908 57.0605 20.644 57.2685 21.3L58.1165 23.956H55.3485ZM64.8874 17.716V22.356C64.8874 24.036 64.7754 25.732 64.0234 26.484C63.7514 26.756 63.3194 26.98 62.8394 27.06L63.0794 28.644C63.8314 28.644 64.5354 28.404 64.9994 28.116C66.5834 27.14 66.8234 24.804 66.8234 22.212V19.332H69.7674V28.5H71.7354V17.716H64.8874ZM79.2085 17.54C76.1685 17.54 74.0885 19.876 74.0885 23.188C74.0885 26.356 76.0085 28.676 79.0485 28.676C82.0245 28.676 84.2165 26.612 84.2165 22.996C84.2165 19.924 82.3605 17.54 79.2085 17.54ZM79.1605 19.124C81.1285 19.124 82.1365 21.044 82.1365 23.076C82.1365 25.332 81.0645 27.092 79.1605 27.092C77.2725 27.092 76.1685 25.348 76.1685 23.156C76.1685 20.932 77.2085 19.124 79.1605 19.124ZM86.5541 17.716V28.5H88.5221V19.332H92.7141V17.716H86.5541ZM98.5685 17.716V28.5H100.537V19.332H104.889V28.5H106.857V17.716H98.5685ZM109.771 28.5H111.723V24.436C111.979 24.484 112.315 24.5 112.683 24.5C114.075 24.5 115.307 24.132 116.091 23.348C116.699 22.772 117.019 21.924 117.019 20.9C117.019 19.892 116.603 19.044 115.963 18.516C115.275 17.94 114.219 17.636 112.779 17.636C111.451 17.636 110.475 17.732 109.771 17.86V28.5ZM111.723 19.236C111.931 19.188 112.315 19.14 112.859 19.14C114.219 19.14 115.051 19.78 115.051 20.98C115.051 22.244 114.155 22.964 112.683 22.964C112.283 22.964 111.963 22.948 111.723 22.884V19.236ZM123.83 17.54C120.79 17.54 118.71 19.876 118.71 23.188C118.71 26.356 120.63 28.676 123.67 28.676C126.646 28.676 128.838 26.612 128.838 22.996C128.838 19.924 126.982 17.54 123.83 17.54ZM123.782 19.124C125.75 19.124 126.758 21.044 126.758 23.076C126.758 25.332 125.686 27.092 123.782 27.092C121.894 27.092 120.79 25.348 120.79 23.156C120.79 20.932 121.83 19.124 123.782 19.124ZM132.225 17.716V20.532C132.225 22.084 132.097 23.396 131.761 24.548C131.521 25.396 131.137 26.18 130.721 26.932L129.857 26.98L129.953 31.172H131.457L131.569 28.5H138.113L138.225 31.172H139.729L139.841 26.98L138.817 26.932V17.716H132.225ZM134.049 19.332H136.849V26.884H132.737C133.025 26.356 133.329 25.668 133.537 24.964C133.889 23.828 134.049 22.5 134.049 21.028V19.332ZM140.806 17.716L144.406 25.06C144.518 25.268 144.55 25.412 144.454 25.636C144.182 26.244 143.606 27.012 142.694 27.012C142.39 27.012 142.182 26.996 142.022 26.948L141.862 28.532C142.118 28.628 142.406 28.676 142.87 28.676C144.006 28.676 144.854 28.18 145.558 27.3C146.326 26.292 147.014 24.66 147.638 23.092L149.766 17.716H147.686L146.278 21.828C146.022 22.676 145.83 23.364 145.67 23.86H145.622C145.366 23.22 145.142 22.58 144.854 21.876L143.03 17.716H140.806ZM151.456 17.716V28.5H153.392V23.796H153.856C155.392 23.796 155.968 24.74 156.4 26.052C156.672 26.868 156.928 27.764 157.296 28.5H159.408C158.928 27.476 158.592 26.388 158.192 25.252C157.712 23.892 157.056 22.868 155.488 22.58L159.392 17.716H157.008L153.712 22.34H153.392V17.716H151.456ZM161.33 17.716V28.5H168.85L168.962 31.172H170.482L170.594 26.98L169.57 26.932V17.716H167.602V26.884H163.298V17.716H161.33ZM172.767 17.716V28.5H174.959L177.679 23.94C178.367 22.788 179.087 21.444 179.599 20.212H179.631C179.503 21.604 179.487 22.98 179.487 24.676V28.5H181.311V17.716H179.311L176.463 22.548C175.759 23.764 175.055 25.06 174.495 26.276L174.463 26.26C174.543 24.82 174.591 23.236 174.591 21.524V17.716H172.767ZM184.204 17.716V28.5H186.396L189.116 23.94C189.804 22.788 190.524 21.444 191.036 20.212H191.068C190.94 21.604 190.924 22.98 190.924 24.676V28.5H192.748V17.716H190.748L187.9 22.548C187.196 23.764 186.492 25.06 185.932 26.276L185.9 26.26C185.98 24.82 186.028 23.236 186.028 21.524V17.716H184.204Z" fill="#21232E"/>
<path opacity="0.6" d="M204 19L209.25 24L204 29" stroke="#21232E" stroke-width="2" stroke-linecap="round" stroke-linejoin="round"/>
<path opacity="0.3" d="M199 19L204.25 24L199 29" stroke="#21232E" stroke-width="2" stroke-linecap="round" stroke-linejoin="round"/>
<path d="M209 19L214.25 24L209 29" stroke="#21232E" stroke-width="2" stroke-linecap="round" stroke-linejoin="round"/>
<path d="M24 1H218V-1H24V1ZM218 47H24V49H218V47ZM24 47C11.2974 47 1 36.7025 1 24H-1C-1 37.8071 10.1929 49 24 49V47ZM241 24C241 36.7025 230.703 47 218 47V49C231.807 49 243 37.8071 243 24H241ZM218 1C230.703 1 241 11.2975 241 24H243C243 10.1929 231.807 -1 218 -1V1ZM24 -1C10.1929 -1 -1 10.1929 -1 24H1C1 11.2975 11.2975 1 24 1V-1Z" fill="#78BC27"/>
</svg>
