<svg width="32" height="32" fill="none" xmlns="http://www.w3.org/2000/svg"><g opacity=".4" fill="#D3D4D7"><path d="M14.628 10.745a3.924 3.924 0 01-3.925 3.924 3.924 3.924 0 110-7.847 3.924 3.924 0 013.925 3.923zm10.593 0a3.924 3.924 0 01-3.925 3.924 3.924 3.924 0 110-7.847 3.924 3.924 0 013.925 3.923zm-10.593 10.51a3.924 3.924 0 01-3.925 3.924 3.924 3.924 0 110-7.848 3.924 3.924 0 013.925 3.924zm10.593 0a3.924 3.924 0 01-3.925 3.924 3.924 3.924 0 110-7.848 3.924 3.924 0 013.925 3.924z"/><path fill-rule="evenodd" clip-rule="evenodd" d="M32 16c0-8.823-7.177-16-16-16S0 7.177 0 16c0 8.676 6.94 15.76 15.56 15.994L16 32c8.823 0 16-7.177 16-16zM1.426 16c0-7.892 6.31-14.34 14.152-14.563L16 1.43c8.036 0 14.574 6.536 14.574 14.569 0 8.033-6.538 14.569-14.574 14.569S1.426 24.033 1.426 15.999z"/></g></svg>