<svg width="174" height="39" fill="none" xmlns="http://www.w3.org/2000/svg"><path d="M45.271 12.868v5.31c0 1.836-.18 3.384-.918 4.14-.306.324-.792.576-1.386.648l.342 2.214c.972 0 1.8-.252 2.412-.594 1.836-1.08 2.232-3.474 2.232-6.588v-2.88h2.754V25h2.736V12.868h-8.172zm9.372 3.33l3.222 8.046c.108.216.126.36.126.45 0 .126-.054.27-.144.396-.27.45-.72.882-1.134 1.098-.414.252-.846.414-1.188.468l.576 2.322a5.044 5.044 0 002.646-1.206c.99-.882 1.836-2.286 3.096-5.778l2.052-5.796h-2.934l-1.08 4.32c-.126.504-.27 1.17-.396 1.638h-.054c-.108-.468-.288-1.116-.432-1.638l-1.314-4.32h-3.042zm10.234 0v2.916c0 2.088 1.098 3.168 2.988 3.168.828 0 1.674-.216 2.214-.558h.036V25h2.736v-8.802h-2.736v3.762c-.252.198-.738.378-1.188.378-.936 0-1.314-.504-1.314-1.476v-2.664h-2.736zm10.127 0V25h12.474v-8.802H84.76v6.714H82.6v-6.714h-2.718v6.714h-2.16v-6.714h-2.718zm14.642 0V25h3.33c.612-1.368 1.278-2.898 1.836-4.122.36-.828.576-1.404.918-2.376h.072c-.09 1.872-.162 2.448-.162 3.816V25h2.592v-8.802h-3.348l-1.71 3.78c-.36.828-.594 1.512-1.008 2.52l-.072-.018c.072-1.188.144-2.178.144-3.582v-2.7h-2.592zm10.741 0V25h3.33c.612-1.368 1.278-2.898 1.836-4.122.36-.828.576-1.404.918-2.376h.072c-.09 1.872-.162 2.448-.162 3.816V25h2.592v-8.802h-3.348l-1.71 3.78c-.36.828-.594 1.512-1.008 2.52l-.072-.018c.072-1.188.144-2.178.144-3.582v-2.7h-2.592zm1.692-3.636c.09 1.548.882 2.538 2.538 2.538 1.548 0 2.538-.864 2.646-2.538h-1.728c-.054.774-.342 1.278-.882 1.278-.504 0-.81-.486-.828-1.278h-1.746zm12.687 12.402c.558.072 1.854.162 3.078.162 1.8 0 5.202-.216 5.202-2.718 0-1.188-.864-1.926-2.178-2.142v-.036c.882-.18 1.8-.774 1.8-1.908 0-2.088-2.862-2.25-4.356-2.25-1.368 0-2.88.126-3.546.216v8.676zm2.7-7.146c.306-.036.558-.072.936-.072 1.098 0 1.566.36 1.566.936 0 .666-.702.954-1.8.954h-.702v-1.818zm-.018 3.402h.792c1.278 0 1.998.36 1.998 1.116 0 .864-.936 1.134-1.872 1.134-.414 0-.63 0-.918-.036V21.22zm7.249-5.022v8.748c.918.108 1.944.162 2.934.162 1.314 0 2.844-.198 3.978-.99.72-.486 1.206-1.224 1.206-2.34 0-2.25-2.016-3.078-3.96-3.078-.594 0-1.062.054-1.422.108v-2.61h-2.736zm2.718 4.446c.252-.036.522-.09.954-.09.81 0 1.728.324 1.728 1.314 0 1.026-.936 1.386-1.854 1.386-.324 0-.576-.018-.828-.036v-2.574zm6.372-4.446V25h2.736v-8.802h-2.736zm12.678-4.158c-.612.162-1.8.288-2.628.378-1.602.18-2.808.702-3.672 1.62-1.296 1.224-1.89 3.06-1.89 5.346 0 3.348 1.53 5.814 4.608 5.814 2.61 0 4.518-1.764 4.518-4.626 0-2.628-1.53-4.374-3.906-4.374-1.296 0-2.358.684-2.898 1.656h-.09c.072-.702.432-1.62.954-2.178.594-.684 1.512-1.026 2.772-1.17.648-.054 1.566-.162 2.088-.306l.144-2.16zm-1.872 8.64c0 1.242-.45 2.556-1.746 2.556s-1.782-1.53-1.782-2.682c0-.756.162-1.296.468-1.746.27-.414.702-.72 1.278-.72 1.35 0 1.782 1.404 1.782 2.592zM153.29 16c-2.826 0-4.698 1.818-4.698 4.662s1.98 4.536 4.554 4.536c2.358 0 4.644-1.476 4.644-4.698 0-2.646-1.8-4.5-4.5-4.5zm-.072 1.944c1.242 0 1.746 1.332 1.746 2.646 0 1.584-.684 2.646-1.746 2.646-1.17 0-1.8-1.134-1.8-2.646 0-1.296.486-2.646 1.8-2.646zm6.267 10.62h2.736V24.19h.036c.396.576 1.224 1.008 2.286 1.008 1.962 0 3.996-1.512 3.996-4.716 0-2.808-1.728-4.482-3.654-4.482-1.278 0-2.286.486-2.934 1.422h-.036l-.126-1.224h-2.376c.036.81.072 1.8.072 2.952v9.414zm2.736-8.55c0-.162.018-.342.054-.486.18-.81.864-1.386 1.638-1.386 1.224 0 1.854 1.062 1.854 2.466 0 1.494-.702 2.484-1.89 2.484-.792 0-1.422-.558-1.602-1.296a2.725 2.725 0 01-.054-.576v-1.206zm10.362 1.008l.396-8.154h-2.862l.414 8.154h2.052zm-1.026 4.176c.972 0 1.602-.702 1.602-1.638-.018-.954-.648-1.638-1.602-1.638-.954 0-1.62.684-1.62 1.638 0 .936.648 1.638 1.62 1.638zM19.5 0l2.53 1.897L24.995.79l1.894 2.533 3.154-.227 1.104 2.964 3.091.67.224 3.155 2.777 1.514-.674 3.09 2.237 2.236-1.517 2.775 1.517 2.775-2.237 2.235.674 3.09-2.777 1.515-.224 3.155-3.091.67-1.104 2.964-3.154-.227-1.894 2.533-2.963-1.107L19.5 39l-2.53-1.897-2.964 1.107-1.894-2.533-3.155.227-1.103-2.964-3.091-.67-.224-3.155L1.762 27.6l.674-3.09-2.238-2.236L1.716 19.5.198 16.725l2.238-2.235-.674-3.09L4.54 9.884l.224-3.155 3.091-.67 1.103-2.964 3.155.227L14.006.79l2.963 1.107L19.5 0z" fill="#78BC27"/><path fill-rule="evenodd" clip-rule="evenodd" d="M20.032 16.64L19.6 19h4.03c.41 0 .955.224 1.473.935.515.708.896 1.786.896 3.065 0 1.28-.38 2.357-.896 3.065-.518.71-1.063.935-1.473.935H16v-8.085l.483-1.126 1.719-4.002c.112-.172.368-.39.796-.51.47-.131.868-.064 1.07.043.295.157.405.276.438.317a.12.12 0 01.031.064c.009.043.019.142-.005.34a8.018 8.018 0 01-.148.764l-.003.013c-.038.17-.083.373-.122.578l-.001.01-.226 1.234zm.977-5.085c-1.488-.793-3.783-.194-4.6 1.337L14.646 17H11a1 1 0 00-1 1v10a1 1 0 001 1h12.63c2.414 0 4.37-2.686 4.37-6 0-3.13-1.745-5.7-3.972-5.976A3.231 3.231 0 0023.63 17h-1.632l.226-1.235c.032-.17.071-.346.111-.524L22.39 15c.26-1.194.42-2.485-1.38-3.445zM12 27v-8h2v8h-2z" fill="#fff"/></svg>