<svg width="130" height="48" fill="none" xmlns="http://www.w3.org/2000/svg"><rect x=".5" y=".5" width="129" height="47" rx="23.5" fill="#78BC27"/><path d="M39.636 19.216V30h1.936v-4.704h.464c1.536 0 2.112.944 2.544 2.256.272.816.528 1.712.896 2.448h2.112c-.48-1.024-.816-2.112-1.216-3.248-.48-1.36-1.136-2.384-2.704-2.672l3.904-4.864h-2.384l-3.296 4.624h-.32v-4.624h-1.936zm9.052 0l3.6 7.344c.112.208.144.352.048.576-.272.608-.848 1.376-1.76 1.376-.304 0-.512-.016-.672-.064l-.16 1.584c.256.096.544.144 1.008.144 1.136 0 1.984-.496 2.688-1.376.768-1.008 1.456-2.64 2.08-4.208l2.128-5.376h-2.08l-1.408 4.112c-.256.848-.448 1.536-.608 2.032h-.048c-.256-.64-.48-1.28-.768-1.984l-1.824-4.16h-2.224zm10.65 0V30h1.968v-9.168h4.352V30h1.968V19.216h-8.288zm11.202 0V30h2.192l2.72-4.56c.688-1.152 1.408-2.496 1.92-3.728h.032c-.128 1.392-.144 2.768-.144 4.464V30h1.824V19.216h-2l-2.848 4.832c-.704 1.216-1.408 2.512-1.968 3.728l-.032-.016c.08-1.44.128-3.024.128-4.736v-3.808H70.54zM84.041 30h1.968v-9.136h3.104v-1.648H80.97v1.648h3.072V30zm6.983-10.784v10.752c.495.064 1.328.144 2.431.144 1.585 0 3.264-.336 4.225-1.328.527-.56.847-1.312.847-2.336 0-2.4-1.968-3.44-4.224-3.44-.415 0-.992.032-1.328.08v-3.872h-1.951zm1.951 5.392c.32-.048.672-.064 1.025-.064 1.328 0 2.463.56 2.463 2 0 1.408-1.135 2.064-2.48 2.064-.4 0-.72-.016-1.008-.064v-3.936z" fill="#fff"/><rect x=".5" y=".5" width="129" height="47" rx="23.5" stroke="#78BC27"/></svg>