<svg width="242" height="48" fill="none" xmlns="http://www.w3.org/2000/svg"><path d="M25.136 17.716V28.5h1.936v-4.704h.464c1.536 0 2.112.944 2.544 2.256.272.816.528 1.712.896 2.448h2.112c-.48-1.024-.816-2.112-1.216-3.248-.48-1.36-1.136-2.384-2.704-2.672l3.904-4.864h-2.384l-3.296 4.624h-.32v-4.624h-1.936zm15.599 7.728l.976 3.056h2.112l-3.504-10.784h-2.512L34.351 28.5h2.032l.928-3.056h3.424zm-3.104-1.488l.832-2.656c.192-.64.352-1.392.512-2.016h.032c.16.624.336 1.36.544 2.016l.848 2.656h-2.768zm9.505 4.544h1.968v-9.136h3.104v-1.648h-8.144v1.648h3.072V28.5zm11.316-3.056l.977 3.056h2.111l-3.504-10.784h-2.511L52.069 28.5H54.1l.928-3.056h3.425zm-3.103-1.488l.832-2.656c.192-.64.352-1.392.512-2.016h.032c.16.624.335 1.36.544 2.016l.848 2.656h-2.768zm9.538-6.24v4.64c0 1.68-.112 3.376-.864 4.128-.272.272-.704.496-1.184.576l.24 1.584c.752 0 1.456-.24 1.92-.528 1.584-.976 1.824-3.312 1.824-5.904v-2.88h2.944V28.5h1.968V17.716h-6.848zm14.322-.176c-3.04 0-5.12 2.336-5.12 5.648 0 3.168 1.92 5.488 4.96 5.488 2.975 0 5.167-2.064 5.167-5.68 0-3.072-1.855-5.456-5.007-5.456zm-.049 1.584c1.969 0 2.977 1.92 2.977 3.952 0 2.256-1.073 4.016-2.977 4.016-1.888 0-2.992-1.744-2.992-3.936 0-2.224 1.04-4.032 2.992-4.032zm7.394-1.408V28.5h1.968v-9.168h4.192v-1.616h-6.16zm12.014 0V28.5h1.969v-9.168h4.352V28.5h1.968V17.716h-8.288zM109.772 28.5h1.952v-4.064c.256.048.592.064.96.064 1.392 0 2.624-.368 3.408-1.152.608-.576.928-1.424.928-2.448 0-1.008-.416-1.856-1.056-2.384-.688-.576-1.744-.88-3.184-.88-1.328 0-2.304.096-3.008.224V28.5zm1.952-9.264c.208-.048.592-.096 1.136-.096 1.36 0 2.192.64 2.192 1.84 0 1.264-.896 1.984-2.368 1.984-.4 0-.72-.016-.96-.08v-3.648zm12.107-1.696c-3.04 0-5.12 2.336-5.12 5.648 0 3.168 1.92 5.488 4.96 5.488 2.976 0 5.168-2.064 5.168-5.68 0-3.072-1.856-5.456-5.008-5.456zm-.048 1.584c1.968 0 2.976 1.92 2.976 3.952 0 2.256-1.072 4.016-2.976 4.016-1.888 0-2.992-1.744-2.992-3.936 0-2.224 1.04-4.032 2.992-4.032zm8.443-1.408v2.816c0 1.552-.128 2.864-.464 4.016-.24.848-.624 1.632-1.04 2.384l-.864.048.096 4.192h1.504l.112-2.672h6.544l.112 2.672h1.504l.112-4.192-1.024-.048v-9.216h-6.592zm1.824 1.616h2.8v7.552h-4.112c.288-.528.592-1.216.8-1.92.352-1.136.512-2.464.512-3.936v-1.696zm6.757-1.616l3.6 7.344c.112.208.144.352.048.576-.272.608-.848 1.376-1.76 1.376-.304 0-.512-.016-.672-.064l-.16 1.584c.256.096.544.144 1.008.144 1.136 0 1.984-.496 2.688-1.376.768-1.008 1.456-2.64 2.08-4.208l2.128-5.376h-2.08l-1.408 4.112c-.256.848-.448 1.536-.608 2.032h-.048c-.256-.64-.48-1.28-.768-1.984l-1.824-4.16h-2.224zm10.65 0V28.5h1.936v-4.704h.464c1.536 0 2.112.944 2.544 2.256.272.816.528 1.712.896 2.448h2.112c-.48-1.024-.816-2.112-1.216-3.248-.48-1.36-1.136-2.384-2.704-2.672l3.904-4.864h-2.384l-3.296 4.624h-.32v-4.624h-1.936zm9.874 0V28.5h7.52l.112 2.672h1.52l.112-4.192-1.024-.048v-9.216h-1.968v9.168h-4.304v-9.168h-1.968zm11.437 0V28.5h2.192l2.72-4.56c.688-1.152 1.408-2.496 1.92-3.728h.032c-.128 1.392-.144 2.768-.144 4.464V28.5h1.824V17.716h-2l-2.848 4.832c-.704 1.216-1.408 2.512-1.968 3.728l-.032-.016c.08-1.44.128-3.024.128-4.736v-3.808h-1.824zm11.437 0V28.5h2.192l2.72-4.56c.688-1.152 1.408-2.496 1.92-3.728h.032c-.128 1.392-.144 2.768-.144 4.464V28.5h1.824V17.716h-2l-2.848 4.832c-.704 1.216-1.408 2.512-1.968 3.728l-.032-.016c.08-1.44.128-3.024.128-4.736v-3.808h-1.824z" fill="#21232E"/><path opacity=".6" d="M204 19l5.25 5-5.25 5" stroke="#21232E" stroke-width="2" stroke-linecap="round" stroke-linejoin="round"/><path opacity=".3" d="M199 19l5.25 5-5.25 5" stroke="#21232E" stroke-width="2" stroke-linecap="round" stroke-linejoin="round"/><path d="M209 19l5.25 5-5.25 5" stroke="#21232E" stroke-width="2" stroke-linecap="round" stroke-linejoin="round"/><path d="M24 1h194v-2H24v2zm194 46H24v2h194v-2zM24 47C11.297 47 1 36.703 1 24h-2c0 13.807 11.193 25 25 25v-2zm217-23c0 12.703-10.297 23-23 23v2c13.807 0 25-11.193 25-25h-2zM218 1c12.703 0 23 10.297 23 23h2c0-13.807-11.193-25-25-25v2zM24-1C10.193-1-1 10.193-1 24h2C1 11.297 11.297 1 24 1v-2z" fill="#78BC27"/></svg>