<svg width="48" height="48" fill="none" xmlns="http://www.w3.org/2000/svg"><path fill-rule="evenodd" clip-rule="evenodd" d="M25 16a1 1 0 10-2 0v1h-4.5a.979.979 0 00-.25.032 1 1 0 00-1.179.597l-1.996 4.99a1.021 1.021 0 00-.075.412v.469a3.5 3.5 0 107 0v-.47a.996.996 0 00-.075-.411L20.477 19H23v11h-1.5a1 1 0 100 2H27a1 1 0 100-2h-2V19h2.523l-1.448 3.619a.991.991 0 00-.075.412v.469a3.5 3.5 0 107 0v-.47a.995.995 0 00-.075-.411l-1.992-4.98a1.005 1.005 0 00-.43-.503 1.003 1.003 0 00-.526-.136H25v-1zm-6.5 3.442L19.523 22h-2.046l1.023-2.558zM17.085 24a1.5 1.5 0 002.83 0h-2.83zM29.5 19.442L28.477 22h2.046L29.5 19.442zM28.085 24a1.5 1.5 0 002.83 0h-2.83z" fill="#fff"/><circle cx="36" cy="12" r="7" fill="#78BC27"/><path d="M38.196 8.2h-3.732l-.504 3.744c.288-.036.636-.084 1.08-.084 1.56 0 2.232.72 2.244 1.728 0 1.044-.852 1.692-1.848 1.692-.708 0-1.344-.24-1.668-.432l-.264.804c.372.24 1.092.48 1.944.48 1.692 0 2.904-1.14 2.904-2.664 0-.984-.504-1.656-1.116-2.004-.48-.288-1.08-.42-1.68-.42-.288 0-.456.024-.636.048l.3-2.004h2.976V8.2z" fill="#fff"/></svg>