<svg width="48" height="48" fill="none" xmlns="http://www.w3.org/2000/svg"><path d="M15 18a1 1 0 011-1h3a1 1 0 01.96.718l2.288 7.782h6.971l1-4H24a1 1 0 110-2h7.5a1 1 0 01.97 1.242l-1.5 6a1 1 0 01-.97.758h-8.5a1 1 0 01-.96-.718L18.253 19H16a1 1 0 01-1-1zm8 12a2 2 0 11-4 0 2 2 0 014 0zm7 2a2 2 0 100-4 2 2 0 000 4z" fill="#fff"/><circle cx="36" cy="12" r="7" fill="#78BC27"/><path d="M38.196 8.2h-3.732l-.504 3.744c.288-.036.636-.084 1.08-.084 1.56 0 2.232.72 2.244 1.728 0 1.044-.852 1.692-1.848 1.692-.708 0-1.344-.24-1.668-.432l-.264.804c.372.24 1.092.48 1.944.48 1.692 0 2.904-1.14 2.904-2.664 0-.984-.504-1.656-1.116-2.004-.48-.288-1.08-.42-1.68-.42-.288 0-.456.024-.636.048l.3-2.004h2.976V8.2z" fill="#fff"/></svg>