<svg width="18" height="17" fill="none" xmlns="http://www.w3.org/2000/svg"><path fill-rule="evenodd" clip-rule="evenodd" d="M10 1a1 1 0 10-2 0v1H3.5a.985.985 0 00-.25.032 1 1 0 00-1.179.597L.075 7.619A.993.993 0 000 8.031V8.5a3.5 3.5 0 107 0v-.47a.994.994 0 00-.075-.411L5.477 4H8v11H6.5a1 1 0 100 2H12a1 1 0 100-2h-2V4h2.523l-1.448 3.619a.991.991 0 00-.075.412V8.5a3.5 3.5 0 107 0v-.47a.995.995 0 00-.075-.411l-1.992-4.98A.995.995 0 0014.977 2H10V1zM3.5 4.442L4.523 7H2.477L3.5 4.442zM2.085 9a1.5 1.5 0 002.83 0h-2.83zM14.5 4.442L13.477 7h2.046L14.5 4.442zM13.085 9a1.5 1.5 0 002.83 0h-2.83z" fill="#fff"/></svg>