<svg width="24" height="24" viewBox="0 0 24 24" fill="none" xmlns="http://www.w3.org/2000/svg">
<g clip-path="url(#clip0)">
<path fill-rule="evenodd" clip-rule="evenodd" d="M0 6C0 5.44772 0.447715 5 1 5H23.0588C23.6111 5 24.0588 5.44772 24.0588 6C24.0588 6.55228 23.6111 7 23.0588 7H1C0.447715 7 0 6.55228 0 6ZM0 12C0 11.4477 0.447715 11 1 11H23.0588C23.6111 11 24.0588 11.4477 24.0588 12C24.0588 12.5523 23.6111 13 23.0588 13H1C0.447715 13 0 12.5523 0 12ZM1 17C0.447715 17 0 17.4477 0 18C0 18.5523 0.447715 19 1 19H23.0588C23.6111 19 24.0588 18.5523 24.0588 18C24.0588 17.4477 23.6111 17 23.0588 17H1Z" fill="white"/>
</g>
<defs>
<clipPath id="clip0">
<rect width="24" height="24" fill="white"/>
</clipPath>
</defs>
</svg>
