<svg width="86" height="44" viewBox="0 0 86 44" fill="none" xmlns="http://www.w3.org/2000/svg">
<rect x="0.5" y="0.5" width="85" height="43" rx="3.5" stroke="#78BC27"/>
<path d="M16.8645 7.41C14.3445 7.41 12.4825 9.37 12.4825 12.366C12.4825 15.222 14.2325 17.154 16.7245 17.154C19.1325 17.154 21.1065 15.432 21.1065 12.184C21.1065 9.384 19.4405 7.41 16.8645 7.41ZM16.8085 8.404C18.8385 8.404 19.8185 10.364 19.8185 12.24C19.8185 14.382 18.7265 16.16 16.7945 16.16C14.8765 16.16 13.7845 14.354 13.7845 12.338C13.7845 10.266 14.7925 8.404 16.8085 8.404ZM27.8329 6.906C27.3709 7.074 26.6989 7.186 26.1529 7.27C24.8369 7.494 23.8989 7.928 23.2409 8.866C22.5129 9.818 22.1909 11.078 22.1909 12.618C22.1909 14.872 22.9749 17.154 25.3549 17.154C27.3429 17.154 28.4909 15.782 28.4909 13.57C28.4909 11.414 27.2729 10.224 25.6069 10.224C24.6409 10.224 23.6889 10.77 23.2549 11.75H23.2129C23.2689 11.036 23.5209 10.126 23.9549 9.51C24.4729 8.768 25.2709 8.404 26.3629 8.236C26.8109 8.166 27.4269 8.054 27.7769 7.928L27.8329 6.906ZM27.2449 13.668C27.2449 14.914 26.7409 16.23 25.3829 16.23C24.0389 16.23 23.4929 14.62 23.4929 13.5C23.4929 12.954 23.6049 12.464 23.8289 12.058C24.1089 11.512 24.6269 11.134 25.3549 11.134C26.8109 11.134 27.2449 12.562 27.2449 13.668ZM30.0493 19.772H31.2673V16.09H31.2953C31.7013 16.762 32.4853 17.154 33.3813 17.154C34.9773 17.154 36.4613 15.95 36.4613 13.514C36.4613 11.456 35.2293 10.07 33.5913 10.07C32.4853 10.07 31.6873 10.56 31.1833 11.386H31.1553L31.0993 10.224H29.9933C30.0213 10.868 30.0493 11.568 30.0493 12.436V19.772ZM31.2673 13.08C31.2673 12.912 31.3093 12.73 31.3513 12.576C31.5893 11.652 32.3733 11.05 33.2133 11.05C34.5153 11.05 35.2293 12.212 35.2293 13.57C35.2293 15.124 34.4733 16.188 33.1713 16.188C32.2893 16.188 31.5473 15.6 31.3233 14.746C31.2953 14.592 31.2673 14.424 31.2673 14.242V13.08ZM42.892 17C42.808 16.538 42.78 15.964 42.78 15.376V12.842C42.78 11.484 42.276 10.07 40.204 10.07C39.35 10.07 38.538 10.308 37.978 10.672L38.258 11.484C38.734 11.176 39.392 10.98 40.022 10.98C41.408 10.98 41.562 11.988 41.562 12.548V12.688C38.944 12.674 37.488 13.57 37.488 15.208C37.488 16.188 38.188 17.154 39.56 17.154C40.526 17.154 41.254 16.678 41.632 16.146H41.674L41.772 17H42.892ZM41.59 14.718C41.59 14.844 41.562 14.984 41.52 15.11C41.324 15.684 40.764 16.244 39.882 16.244C39.252 16.244 38.72 15.866 38.72 15.068C38.72 13.752 40.246 13.514 41.59 13.542V14.718ZM43.8103 10.224V11.204H45.9243V17H47.1423V11.204H49.2563V10.224H43.8103ZM50.3104 10.224V17H51.5284V13.934H54.7484V17H55.9664V10.224H54.7484V12.954H51.5284V10.224H50.3104ZM57.953 10.224V16.972C58.457 17.028 59.087 17.07 59.773 17.07C60.669 17.07 61.761 16.916 62.503 16.286C62.937 15.922 63.203 15.432 63.203 14.718C63.203 13.052 61.733 12.45 60.277 12.45C59.829 12.45 59.437 12.478 59.171 12.534V10.224H57.953ZM59.171 13.402C59.423 13.36 59.731 13.332 60.081 13.332C61.005 13.332 61.985 13.668 61.985 14.76C61.985 15.81 60.963 16.202 60.025 16.202C59.675 16.202 59.409 16.174 59.171 16.146V13.402ZM64.057 10.224V17H65.275V10.224H64.057ZM67.2635 10.224V17H68.6775C69.4055 15.81 70.1475 14.508 70.7915 13.458C71.1835 12.772 71.4775 12.226 71.9115 11.358H71.9535C71.8975 12.45 71.8695 13.024 71.8695 14.13V17H73.0455V10.224H71.6035L69.4895 13.724C69.0415 14.508 68.8035 14.984 68.3975 15.81L68.3555 15.796C68.4115 14.83 68.4255 14.158 68.4255 13.08V10.224H67.2635ZM68.3275 7.466C68.3835 8.432 68.8595 9.202 70.0915 9.202C71.1695 9.202 71.8975 8.614 71.9535 7.466H71.0715C71.0015 8.082 70.7215 8.53 70.1195 8.53C69.5595 8.53 69.2655 8.068 69.2235 7.466H68.3275ZM23.2129 31.906H23.8289C24.8509 31.906 25.8029 32.158 25.8029 33.068C25.8029 33.74 25.1589 34.23 24.1369 34.23C23.4929 34.23 22.8349 34.034 22.3449 33.768L22.0229 34.594C22.6249 34.93 23.4229 35.14 24.2209 35.14C25.6489 35.14 27.1469 34.594 27.1469 33.124C27.1469 32.13 26.3069 31.514 25.2989 31.43V31.402C26.0549 31.248 26.8249 30.702 26.8249 29.862C26.8249 28.546 25.5649 28.084 24.5289 28.084C23.7449 28.084 22.9609 28.28 22.2749 28.7L22.5829 29.456C23.0589 29.162 23.6749 28.98 24.2209 28.98C24.9909 28.98 25.5369 29.358 25.5369 29.96C25.5369 30.59 24.8369 31.066 23.8009 31.066H23.2129V31.906ZM28.6542 35C29.0182 35.028 29.8022 35.084 30.5582 35.084C31.8882 35.084 34.1282 34.86 34.1282 33.082C34.1282 32.102 33.4002 31.542 32.4062 31.402V31.374C33.1762 31.206 33.8202 30.688 33.8202 29.848C33.8202 28.336 31.9442 28.154 30.8102 28.154C30.0122 28.154 29.1302 28.224 28.6542 28.308V35ZM29.8302 29.064C30.1242 29.036 30.3762 29.008 30.7822 29.008C32.0142 29.008 32.6022 29.33 32.6022 30.002C32.6022 30.8 31.6642 31.066 30.7542 31.066H29.8302V29.064ZM29.8162 31.878H30.7122C31.8882 31.878 32.8682 32.088 32.8682 33.068C32.8682 34.048 31.6362 34.244 30.8102 34.244C30.4182 34.244 30.1662 34.23 29.8162 34.188V31.878ZM38.5522 28.07C36.6762 28.07 35.1922 29.4 35.1922 31.668C35.1922 33.81 36.6062 35.154 38.4402 35.154C40.0782 35.154 41.8142 34.062 41.8142 31.556C41.8142 29.484 40.4982 28.07 38.5522 28.07ZM38.5242 28.994C39.9802 28.994 40.5542 30.45 40.5542 31.598C40.5542 33.124 39.6722 34.23 38.4962 34.23C37.2922 34.23 36.4382 33.11 36.4382 31.626C36.4382 30.338 37.0682 28.994 38.5242 28.994ZM43.3378 28.224V35H44.5558V31.934H47.7758V35H48.9938V28.224H47.7758V30.954H44.5558V28.224H43.3378ZM53.8783 28.07C52.0023 28.07 50.5183 29.4 50.5183 31.668C50.5183 33.81 51.9323 35.154 53.7663 35.154C55.4043 35.154 57.1403 34.062 57.1403 31.556C57.1403 29.484 55.8243 28.07 53.8783 28.07ZM53.8503 28.994C55.3063 28.994 55.8803 30.45 55.8803 31.598C55.8803 33.124 54.9983 34.23 53.8223 34.23C52.6183 34.23 51.7643 33.11 51.7643 31.626C51.7643 30.338 52.3943 28.994 53.8503 28.994ZM58.6919 28.224V35H59.9099V32.018H60.1479C61.2959 32.018 61.9259 32.522 62.3879 33.614C62.5979 34.174 62.8359 34.706 63.0179 35H64.3059C63.9979 34.454 63.7599 33.796 63.5779 33.348C63.0459 32.13 62.3879 31.402 61.2959 31.29L64.2499 28.224H62.7519L60.2039 31.164H59.9099V28.224H58.6919Z" fill="#78BC27"/>
</svg>
