<svg width="170" height="72" viewBox="0 0 170 72" fill="none" xmlns="http://www.w3.org/2000/svg">
<rect width="170" height="72" fill="#333640"/>
<rect y="11" width="170" height="48" rx="2" fill="#333640"/>
<path fill-rule="evenodd" clip-rule="evenodd" d="M142 35C142 39.4183 145.582 43 150 43C151.849 43 153.551 42.3729 154.906 41.3199L158.293 44.7071C158.683 45.0976 159.317 45.0976 159.707 44.7071C160.098 44.3166 160.098 43.6834 159.707 43.2929L156.32 39.9056C157.373 38.551 158 36.8487 158 35C158 30.5817 154.418 27 150 27C145.582 27 142 30.5817 142 35ZM144 35C144 38.3137 146.686 41 150 41C153.314 41 156 38.3137 156 35C156 31.6863 153.314 29 150 29C146.686 29 144 31.6863 144 35Z" fill="white"/>
<path d="M17.944 41C18.124 40.676 18.214 40.424 18.34 40.118C18.772 38.966 19.114 37.184 19.942 36.338C20.374 35.906 20.932 35.744 21.688 35.744H22.84V41H24.406V29.03C23.614 28.868 22.534 28.778 21.508 28.778C19.978 28.778 18.79 29.102 18.034 29.714C17.35 30.272 16.918 31.118 16.918 32.18C16.918 33.836 18.106 34.916 19.6 35.168V35.222C19.24 35.33 18.88 35.546 18.592 35.834C17.602 36.824 17.278 38.516 16.756 39.902C16.612 40.298 16.45 40.676 16.27 41H17.944ZM22.84 34.538C22.534 34.556 22.03 34.556 21.508 34.556C19.798 34.556 18.502 33.71 18.502 32.252C18.502 30.578 19.816 29.984 21.364 29.984C22.066 29.984 22.57 30.074 22.84 30.128V34.538ZM30.8659 32.288V41H32.6839C33.6199 39.47 34.5739 37.796 35.4019 36.446C35.9059 35.564 36.2839 34.862 36.8419 33.746H36.8959C36.8239 35.15 36.7879 35.888 36.7879 37.31V41H38.2999V32.288H36.4459L33.7279 36.788C33.1519 37.796 32.8459 38.408 32.3239 39.47L32.2699 39.452C32.3419 38.21 32.3599 37.346 32.3599 35.96V32.288H30.8659ZM40.8327 32.288V41H51.0747L51.1467 43.772H52.3707L52.4607 39.83L51.5787 39.812V32.288H50.0127V39.758H46.9707V32.288H45.4227V39.758H42.3807V32.288H40.8327ZM53.1464 32.288L56.3684 40.316C56.4404 40.514 56.4764 40.64 56.4764 40.73C56.4764 40.82 56.4224 40.946 56.3504 41.108C55.9904 41.918 55.4504 42.53 55.0184 42.872C54.5504 43.268 54.0284 43.52 53.6324 43.646L54.0284 44.978C54.4244 44.906 55.1984 44.636 55.9724 43.952C57.0524 43.016 57.8264 41.486 58.9604 38.498L61.3364 32.288H59.6624L57.9344 37.4C57.7184 38.03 57.5384 38.696 57.3764 39.218H57.3404C57.1964 38.696 56.9804 38.012 56.7824 37.436L54.8744 32.288H53.1464ZM62.5585 41.198C63.2245 41.198 63.6385 40.712 63.6385 40.064C63.6385 39.398 63.2065 38.93 62.5765 38.93C61.9465 38.93 61.4965 39.398 61.4965 40.064C61.4965 40.712 61.9285 41.198 62.5585 41.198ZM66.2851 41.198C66.9511 41.198 67.3651 40.712 67.3651 40.064C67.3651 39.398 66.9331 38.93 66.3031 38.93C65.6731 38.93 65.2231 39.398 65.2231 40.064C65.2231 40.712 65.6551 41.198 66.2851 41.198ZM70.0117 41.198C70.6777 41.198 71.0917 40.712 71.0917 40.064C71.0917 39.398 70.6597 38.93 70.0297 38.93C69.3997 38.93 68.9497 39.398 68.9497 40.064C68.9497 40.712 69.3817 41.198 70.0117 41.198Z" fill="#9EA1A7"/>
</svg>
