<svg width="174" height="56" fill="none" xmlns="http://www.w3.org/2000/svg"><g filter="url(#filter0_d)"><path d="M4 28C4 14.745 14.745 4 28 4h118c13.255 0 24 10.745 24 24s-10.745 24-24 24H28C14.745 52 4 41.255 4 28z" fill="#78BC27"/><path d="M29.136 21.716V32.5h1.968v-9.168h4.352V32.5h1.968V21.716h-8.288zm15.762-.176c-3.04 0-5.12 2.336-5.12 5.648 0 3.168 1.92 5.488 4.96 5.488 2.977 0 5.169-2.064 5.169-5.68 0-3.072-1.856-5.456-5.008-5.456zm-.048 1.584c1.968 0 2.977 1.92 2.977 3.952 0 2.256-1.072 4.016-2.977 4.016-1.888 0-2.992-1.744-2.992-3.936 0-2.224 1.04-4.032 2.992-4.032zm8.443-1.408v2.816c0 1.552-.128 2.864-.464 4.016-.24.848-.624 1.632-1.04 2.384l-.864.048.096 4.192h1.504l.112-2.672h6.544l.112 2.672h1.504l.112-4.192-1.024-.048v-9.216h-6.592zm1.824 1.616h2.8v7.552h-4.112c.288-.528.592-1.216.8-1.92.352-1.136.512-2.464.512-3.936v-1.696zm7.986 9.168h1.952v-4.064c.256.048.592.064.96.064 1.392 0 2.624-.368 3.408-1.152.608-.576.928-1.424.928-2.448 0-1.008-.416-1.856-1.056-2.384-.688-.576-1.744-.88-3.184-.88-1.328 0-2.304.096-3.008.224V32.5zm1.952-9.264c.208-.048.592-.096 1.136-.096 1.36 0 2.192.64 2.192 1.84 0 1.264-.896 1.984-2.368 1.984-.4 0-.72-.016-.96-.08v-3.648zm12.107-1.696c-3.04 0-5.12 2.336-5.12 5.648 0 3.168 1.92 5.488 4.96 5.488 2.976 0 5.168-2.064 5.168-5.68 0-3.072-1.856-5.456-5.008-5.456zm-.048 1.584c1.968 0 2.976 1.92 2.976 3.952 0 2.256-1.072 4.016-2.976 4.016-1.888 0-2.992-1.744-2.992-3.936 0-2.224 1.04-4.032 2.992-4.032zm7.394-1.408v10.752c.496.064 1.312.144 2.416.144 1.568 0 3.152-.336 4.128-1.232.592-.56.96-1.36.96-2.384 0-1.216-.528-2.08-1.312-2.608-.784-.56-1.856-.816-2.912-.816-.4 0-.96.032-1.328.08v-2.32h4.704v-1.616h-6.656zm1.952 5.408c.32-.032.672-.064.976-.064.656 0 1.312.144 1.792.512.448.304.72.784.72 1.456 0 .592-.208 1.072-.56 1.408-.448.448-1.168.672-1.888.672-.4 0-.752-.016-1.04-.064v-3.92zm7.891-5.408V32.5h1.968v-4.752h4.56V32.5h1.968V21.716h-1.968v4.32h-4.56v-4.32h-1.968zm17.422 4.4h-4.064v-2.784h4.304v-1.616h-6.272V32.5h6.512v-1.616h-4.544v-3.168h4.064v-1.6zm8.874 0h-4.064v-2.784h4.304v-1.616h-6.272V32.5h6.512v-1.616h-4.544v-3.168h4.064v-1.6z" fill="#fff"/><path opacity=".6" d="M132 23l5.25 5-5.25 5" stroke="#fff" stroke-width="2" stroke-linecap="round" stroke-linejoin="round"/><path opacity=".3" d="M127 23l5.25 5-5.25 5" stroke="#fff" stroke-width="2" stroke-linecap="round" stroke-linejoin="round"/><path d="M137 23l5.25 5-5.25 5" stroke="#fff" stroke-width="2" stroke-linecap="round" stroke-linejoin="round"/><path d="M28 5h118V3H28v2zm118 46H28v2h118v-2zM28 51C15.297 51 5 40.703 5 28H3c0 13.807 11.193 25 25 25v-2zm141-23c0 12.703-10.297 23-23 23v2c13.807 0 25-11.193 25-25h-2zM146 5c12.703 0 23 10.297 23 23h2c0-13.807-11.193-25-25-25v2zM28 3C14.193 3 3 14.193 3 28h2C5 15.297 15.297 5 28 5V3z" fill="#78BC27"/></g><defs><filter id="filter0_d" x="0" y="0" width="174" height="56" filterUnits="userSpaceOnUse" color-interpolation-filters="sRGB"><feFlood flood-opacity="0" result="BackgroundImageFix"/><feColorMatrix in="SourceAlpha" values="0 0 0 0 0 0 0 0 0 0 0 0 0 0 0 0 0 0 127 0"/><feOffset/><feGaussianBlur stdDeviation="2"/><feColorMatrix values="0 0 0 0 0.470588 0 0 0 0 0.737255 0 0 0 0 0.152941 0 0 0 0.4 0"/><feBlend in2="BackgroundImageFix" result="effect1_dropShadow"/><feBlend in="SourceGraphic" in2="effect1_dropShadow" result="shape"/></filter></defs></svg>