<svg width="174" height="56" viewBox="0 0 174 56" fill="none" xmlns="http://www.w3.org/2000/svg">
<g filter="url(#filter0_d)">
<path d="M4 28C4 14.7452 14.7452 4 28 4H146C159.255 4 170 14.7452 170 28C170 41.2548 159.255 52 146 52H28C14.7452 52 4 41.2548 4 28Z" fill="#78BC27"/>
<path d="M29.136 21.716V32.5H31.104V23.332H35.456V32.5H37.424V21.716H29.136ZM44.8985 21.54C41.8585 21.54 39.7785 23.876 39.7785 27.188C39.7785 30.356 41.6985 32.676 44.7385 32.676C47.7145 32.676 49.9065 30.612 49.9065 26.996C49.9065 23.924 48.0505 21.54 44.8985 21.54ZM44.8505 23.124C46.8185 23.124 47.8265 25.044 47.8265 27.076C47.8265 29.332 46.7545 31.092 44.8505 31.092C42.9625 31.092 41.8585 29.348 41.8585 27.156C41.8585 24.932 42.8985 23.124 44.8505 23.124ZM53.2931 21.716V24.532C53.2931 26.084 53.1651 27.396 52.8291 28.548C52.5891 29.396 52.2051 30.18 51.7891 30.932L50.9251 30.98L51.0211 35.172H52.5251L52.6371 32.5H59.1811L59.2931 35.172H60.7971L60.9091 30.98L59.8851 30.932V21.716H53.2931ZM55.1171 23.332H57.9171V30.884H53.8051C54.0931 30.356 54.3971 29.668 54.6051 28.964C54.9571 27.828 55.1171 26.5 55.1171 25.028V23.332ZM63.1029 32.5H65.0549V28.436C65.3109 28.484 65.6469 28.5 66.0149 28.5C67.4069 28.5 68.6389 28.132 69.4229 27.348C70.0309 26.772 70.3509 25.924 70.3509 24.9C70.3509 23.892 69.9349 23.044 69.2949 22.516C68.6069 21.94 67.5509 21.636 66.1109 21.636C64.7829 21.636 63.8069 21.732 63.1029 21.86V32.5ZM65.0549 23.236C65.2629 23.188 65.6469 23.14 66.1909 23.14C67.5509 23.14 68.3829 23.78 68.3829 24.98C68.3829 26.244 67.4869 26.964 66.0149 26.964C65.6149 26.964 65.2949 26.948 65.0549 26.884V23.236ZM77.1623 21.54C74.1223 21.54 72.0423 23.876 72.0423 27.188C72.0423 30.356 73.9623 32.676 77.0023 32.676C79.9783 32.676 82.1703 30.612 82.1703 26.996C82.1703 23.924 80.3143 21.54 77.1623 21.54ZM77.1143 23.124C79.0823 23.124 80.0903 25.044 80.0903 27.076C80.0903 29.332 79.0183 31.092 77.1143 31.092C75.2263 31.092 74.1223 29.348 74.1223 27.156C74.1223 24.932 75.1623 23.124 77.1143 23.124ZM84.5079 21.716V32.468C85.0039 32.532 85.8199 32.612 86.9239 32.612C88.4919 32.612 90.0759 32.276 91.0519 31.38C91.6439 30.82 92.0119 30.02 92.0119 28.996C92.0119 27.78 91.4839 26.916 90.6999 26.388C89.9159 25.828 88.8439 25.572 87.7879 25.572C87.3879 25.572 86.8279 25.604 86.4599 25.652V23.332H91.1639V21.716H84.5079ZM86.4599 27.124C86.7799 27.092 87.1319 27.06 87.4359 27.06C88.0919 27.06 88.7479 27.204 89.2279 27.572C89.6759 27.876 89.9479 28.356 89.9479 29.028C89.9479 29.62 89.7399 30.1 89.3879 30.436C88.9399 30.884 88.2199 31.108 87.4999 31.108C87.0999 31.108 86.7479 31.092 86.4599 31.044V27.124ZM94.351 21.716V32.5H96.319V27.748H100.879V32.5H102.847V21.716H100.879V26.036H96.319V21.716H94.351ZM111.773 26.116H107.709V23.332H112.013V21.716H105.741V32.5H112.253V30.884H107.709V27.716H111.773V26.116ZM120.647 26.116H116.583V23.332H120.887V21.716H114.615V32.5H121.127V30.884H116.583V27.716H120.647V26.116Z" fill="white"/>
<path opacity="0.6" d="M132 23L137.25 28L132 33" stroke="white" stroke-width="2" stroke-linecap="round" stroke-linejoin="round"/>
<path opacity="0.3" d="M127 23L132.25 28L127 33" stroke="white" stroke-width="2" stroke-linecap="round" stroke-linejoin="round"/>
<path d="M137 23L142.25 28L137 33" stroke="white" stroke-width="2" stroke-linecap="round" stroke-linejoin="round"/>
<path d="M28 5H146V3H28V5ZM146 51H28V53H146V51ZM28 51C15.2975 51 5 40.7025 5 28H3C3 41.8071 14.1929 53 28 53V51ZM169 28C169 40.7025 158.703 51 146 51V53C159.807 53 171 41.8071 171 28H169ZM146 5C158.703 5 169 15.2975 169 28H171C171 14.1929 159.807 3 146 3V5ZM28 3C14.1929 3 3 14.1929 3 28H5C5 15.2975 15.2975 5 28 5V3Z" fill="#78BC27"/>
</g>
<defs>
<filter id="filter0_d" x="0" y="0" width="174" height="56" filterUnits="userSpaceOnUse" color-interpolation-filters="sRGB">
<feFlood flood-opacity="0" result="BackgroundImageFix"/>
<feColorMatrix in="SourceAlpha" type="matrix" values="0 0 0 0 0 0 0 0 0 0 0 0 0 0 0 0 0 0 127 0"/>
<feOffset/>
<feGaussianBlur stdDeviation="2"/>
<feColorMatrix type="matrix" values="0 0 0 0 0.470588 0 0 0 0 0.737255 0 0 0 0 0.152941 0 0 0 0.4 0"/>
<feBlend mode="normal" in2="BackgroundImageFix" result="effect1_dropShadow"/>
<feBlend mode="normal" in="SourceGraphic" in2="effect1_dropShadow" result="shape"/>
</filter>
</defs>
</svg>
