<svg width="48" height="48" viewBox="0 0 48 48" fill="none" xmlns="http://www.w3.org/2000/svg">
<path d="M26 29L20.75 24L26 19" stroke="white" stroke-width="2" stroke-linecap="round" stroke-linejoin="round"/>
<path d="M24 0.999998C36.7026 0.999999 47 11.2975 47 24L49 24C49 10.1929 37.8071 -1 24 -1L24 0.999998ZM1 24C1 11.2974 11.2975 0.999997 24 0.999998L24 -1C10.1929 -1 -0.999997 10.1929 -0.999998 24L1 24ZM24 47C11.2975 47 1 36.7025 1 24L-0.999998 24C-0.999999 37.8071 10.1929 49 24 49L24 47ZM24 49C37.8071 49 49 37.8071 49 24L47 24C47 36.7025 36.7025 47 24 47L24 49Z" fill="white"/>
</svg>
