<svg width="86" height="44" fill="none" xmlns="http://www.w3.org/2000/svg"><rect x=".5" y=".5" width="85" height="43" rx="3.5" stroke="#78BC27"/><path d="M16.864 7.41c-2.52 0-4.382 1.96-4.382 4.956 0 2.856 1.75 4.788 4.242 4.788 2.409 0 4.383-1.722 4.383-4.97 0-2.8-1.666-4.774-4.242-4.774zm-.056.994c2.03 0 3.01 1.96 3.01 3.836 0 2.142-1.091 3.92-3.024 3.92-1.918 0-3.01-1.806-3.01-3.822 0-2.072 1.008-3.934 3.024-3.934zm11.025-1.498c-.462.168-1.134.28-1.68.364-1.316.224-2.254.658-2.912 1.596-.728.952-1.05 2.212-1.05 3.752 0 2.254.784 4.536 3.164 4.536 1.988 0 3.136-1.372 3.136-3.584 0-2.156-1.218-3.346-2.884-3.346-.966 0-1.918.546-2.352 1.526h-.042c.056-.714.308-1.624.742-2.24.518-.742 1.316-1.106 2.408-1.274.448-.07 1.064-.182 1.414-.308l.056-1.022zm-.588 6.762c0 1.246-.504 2.562-1.862 2.562-1.344 0-1.89-1.61-1.89-2.73 0-.546.112-1.036.336-1.442.28-.546.798-.924 1.526-.924 1.456 0 1.89 1.428 1.89 2.534zm2.804 6.104h1.218V16.09h.028c.406.672 1.19 1.064 2.086 1.064 1.596 0 3.08-1.204 3.08-3.64 0-2.058-1.232-3.444-2.87-3.444-1.106 0-1.904.49-2.408 1.316h-.028l-.056-1.162h-1.106c.028.644.056 1.344.056 2.212v7.336zm1.218-6.692c0-.168.042-.35.084-.504.238-.924 1.022-1.526 1.862-1.526 1.302 0 2.016 1.162 2.016 2.52 0 1.554-.756 2.618-2.058 2.618a1.901 1.901 0 01-1.848-1.442 2.774 2.774 0 01-.056-.504V13.08zM42.892 17c-.084-.462-.112-1.036-.112-1.624v-2.534c0-1.358-.504-2.772-2.576-2.772-.854 0-1.666.238-2.226.602l.28.812a3.376 3.376 0 011.764-.504c1.386 0 1.54 1.008 1.54 1.568v.14c-2.618-.014-4.074.882-4.074 2.52 0 .98.7 1.946 2.072 1.946.966 0 1.694-.476 2.072-1.008h.042l.098.854h1.12zm-1.302-2.282c0 .126-.028.266-.07.392-.196.574-.756 1.134-1.638 1.134-.63 0-1.162-.378-1.162-1.176 0-1.316 1.526-1.554 2.87-1.526v1.176zm2.22-4.494v.98h2.114V17h1.218v-5.796h2.114v-.98H43.81zm6.5 0V17h1.218v-3.066h3.22V17h1.218v-6.776h-1.218v2.73h-3.22v-2.73H50.31zm7.643 0v6.748c.504.056 1.134.098 1.82.098.896 0 1.988-.154 2.73-.784.434-.364.7-.854.7-1.568 0-1.666-1.47-2.268-2.926-2.268-.448 0-.84.028-1.106.084v-2.31h-1.218zm1.218 3.178c.252-.042.56-.07.91-.07.924 0 1.904.336 1.904 1.428 0 1.05-1.022 1.442-1.96 1.442-.35 0-.616-.028-.854-.056v-2.744zm4.886-3.178V17h1.218v-6.776h-1.218zm3.206 0V17h1.414c.728-1.19 1.47-2.492 2.114-3.542.392-.686.687-1.232 1.12-2.1h.043a45.467 45.467 0 00-.084 2.772V17h1.175v-6.776h-1.442l-2.113 3.5c-.448.784-.686 1.26-1.093 2.086l-.041-.014c.056-.966.07-1.638.07-2.716v-2.856h-1.163zm1.064-2.758c.056.966.532 1.736 1.764 1.736 1.079 0 1.806-.588 1.863-1.736h-.882c-.07.616-.35 1.064-.953 1.064-.56 0-.853-.462-.895-1.064h-.897zm-45.114 24.44h.616c1.022 0 1.974.252 1.974 1.162 0 .672-.644 1.162-1.666 1.162a3.908 3.908 0 01-1.792-.462l-.322.826c.602.336 1.4.546 2.198.546 1.428 0 2.926-.546 2.926-2.016 0-.994-.84-1.61-1.848-1.694v-.028c.756-.154 1.526-.7 1.526-1.54 0-1.316-1.26-1.778-2.296-1.778-.784 0-1.568.196-2.254.616l.308.756a3.27 3.27 0 011.638-.476c.77 0 1.316.378 1.316.98 0 .63-.7 1.106-1.736 1.106h-.588v.84zM28.654 35c.364.028 1.148.084 1.904.084 1.33 0 3.57-.224 3.57-2.002 0-.98-.728-1.54-1.722-1.68v-.028c.77-.168 1.414-.686 1.414-1.526 0-1.512-1.876-1.694-3.01-1.694-.798 0-1.68.07-2.156.154V35zm1.176-5.936c.294-.028.546-.056.952-.056 1.232 0 1.82.322 1.82.994 0 .798-.938 1.064-1.848 1.064h-.924v-2.002zm-.014 2.814h.896c1.176 0 2.156.21 2.156 1.19s-1.232 1.176-2.058 1.176a7.46 7.46 0 01-.994-.056v-2.31zm8.736-3.808c-1.876 0-3.36 1.33-3.36 3.598 0 2.142 1.414 3.486 3.248 3.486 1.638 0 3.374-1.092 3.374-3.598 0-2.072-1.316-3.486-3.262-3.486zm-.028.924c1.456 0 2.03 1.456 2.03 2.604 0 1.526-.882 2.632-2.058 2.632-1.204 0-2.058-1.12-2.058-2.604 0-1.288.63-2.632 2.086-2.632zm4.814-.77V35h1.218v-3.066h3.22V35h1.218v-6.776h-1.218v2.73h-3.22v-2.73h-1.218zm10.54-.154c-1.876 0-3.36 1.33-3.36 3.598 0 2.142 1.414 3.486 3.248 3.486 1.638 0 3.374-1.092 3.374-3.598 0-2.072-1.316-3.486-3.262-3.486zm-.028.924c1.456 0 2.03 1.456 2.03 2.604 0 1.526-.882 2.632-2.058 2.632-1.204 0-2.058-1.12-2.058-2.604 0-1.288.63-2.632 2.086-2.632zm4.842-.77V35h1.218v-2.982h.238c1.148 0 1.778.504 2.24 1.596.21.56.448 1.092.63 1.386h1.288c-.308-.546-.546-1.204-.728-1.652-.532-1.218-1.19-1.946-2.282-2.058l2.954-3.066h-1.498l-2.548 2.94h-.294v-2.94h-1.218z" fill="#78BC27"/></svg>