<svg width="500" height="373" fill="none" xmlns="http://www.w3.org/2000/svg"><g clip-path="url(#clip0)"><path d="M500 327.45H0v.25h500v-.25zm-50.1 16.09h-21.68v.25h21.68v-.25zm-105.23-5.19h-34.11v.25h34.11v-.25zm96.45-4.09h-44.53v.25h44.53v-.25zm-268.1 5.04h-11.14v.25h11.14v-.25zm-20.05 0h-38.39v.25h38.39v-.25zm-58.96-4.22h-27.7v.25h27.7v-.25zm122.06-189.15l.45-13.15-8.06-2.63A78.983 78.983 0 00206.3 117l6.84-5-4.64-12.43-8.46.68a78.227 78.227 0 00-7-11.35l4.38-7.31-9-9.61-7.56 3.87A82.785 82.785 0 00170 68l1.22-8.39-12-5.45-5.5 6.45a80.651 80.651 0 00-13-3l-2-8.23-13.18-.45-2.68 8.07a80.46 80.46 0 00-13.19 2.15l-5.08-6.81-12.34 4.57.68 8.46a80.183 80.183 0 00-11.35 7.08l-7.28-4.38-9.65 9 3.87 7.59a78.306 78.306 0 00-7.8 10.85l-8.39-1.26-5.48 12 6.48 5.5a78.294 78.294 0 00-3 13L42 126.81 41.57 140l8.1 2.64a77.39 77.39 0 002.15 13.19l-6.84 5 4.65 12.35 8.46-.69a76.453 76.453 0 007 11.35l-4.39 7.32 9 9.61 7.56-3.88a80.74 80.74 0 0010.84 7.84l-1.26 8.39 12 5.45 5.53-6.44a82.852 82.852 0 0013 3l2 8.22 13.18.45 2.6-8.06a81.416 81.416 0 0013.2-2.16l5 6.81 12.34-4.61-.64-8.46a82.563 82.563 0 0011.35-7.08l7.27 4.39 9.65-9-3.87-7.59a77.336 77.336 0 007.8-10.84l8.39 1.26 5.48-12-6.48-5.5a77.587 77.587 0 003.05-13l8.38-2.03zm-88.79 42.57a52.154 52.154 0 01-47.078-33.817A52.16 52.16 0 11181.17 138.17a52.15 52.15 0 01-53.89 50.33zM441 102.47l3.31-3.09-1.31-2.61a27.08 27.08 0 002.64-3.77l2.9.44 1.87-4.14-2.22-1.9c.478-1.46.829-2.96 1.05-4.48l2.85-.72.14-4.54-2.78-.9a28.237 28.237 0 00-.74-4.55l2.35-1.75-1.6-4.25-2.91.23a28.319 28.319 0 00-2.43-3.92l1.51-2.5-3.11-3.33-2.6 1.34a27.47 27.47 0 00-3.74-2.7l.42-2.89-4.13-1.89-1.9 2.23a27.822 27.822 0 00-4.49-1l-.71-2.85-4.54-.16-.91 2.8c-1.532.112-3.051.36-4.54.74l-1.74-2.36-4.26 1.59.24 2.92a26.575 26.575 0 00-3.92 2.43l-2.52-1.5-3.32 3.09 1.34 2.62a25.97 25.97 0 00-2.7 3.74l-2.89-.44-1.88 4.15 2.27 1.87a26.839 26.839 0 00-1 4.49l-2.86.71-.14 4.54 2.79.9c.115 1.538.359 3.063.73 4.56l-2.36 1.73 1.6 4.26 2.92-.22A28.228 28.228 0 00400 95.3l-1.51 2.51 3.11 3.32 2.6-1.33a28.183 28.183 0 003.74 2.69l-.43 2.89 4.14 1.89 1.9-2.22c1.468.452 2.969.786 4.49 1l.71 2.84 4.54.16.91-2.79a26.813 26.813 0 004.54-.74l1.74 2.35 4.26-1.59-.23-2.92a26.708 26.708 0 003.91-2.43l2.58 1.54zm-23.66-19.13a6.468 6.468 0 011.314-9.918 6.471 6.471 0 11-1.314 9.918zM320 237.38l-10.34-7.14a56 56 0 00-4.16-10.77l2.65-10.4-15-16.07-10.56 1.94a56.957 56.957 0 00-10.47-4.94l-6.42-10.81-22-.76-7.14 10.34a57.294 57.294 0 00-10.79 4.23l-10.4-2.65-16.06 15 1.93 10.54a55.648 55.648 0 00-4.88 10.49l-10.81 6.42-.75 22 10.35 7.15a54.986 54.986 0 004.15 10.82l-2.64 10.37 15 16.06 10.49-1.92a56.466 56.466 0 0010.54 4.89l6.41 10.79 22 .75 7.13-10.33a57.05 57.05 0 0010.86-4.16l10.34 2.64 16.07-15-1.93-10.54a55.367 55.367 0 004.88-10.5l10.81-6.42.74-22.02zm-68.45 33.39a24.714 24.714 0 01-22.295-16.025 24.708 24.708 0 0119.151-33.056 24.713 24.713 0 0124.992 11.368 24.72 24.72 0 013.692 13.863 24.72 24.72 0 01-25.55 23.85h.01zm92-95.77h-.07l-17.32-.59a2.128 2.128 0 01-1.74-1l-4.67-7.86a47.792 47.792 0 01-7.28-3.37l-7.47 1.34a2.105 2.105 0 01-1.92-.64l-11.83-12.66a2.112 2.112 0 01-.5-2l1.89-7.41a45.858 45.858 0 01-2.86-7.47l-7.53-5.2a2.12 2.12 0 01-.91-1.81l.59-17.32a2.128 2.128 0 011-1.74l7.87-4.68a45.653 45.653 0 013.37-7.24l-1.38-7.54a2.106 2.106 0 01.64-1.92l12.65-11.79a2.113 2.113 0 012-.5l7.44 1.9a46.815 46.815 0 017.45-2.88l5.2-7.52a1.998 1.998 0 011.81-.91l17.31.59a2.162 2.162 0 011.75 1l4.67 7.87a47.328 47.328 0 017.22 3.37l7.56-1.38a2.093 2.093 0 011.92.64L382.2 89a2.112 2.112 0 01.5 2l-1.9 7.44a46.635 46.635 0 012.88 7.45l7.52 5.11a2.108 2.108 0 01.91 1.81l-.59 17.32a2.166 2.166 0 01-1 1.75l-7.87 4.67a46.49 46.49 0 01-3.37 7.24l1.38 7.54a2.105 2.105 0 01-.64 1.92l-12.66 11.82a2.08 2.08 0 01-2 .51L358 163.7a47.528 47.528 0 01-7.49 2.87l-5.19 7.52a2.133 2.133 0 01-1.77.91zm-16.09-4.77l15 .51 5-7.2a2.085 2.085 0 011.19-.84 43.136 43.136 0 008.15-3.12 2.101 2.101 0 011.46-.15l7 1.79 11-10.25-1.26-7.18a2.09 2.09 0 01.26-1.47 41.665 41.665 0 003.65-7.84c.162-.491.496-.906.94-1.17l7.53-4.47.51-15-7.2-5a2.151 2.151 0 01-.81-1.07v-.17a42.462 42.462 0 00-3.12-8.05 2.113 2.113 0 01-.16-1.48l1.8-7.08L368.07 80l-7.19 1.32a2.08 2.08 0 01-1.46-.27 42.904 42.904 0 00-7.84-3.66 2.309 2.309 0 01-.45-.21 1.995 1.995 0 01-.7-.72L346 69l-15-.51-5 7.2a2.169 2.169 0 01-1.24.86 42.625 42.625 0 00-8.06 3.11 2.08 2.08 0 01-1.47.16L308.12 78l-11 10.25 1.32 7.17a2.18 2.18 0 01-.19 1.33l-.1.17a41.758 41.758 0 00-3.65 7.85c-.168.471-.493.87-.92 1.13l-7.53 4.47-.51 15 7.21 5c.411.281.709.7.84 1.18a41.538 41.538 0 003.11 8.12c.071.144.128.295.17.45a2.28 2.28 0 010 1l-1.8 7.05 10.25 11 7.14-1.31a2.1 2.1 0 011.45.26 43.198 43.198 0 007.89 3.66c.492.159.909.493 1.17.94l4.49 7.51zm9.27-18.97h-1.11a31.532 31.532 0 01-21.642-53.918 31.531 31.531 0 0153.726 22.115 31.532 31.532 0 01-30.974 31.803zm0-59.09a27.258 27.258 0 00-26.784 27.493 27.261 27.261 0 0054.518 0A27.258 27.258 0 00337.68 92.17h-.95z" fill="#F3F4F2"/><path d="M383.44 50.37l-7.18-1.93-1.92-7.17 2.81-2.81 2.96 6.14 6.14 2.96-2.81 2.81z" fill="#D3D4D7"/><path d="M383.88 45.57a3.35 3.35 0 00-4.73-4.74l3.57-5.35 4.78 2.42 1.05 5-4.67 2.67z" fill="#D3D4D7"/><path d="M376.58 39l5.26-5.26L389 35.7l1.93 7.17-5.26 5.26-7.17-1.93-1.92-7.2zm9.55 4.3a3.351 3.351 0 10-2.376.985 3.379 3.379 0 002.376-.955v-.03z" fill="#E5E6E7"/><path d="M90.22 241.75l3.85-1.03 1.03-3.85-1.5-1.5-1.59 3.29-3.3 1.59 1.51 1.5z" fill="#D3D4D7"/><path d="M90 239.18a1.795 1.795 0 01-.613-1.295 1.798 1.798 0 011.858-1.858 1.805 1.805 0 011.295.613l-1.91-2.87-2.63 1.29-.56 2.7 2.56 1.42z" fill="#D3D4D7"/><path d="M93.9 235.67l-2.82-2.82-3.85 1-1 3.85 2.77 2.85 3.85-1 1.05-3.88zM88.78 238a1.798 1.798 0 011.27-3.075A1.8 1.8 0 0191.32 238a1.807 1.807 0 01-2.54 0zM76.36 30.71l3.2 3.19a2.119 2.119 0 003 0 2.14 2.14 0 000-3l-3.19-3.2a2.15 2.15 0 00-3 0 2.15 2.15 0 00-.01 3.01z" fill="#E5E6E7"/><path d="M74.11 22.75a4.6 4.6 0 016 2.59 4.74 4.74 0 01-8.91 3.2 4.6 4.6 0 012.91-5.79z" fill="#D3D4D7"/><path d="M70.626 28.002l.463 1.29 9.505-3.415-.463-1.29-9.505 3.415z" fill="#E5E6E7"/><path d="M250 372.61c107.082 0 193.89-5.068 193.89-11.32 0-6.252-86.808-11.32-193.89-11.32-107.082 0-193.89 5.068-193.89 11.32 0 6.252 86.808 11.32 193.89 11.32z" fill="#F3F4F2"/><path d="M128.68 116.63a.391.391 0 01-.18 0c-4.5-1.74-7.19-3.44-8.59-5.49a5.139 5.139 0 01-3.23-.44 6.494 6.494 0 01-2.79-2.62 2.54 2.54 0 01-2.42.37 6.142 6.142 0 01-3-2.41 2.34 2.34 0 01-1.56.43c-3-.24-7-6.16-7.29-12.47a.51.51 0 01.48-.52.5.5 0 01.52.48c.28 6 4.11 11.33 6.38 11.51a1.265 1.265 0 00.93-.28 12.245 12.245 0 01-1-9.41c.86-3 1.62-4.18 2.54-4 1.72.43 1.49 7 .58 11.29a6.137 6.137 0 01-.84 2.18 5.464 5.464 0 002.54 2.21 1.576 1.576 0 001.67-.35c-.78-1.93-1-4.57.12-7.94 1.4-4.43 2-4.55 2.31-4.62a.659.659 0 01.64.22c.93 1-.18 7.92-1.34 11.33a4.73 4.73 0 01-.56 1.15 5.458 5.458 0 002.49 2.5 4.423 4.423 0 002.28.44c-.09-.19-.17-.39-.25-.58-.79-2.15-.4-4.63 1.19-7.58 1.05-2 1.91-2.87 2.71-2.87a1.114 1.114 0 011 .66c.87 1.61.24 6.92-1.48 9.55a3.831 3.831 0 01-1.62 1.4c1.34 1.76 3.89 3.32 8 4.89a.507.507 0 01.41.59.495.495 0 01-.21.327.507.507 0 01-.38.083l-.05-.03zM123 100.16s-.57 0-1.83 2.35c-1.45 2.68-1.82 4.89-1.13 6.75.086.23.186.454.3.67a2.94 2.94 0 001.32-1.1c1.4-2.14 2.07-6.54 1.55-8.26-.07-.35-.21-.41-.21-.41zM115.85 96a23.406 23.406 0 00-1.34 3.53 11.346 11.346 0 00-.38 6.54l.09-.25a32.835 32.835 0 001.63-9.82zm-6.58-3.15c-.17.15-.66.78-1.35 3.22a11.238 11.238 0 00.72 8.24 6.2 6.2 0 00.45-1.4c1.04-4.91.74-9.4.18-10.11v.05zM166.7 169a8.995 8.995 0 01-4.56-1.18.513.513 0 01-.18-.69.484.484 0 01.302-.234.488.488 0 01.378.054c3.57 2.1 8.18.64 9.13-.89a.895.895 0 00.15-.67 8.138 8.138 0 01-5.13-1.47c-2.55-1.59-2.75-2.06-2.73-2.44a.607.607 0 01.34-.52c1-.51 5.51 1.57 7.39 2.81.228.147.436.321.62.52a3.5 3.5 0 001.9-1.15c.281-.323.483-.706.59-1.12h-.2c-1.6.16-3.2-.53-4.91-2.11-1.18-1.08-1.63-1.83-1.48-2.42a.92.92 0 01.72-.66c1.38-.34 4.8 1.11 6.19 2.64.31.337.53.746.64 1.19 1.31-.62 2.69-2 4.32-4.27a.494.494 0 01.325-.206.498.498 0 01.375.086.512.512 0 01.12.7c-1.89 2.64-3.47 4.13-5.05 4.74a3.656 3.656 0 01-.87 2 4.625 4.625 0 01-2.18 1.42 1.833 1.833 0 01-.28 1.39c-.84 1.48-3.26 2.48-5.92 2.48zm-.89-6.93c.34.25.82.58 1.51 1a8.092 8.092 0 003.6 1.32 24.7 24.7 0 00-5.11-2.28v-.04zm3.49-4.25a4.32 4.32 0 001.17 1.39c1.48 1.37 2.83 2 4.13 1.84l.32-.05a1.832 1.832 0 00-.44-.82c-1.4-1.5-4.48-2.48-5.18-2.32v-.04z" fill="#333640"/><path d="M179.94 167.67l-15.58 2.83-14.15-77.21-30.06 5.46-49 87 5.26 28.71L139.26 203l4.3 23.49 30.06-5.47-4.3-23.48 15.58-2.83-4.96-27.04zM101.09 182l26-45.57L134.3 176l-33.21 6zm204.34-94a58.827 58.827 0 00-3.2-14.22 46.149 46.149 0 00-7-12.19 40.367 40.367 0 00-12.7-10.36c-5.333-2.933-12.407-4.973-21.22-6.12-18.3-2.38-32.56.867-42.78 9.74-10.22 8.873-16.953 25.873-20.2 51a139.476 139.476 0 00-1 28.35c.667 8.667 2.26 15.643 4.78 20.93A43.651 43.651 0 00216.79 173c6.313 4.433 14.98 7.367 26 8.8 19.587 2.553 34.11-1.21 43.57-11.29 9.46-10.08 15.727-27.113 18.8-51.1a129.499 129.499 0 00.27-31.41z" fill="#78BC27"/><path d="M251.77 171.48c-2.41-.08-5-.3-7.61-.64-9.16-1.2-16.24-3.51-21.06-6.89a32.689 32.689 0 01-11-13.41l-.05-.1c-1.92-4-3.18-9.75-3.73-17a128.197 128.197 0 01.92-26.1c3.58-27.75 10.95-39.34 16.5-44.14 6.48-5.62 15.23-8.16 26.73-7.76 2.36.08 4.86.29 7.43.62 7.38 1 13.23 2.6 17.37 4.86a29.907 29.907 0 019.31 7.48 35.573 35.573 0 015.35 9.27 47.858 47.858 0 012.56 11.56 118.653 118.653 0 01-.29 28.77c-2.77 21.54-8.13 36.67-15.92 45-5.78 6.17-14.45 9-26.51 8.55v-.07z" fill="#333640"/><path d="M271.34 88.33l.13-3.78-2.33-.76a22.738 22.738 0 00-.62-3.81l2-1.45-1.37-3.53-2.44.2a22.27 22.27 0 00-2-3.27l1.29-2.14-2.65-2.79-2.18 1.11a23.114 23.114 0 00-3.12-2.25l.35-2.42-3.46-1.57-1.58 1.85a23.244 23.244 0 00-3.75-.87l-.61-2.36-3.8-.13-.75 2.33a22.502 22.502 0 00-3.8.62l-1.47-2-3.56 1.33.2 2.44a23.776 23.776 0 00-3.27 2l-2.1-1.26-2.78 2.59 1.12 2.19a21.674 21.674 0 00-2.25 3.12l-2.42-.36-1.58 3.46 1.87 1.58a21.537 21.537 0 00-.88 3.75l-2.38.6-.15 3.86 2.33.76c.098 1.282.305 2.553.62 3.8l-2 1.46 1.34 3.56 2.44-.2a21.938 21.938 0 002 3.27l-1.27 2.11 2.6 2.77 2.18-1.12a23.07 23.07 0 003.12 2.26l-.36 2.42 3.46 1.57 1.59-1.86c1.225.402 2.483.697 3.76.88l.59 2.37 3.79.13.75-2.32a23.606 23.606 0 003.81-.62l1.45 2 3.56-1.33-.19-2.44a22.867 22.867 0 003.27-2l2.1 1.27 2.78-2.59-1.11-2.19a22.21 22.21 0 002.39-3.2l2.42.36 1.58-3.46-1.86-1.58c.399-1.225.69-2.484.87-3.76l2.33-.6zm-25.6 12.28a15 15 0 1115.54-14.51 15.052 15.052 0 01-15.54 14.51z" fill="#78BC27"/><path opacity=".3" d="M287.12 157.91l.28-2.55-1.54-.63a16.054 16.054 0 00-.22-2.59l1.39-.89-.71-2.47h-1.66a15.233 15.233 0 00-1.19-2.31l.94-1.36-1.6-2-1.53.63a16.987 16.987 0 00-2-1.67l.37-1.62-2.25-1.24-1.18 1.19a14.966 14.966 0 00-2.48-.79l-.28-1.63-2.55-.29-.63 1.53a17.04 17.04 0 00-2.59.24l-.89-1.41-2.47.72v1.67c-.801.333-1.574.731-2.31 1.19l-1.36-1-2 1.61.64 1.53c-.61.621-1.168 1.29-1.67 2l-1.62-.36-1.23 2.25 1.18 1.17c-.335.806-.6 1.639-.79 2.49l-1.64.27-.27 2.55 1.53.64c.002.865.079 1.728.23 2.58l-1.41.89.72 2.47H256a15.65 15.65 0 001.2 2.3l-1 1.36 1.6 2 1.55-.65c.621.61 1.289 1.168 2 1.67l-.37 1.62 2.25 1.24 1.17-1.18a16.18 16.18 0 002.48.78l.29 1.63 2.55.29.62-1.53a17.432 17.432 0 002.6-.24l.89 1.41 2.46-.73v-1.66a16.32 16.32 0 002.32-1.19l1.34 1 2-1.61-.65-1.53a16.297 16.297 0 001.69-2l1.61.36 1.24-2.25-1.18-1.17a16.28 16.28 0 00.77-2.47l1.69-.26zm-12.87-1a4.461 4.461 0 11.344-3.357 4.468 4.468 0 01-.344 3.367v-.01z" fill="#78BC27"/><path d="M301.29 114.7l-3-2.06a16.57 16.57 0 00-1.2-3.1l.76-3-4.32-4.63-3 .56a16.288 16.288 0 00-3-1.41l-1.85-3.12-6.33-.22-2.06 3a16.603 16.603 0 00-3.1 1.19l-3-.76-4.63 4.32.56 3a16.065 16.065 0 00-1.41 3l-3.11 1.85-.22 6.33 3 2.06a16.115 16.115 0 001.2 3.12l-.76 3 4.32 4.63 3-.56a15.82 15.82 0 003 1.41l1.84 3.11 6.34.21 2.05-3c1.08-.298 2.128-.7 3.13-1.2l3 .76 4.63-4.33-.55-3a16.257 16.257 0 001.41-3l3.11-1.85.19-6.31zm-19.73 9.62a7.118 7.118 0 01-6.687-8.744 7.118 7.118 0 0112.984-2.121 7.116 7.116 0 011.063 3.995 7.134 7.134 0 01-7.36 6.87z" fill="#fff"/><path d="M323 64.17l.52-1.25c.355-.192.69-.42 1-.68h1.16l1.36-2-.44-1.07A6.2 6.2 0 00327 58l1-.93-.42-2.34-1.26-.52a6.374 6.374 0 00-.69-1.05V52l-1.95-1.36-1.08.44a6.15 6.15 0 00-1.22-.27l-.92-1-2.34.42-.53 1.25a6.553 6.553 0 00-1.05.69l-1.15-.05-1.36 2 .44 1.06c-.133.4-.227.812-.28 1.23l-1 .93.42 2.34 1.26.52c.188.374.416.726.68 1.05v1.16l2 1.36 1.07-.45a5.77 5.77 0 001.23.28l.92 1 2.23-.43zm-5-6.49a2.683 2.683 0 011.196-2.727 2.677 2.677 0 012.976.06A2.68 2.68 0 11318 57.68zm-22.39-.14l-.77-.65a20.064 20.064 0 016-5l.47.89a18.867 18.867 0 00-5.7 4.76zm7.98-5.69l-.39-.92a23.921 23.921 0 0111.74-1.88l-.1 1a22.681 22.681 0 00-11.25 1.8zm-1.89 6.92l-.82-.57a16.77 16.77 0 019.87-6.38l.19 1a15.719 15.719 0 00-9.24 5.95z" fill="#78BC27"/><path d="M235.34 155a.507.507 0 01-.36-.15l-2.09-2.16c-1.066-.1-2.12-.297-3.15-.59l-3.27 1.45a.483.483 0 01-.47 0l-5.48-3.63a.493.493 0 01-.22-.43v-3.56a17.173 17.173 0 01-1.76-2.68l-2.81-1.09a.49.49 0 01-.31-.36l-1.3-6.44a.485.485 0 01.14-.46l2.16-2.09c.102-1.065.296-2.118.58-3.15l-1.44-3.27a.514.514 0 010-.48l3.63-5.47a.498.498 0 01.43-.23l3.56.06a17.304 17.304 0 012.68-1.77l1.09-2.8a.488.488 0 01.36-.31l6.44-1.31a.517.517 0 01.46.14l2.09 2.16c1.069.101 2.127.299 3.16.59l3.26-1.44a.514.514 0 01.48 0l5.47 3.63a.506.506 0 01.23.42l-.06 3.57c.67.835 1.262 1.728 1.77 2.67l2.8 1.09a.5.5 0 01.31.37l1.31 6.44a.53.53 0 01-.14.46l-2.17 2.09a18.12 18.12 0 01-.58 3.15l1.44 3.27a.495.495 0 010 .47l-3.58 5.48a.509.509 0 01-.42.22l-3.57-.05a18.406 18.406 0 01-2.67 1.76l-1.09 2.81a.505.505 0 01-.37.31l-6.44 1.3-.1.01zm-5.63-3.93h.14c1.08.315 2.189.519 3.31.61.121.01.235.063.32.15l2 2.1 5.9-1.2 1.06-2.73a.511.511 0 01.24-.26c.997-.52 1.938-1.14 2.81-1.85a.398.398 0 01.33-.11l3.47.05 3.32-5-1.4-3.19a.485.485 0 010-.34 17.23 17.23 0 00.61-3.31.562.562 0 01.15-.32l2.1-2-1.19-5.9-2.73-1.06a.532.532 0 01-.27-.24 16.086 16.086 0 00-1.85-2.81.536.536 0 01-.11-.32v-3.48l-5-3.32-3.17 1.4a.58.58 0 01-.35 0 17.019 17.019 0 00-3.32-.62.5.5 0 01-.32-.15l-2-2.09-5.9 1.19-1.05 2.73a.488.488 0 01-.23.26 16.568 16.568 0 00-2.82 1.86.48.48 0 01-.32.11h-3.47l-3.33 5 1.4 3.18a.478.478 0 010 .42 17.375 17.375 0 00-.58 3.24.46.46 0 01-.15.31l-2.1 2 1.2 5.9 2.72 1.06c.121.047.22.135.28.25.513.996 1.13 1.934 1.84 2.8a.461.461 0 01.11.32v3.47l5 3.33 3.18-1.4a.555.555 0 01.17-.04zm4.91-3.23a13.317 13.317 0 01-13.294-13.94 13.318 13.318 0 012.204-6.74 13.338 13.338 0 0118.226-3.928 13.33 13.33 0 01-7.136 24.608zm-10.25-20.13a12.316 12.316 0 00.059 13.688 12.318 12.318 0 0012.668 5.185 12.319 12.319 0 008.911-16.832 12.32 12.32 0 00-4.558-5.511 12.267 12.267 0 00-9.264-1.828 12.263 12.263 0 00-7.816 5.298z" fill="#fff"/><path d="M425.91 177.02l-15.7-2.12 10.38-77.81L390.31 93l-73.45 67.63-3.86 28.93 63.29 8.54-3.16 23.66 30.28 4.09 3.16-23.66 15.7 2.12 3.64-27.29zm-79.42-10.7l38.76-35.33-5.32 39.84-33.44-4.51z" fill="#78BC27"/><path d="M394.13 224.79H394a.501.501 0 01-.4-.58L417 96.27a.512.512 0 01.58-.4.5.5 0 01.4.58l-23.35 127.93a.512.512 0 01-.5.41zm20.7-126.37a.82.82 0 11-1.638-.06.82.82 0 011.638.06zm-3.33 17.3a.819.819 0 11-.79-.85.83.83 0 01.79.85zM408.17 133a.819.819 0 11-1.637-.06.819.819 0 011.637.06zm-6.56 18a.819.819 0 11-1.637-.06.819.819 0 011.637.06zm-.11 16.62a.82.82 0 11-1.639-.06.82.82 0 011.639.06zm-3.33 17.3a.819.819 0 11-1.637-.06.819.819 0 011.637.06zm-3.33 17.3a.82.82 0 01-.85.79.797.797 0 01-.571-.255.823.823 0 01.631-1.385.83.83 0 01.79.85zm-3.34 17.3a.818.818 0 01-1.003.779.824.824 0 01-.626-.665.818.818 0 01.378-.832.823.823 0 01.461-.122.809.809 0 01.742.524.81.81 0 01.048.316z" fill="#333640"/><path d="M400.79 151.5a.488.488 0 01-.48-.39.504.504 0 01.38-.6l2.48-.53a.513.513 0 01.533.779.502.502 0 01-.323.221l-2.48.53-.11-.01zm8.29-9.21a85.068 85.068 0 00-3 9.36c-.75 3.53-.79 11.42-.79 11.42" fill="#333640"/><path d="M405.29 163.57a.504.504 0 01-.354-.146.504.504 0 01-.146-.354c0-.32.06-8 .81-11.53a84.603 84.603 0 013-9.43.5.5 0 11.93.36 84.82 84.82 0 00-3 9.28c-.73 3.45-.78 11.25-.79 11.33a.495.495 0 01-.45.49zm-182.84 86.32c1.39-22.4-1.16-63.13 40.95-57.74 45.13 5.78 32.22 58.56 32.22 58.56l-73.17-.82z" fill="#333640"/><path d="M251.51 236.43c10.151 0 18.38-8.229 18.38-18.38s-8.229-18.38-18.38-18.38-18.38 8.229-18.38 18.38 8.229 18.38 18.38 18.38z" fill="#fff"/><path d="M253.93 199.7c-8.71-1.49-18 4.93-18.93 11.43l34.51 3.17c-1.22-7.41-8.68-13.42-15.58-14.6z" fill="#333640"/><path d="M265.58 217.59c-.25 4.8-2.87 8.57-5.85 8.42-2.98-.15-5.2-4.17-5-9 .2-4.83 2.87-8.58 5.85-8.43 2.98.15 5.24 4.21 5 9.01z" fill="#333640"/><path d="M251.51 237.42a19.38 19.38 0 1119.38-19.37 19.388 19.388 0 01-19.38 19.37zm0-36.75a17.38 17.38 0 1017.38 17.38 17.401 17.401 0 00-17.38-17.38z" fill="#78BC27"/><path opacity=".3" d="M290.49 249.32h-.12a.496.496 0 01-.312-.221.488.488 0 01-.058-.379c0-.14 3.22-13.7-.09-27.41a.511.511 0 01.385-.615.515.515 0 01.615.385c3.37 14 .12 27.73.09 27.87a.488.488 0 01-.51.37zm-2.79-35.51a.515.515 0 01-.46-.3 35.076 35.076 0 00-4.74-7.65.503.503 0 01.439-.822.505.505 0 01.341.182 36.301 36.301 0 014.87 7.88.493.493 0 01-.24.66.526.526 0 01-.21.05z" fill="#fff"/><path d="M128.73 355h-.37a5.003 5.003 0 11.28-10h.09c2.89 0 9.84-3.51 24.38-26.43a4.998 4.998 0 017.51-1.09 206.414 206.414 0 0037.14 25.47 5.002 5.002 0 01-.716 9.195 5 5 0 01-3.804-.275 212.423 212.423 0 01-34.8-23.15C146.25 347 137.21 355 128.73 355z" fill="#333640"/><path d="M159.67 316.55h-.43a3.002 3.002 0 01-2.54-3.4c.71-5-.17-23.62-6.48-38.12a3.002 3.002 0 011.06-3.68c13.7-9.33 42.88-10.45 44.12-10.49a3.014 3.014 0 012.151.808 3.012 3.012 0 01.949 2.092 2.999 2.999 0 01-2.9 3.1c-.27 0-25.78 1-38.88 8.2 5.58 14.44 6.85 32.44 5.92 39a3.002 3.002 0 01-2.97 2.49z" fill="#333640"/><path d="M164.71 312.66c-2-4.7-11-4.17-16.27-.14-2.82 2.16-6.64 8.65-7 11a3.532 3.532 0 002.312 4.084 3.53 3.53 0 001.688.146c3.45-.29 8.18-5.3 8.18-5.3-3.15 3.08.92 5.26 7 .8 3.32-2.48 6.32-5.32 4.09-10.59z" fill="#78BC27"/><path d="M336.71 251.21h-.14a.482.482 0 01-.302-.237.48.48 0 01-.038-.383c1.33-4.64 2.78-7.47 4.69-9a5.184 5.184 0 01.16-3.26 6.396 6.396 0 012.36-3 2.565 2.565 0 01-.59-2.39 6.12 6.12 0 012.14-3.15 2.24 2.24 0 01-.57-1.51c0-3 5.51-7.52 11.76-8.38a.485.485 0 01.503.242.495.495 0 01.057.188.5.5 0 01-.42.56c-5.94.81-10.92 5.11-10.9 7.38-.004.336.126.66.36.9a12.284 12.284 0 019.28-1.86c3.07.59 4.32 1.24 4.18 2.17-.28 1.75-6.81 2.11-11.19 1.59a6.212 6.212 0 01-2.25-.64 5.383 5.383 0 00-2 2.73 1.538 1.538 0 00.49 1.63c1.86-.95 4.47-1.35 7.92-.59 4.53 1 4.7 1.55 4.81 1.88a.646.646 0 01-.17.66c-.95 1-7.9.54-11.39-.32a4.9 4.9 0 01-1.21-.45 5.451 5.451 0 00-2.26 2.71 4.22 4.22 0 00-.23 2.3c.178-.11.361-.21.55-.3 2.07-1 4.57-.81 7.66.51 2 .87 3 1.65 3.1 2.44a1.134 1.134 0 01-.57 1c-1.53 1-6.87.86-9.65-.62a3.994 3.994 0 01-1.54-1.49c-1.63 1.49-2.95 4.17-4.15 8.36a.507.507 0 01-.45.33zm5.42-9.33a3 3 0 001.22 1.21c2.26 1.21 6.7 1.48 8.36.81.34-.14.39-.25.39-.25s-.05-.57-2.5-1.61c-2.8-1.2-5-1.37-6.83-.52a4.565 4.565 0 00-.64.36zm3.34-6.57l.25.07c3.257.749 6.608.998 9.94.74a24 24 0 00-3.64-1 11.282 11.282 0 00-6.55.19zm1.26-5.62a6.93 6.93 0 001.43.32c5 .59 9.39-.11 10-.73-.17-.15-.84-.58-3.32-1.06a11.254 11.254 0 00-8.11 1.47zM206.53 353.3c.66-.22.44-.85-.3-.85h-13.54c-25.78-2.73-43.79.93-32.44 1.79 11.35.86-.8.68-9.09 3.82-8.29 3.14 61.65 3.92 68 0 5.84-3.62-21.77-1.84-12.63-4.76z" fill="#333640"/><path d="M303.47 357.29l-117.8-3.91-4.89-114.22 139.11 3.11-16.42 115.02z" fill="#78BC27"/><path d="M222.45 355.1a.51.51 0 01-.5-.46l-9.44-114.72a.507.507 0 01.118-.366.5.5 0 01.342-.174.512.512 0 01.54.46L223 354.56a.507.507 0 01-.46.54h-.09z" fill="#333640"/><path d="M303.47 357.29l31.66-4.83 9.97-106.2-25.21-3.99-16.42 115.02z" fill="#78BC27"/><path opacity=".2" d="M303.47 357.29l31.66-4.83 9.97-106.2-25.21-3.99-16.42 115.02z" fill="#333640"/><path d="M195.73 331.36l-2.9-67.86a12.26 12.26 0 013.494-9.11 12.277 12.277 0 019.036-3.68l88.06 2a12.259 12.259 0 019.082 4.332 12.276 12.276 0 012.788 9.668l-9.76 68.39A12.27 12.27 0 01283 345.6l-75.39-2.5a12.27 12.27 0 01-11.88-11.74z" fill="#333640"/><path d="M284 318.21a1.31 1.31 0 01-1-.43l-8.56-9.37-9.24 8.44a1.31 1.31 0 01-1.85-.08l-8.56-9.37-9.24 8.44a1.305 1.305 0 01-1.44.217 1.288 1.288 0 01-.41-.307l-8.57-9.37-9.23 8.44a1.301 1.301 0 01-1.86-.08l-8.56-9.37-9.23 8.44a1.313 1.313 0 11-1.77-1.94l10.2-9.32a1.322 1.322 0 011.86.08l8.56 9.37 9.23-8.44a1.33 1.33 0 011.86.08l8.56 9.37 9.24-8.44a1.305 1.305 0 011.44-.217c.156.074.295.179.41.307l8.56 9.37 9.24-8.44a1.308 1.308 0 01.942-.347 1.298 1.298 0 01.908.427L285 316a1.323 1.323 0 01.218 1.426 1.315 1.315 0 01-1.218.774v.01z" fill="#fff"/><path d="M125.75 359.71l-6.26-2.98-5.58-27.17 3.03-3.33 8.81 33.48z" fill="#78BC27"/><path d="M125.75 359.71l8.31-4.85-7.12-22.38-10-6.25 8.81 33.48z" fill="#78BC27"/><path opacity=".2" d="M125.75 359.71l8.31-4.85-7.12-22.38-10-6.25 8.81 33.48z" fill="#333640"/><path d="M262 364.65h-.69a5.002 5.002 0 01.27-10c7.7.25 24-4.48 33.32-13.52a5.005 5.005 0 012-1.2c15.79-4.74 21.66 4.83 21.9 5.24l-8.6 5.09c.03.064.067.124.11.18-.09-.13-2.33-3-9.45-1.24-11.69 10.67-29.63 15.45-38.86 15.45z" fill="#333640"/><path d="M261.39 371.3l-18.21-1.15-1.43-33.57 24.47.91-4.83 33.81z" fill="#78BC27"/><path d="M261.39 371.3l4.26-4.24 2.64-20.93-2.07-8.64-4.83 33.81z" fill="#78BC27"/><path opacity=".2" d="M261.39 371.3l4.26-4.24 2.64-20.93-2.07-8.64-4.83 33.81z" fill="#333640"/><path d="M366.91 358.58a2.924 2.924 0 01-1.81-.61c-10.4-7.9-24.45-21.92-29.84-35.45a2.713 2.713 0 01-.17-.62c-2.63-15.63-5.14-48.54-5.25-49.93a3.007 3.007 0 014.962-2.505 3.003 3.003 0 011.038 2.055c0 .33 2.57 33.56 5.13 49.07 5.38 13.15 20 26.66 27.78 32.61a2.995 2.995 0 011.015 3.341 2.998 2.998 0 01-2.835 2.039h-.02zm13.87 1.52c-2.32 0-4.95-1.05-7.82-3.12a3 3 0 01-1.206-1.958 3.002 3.002 0 012.489-3.443 3.002 3.002 0 012.237.531c2.48 1.8 3.83 2 4.3 2 .796 0 1.559.316 2.121.879a2.996 2.996 0 010 4.242 2.996 2.996 0 01-2.121.879v-.01z" fill="#333640"/><path d="M373.8 356.89c3.21-9.54 16.37-7.65 20.91-6.24a48.187 48.187 0 0111.07 4.81c2.45 1.6 2.49 4.28-.78 5.81-4 1.89-14.16.22-14.16.22 5.24 2.29 0 6-9.21 2.36-2.99-1.18-8.96-3.47-7.83-6.96z" fill="#78BC27"/><path d="M341.86 276.08c-1.19 8.11-7.9 14.08-13.36 13.28-5.46-.8-5.68-8-4.49-16.14 1.19-8.14 3.35-14 8.81-13.2 5.46.8 10.23 7.98 9.04 16.06zm-131.98-32.34a.82.82 0 100-1.64.82.82 0 000 1.64zm8.33 5.09a.823.823 0 01-.506.758.818.818 0 01-.894-.178.818.818 0 111.16-1.16.82.82 0 01.24.58zm.92 96.9a.823.823 0 01-.506.758.818.818 0 01-.894-.178.818.818 0 111.16-1.16.82.82 0 01.24.58zm7.51 5.9a.823.823 0 01-.506.758.818.818 0 01-.894-.178.818.818 0 111.16-1.16.82.82 0 01.24.58zm-144.13 9.84a9.664 9.664 0 01-7.33-4 .509.509 0 01.12-.7.497.497 0 01.56-.008.494.494 0 01.14.138c1.87 2.69 6 4.13 7.8 3.28.18-.076.34-.193.47-.34a6.042 6.042 0 01-3.52-4.48c-.23-1.27-.41-3 .63-3.22 1.44-.32 3.32 3.15 4 5.78.124.435.168.889.13 1.34a4.423 4.423 0 001.78.14 1.935 1.935 0 001.38-.74 5.87 5.87 0 01-2.31-4.19c-.38-2.74-.09-3.21.21-3.45a.68.68 0 01.69-.08c1.07.46 2.36 4.34 2.61 6.53.03.233.03.468 0 .7.431.166.888.254 1.35.26a4.367 4.367 0 002.41-.63 3.738 3.738 0 01-.4-.3c-1-.88-1.46-2.3-1.28-4.33.14-1.56.49-2.42 1.12-2.69a1.131 1.131 0 011.21.24 6.927 6.927 0 011.73 5.56 3 3 0 01-.51 1.15 18.512 18.512 0 006.65-.75.503.503 0 01.376.054.491.491 0 01.224.306.51.51 0 01-.36.61c-2.71.67-5.63 1.21-7.69.62a5.746 5.746 0 01-3.5 1.16 4.814 4.814 0 01-1.64-.31 2.798 2.798 0 01-2.12 1.27 5.322 5.322 0 01-2.24-.19 2.264 2.264 0 01-1 .89 4.146 4.146 0 01-1.69.38zm-.86-8.28a4.28 4.28 0 00.08 2 5.072 5.072 0 002.84 3.71 3.41 3.41 0 00-.12-.71c-.78-2.82-2.28-4.79-2.8-5zm5.57-.87c.007.69.064 1.378.17 2.06a5.2 5.2 0 001.52 3.22 15.721 15.721 0 00-1.69-5.28zm6.29-.87s-.38.19-.52 1.86c-.14 1.67.15 2.82.93 3.48.182.153.384.281.6.38a2.15 2.15 0 00.54-1 6.26 6.26 0 00-1.19-4.43c-.21-.25-.33-.29-.36-.29zm135.36 17.57l2.71-4.7-2.71-4.69h-2.9l1.64 4.69-1.64 4.7h2.9z" fill="#333640"/><path d="M226.16 366.78a2.447 2.447 0 01-2.405-3.418 2.447 2.447 0 012.405-1.472l-4.6-.93-1.23 3.72 2.06 3.14 3.77-1.04z" fill="#333640"/><path d="M226.56 359.63h-5.43l-2.71 4.7 2.71 4.7h5.43l2.71-4.7-2.71-4.7zm-2.71 7.15a2.45 2.45 0 11-.02-4.9 2.45 2.45 0 01.02 4.9zm194.04-7.47l-2.01-3.49 2.01-3.49h2.15l-1.21 3.49 1.21 3.49h-2.15z" fill="#78BC27"/><path d="M419.9 357.64a1.826 1.826 0 001.373-.481 1.822 1.822 0 000-2.668 1.825 1.825 0 00-1.373-.481l3.42-.69.91 2.77-1.52 2.33-2.81-.78z" fill="#78BC27"/><path d="M419.61 352.33h4l2 3.49-2 3.49h-4l-2-3.49 2-3.49zm2 5.31a1.82 1.82 0 10-1.277-.533 1.82 1.82 0 001.287.533h-.01zM343 364h4.52a2.148 2.148 0 002.13-2.14 2.139 2.139 0 00-2.13-2.14H343a2.14 2.14 0 00-2.14 2.14A2.152 2.152 0 00343 364z" fill="#333640"/><path d="M335.73 359.91a4.46 4.46 0 011.82-1.784 4.456 4.456 0 014.862.469 4.45 4.45 0 01-4.682 7.495 4.6 4.6 0 01-2-6.18z" fill="#78BC27"/><path d="M336.958 366.083l1.24.584 4.306-9.136-1.239-.584-4.307 9.136z" fill="#333640"/><path d="M111.093 44.92l13.934 17.905c.314.429.524.79.365 1.317-.239 1.443-1.33 3.109-3.355 3.53-.947.198-1.654.256-2.198.234l.621 5.354c.881.13 1.822.115 3.33-.2 3.402-.709 5.509-2.676 6.911-5.44 1.597-3.12 2.49-7.89 3.314-12.781l2.491-15.217-6.891 1.437-1.035 10.778c-.221 2.607-.29 4.644-.418 5.974l-.129.027c-1.014-1.631-1.976-3.228-3.183-5.134l-6.349-9.33-7.408 1.545zm28.051 2.468l4.39 21.063 6.547-1.365-3.349-16.066 6.461-1.347 3.349 16.067 6.59-1.374-4.39-21.063-19.598 4.085zm43.171 7.407c-.91.594-2.062 1.104-3.613 1.427-3.188.664-6.194-.821-7.002-4.698-.761-3.437.967-6.36 4.413-7.077 1.723-.36 2.949-.3 3.796-.117l.019-5.083c-1.486-.23-3.444-.136-5.167.223-7.84 1.634-11.011 7.553-9.727 13.713 1.383 6.633 6.595 9.862 13.401 8.443 2.498-.52 4.605-1.409 5.661-2.168l-1.781-4.663zm9.13-6.263l-3.12-19.71-6.849 1.428 5.058 19.306 4.911-1.024zm-.373 10.505c2.326-.484 3.484-2.478 3.017-4.718-.519-2.274-2.368-3.597-4.651-3.121s-3.535 2.445-3.06 4.728c.467 2.24 2.368 3.596 4.694 3.111z" fill="#21232E"/><path d="M210.364 272.714c-4.775-.082-7.933 3.487-8.017 8.335-.08 4.607 2.665 8.279 7.464 8.362 4.727.082 7.999-3.078 8.09-8.381.078-4.463-2.57-8.23-7.537-8.316zm-.146 2.902c2.52.044 3.868 2.564 3.818 5.467-.055 3.144-1.511 5.471-3.983 5.428-2.447-.042-3.896-2.3-3.842-5.467.055-3.144 1.535-5.471 4.007-5.428zm9.994 1.973l-.203 11.735 16.63.288.203-11.735-3.624-.062-.155 8.95-2.879-.05.155-8.95-3.624-.063-.155 8.951-2.879-.05.155-8.951-3.624-.063zm19.521.338l-.203 11.735 4.439.076c.848-1.809 1.771-3.833 2.543-5.452.499-1.096.8-1.859 1.279-3.147l.095.002c-.163 2.494-.272 3.26-.304 5.084l-.061 3.575 3.455.06.203-11.734-4.463-.078-2.367 5c-.499 1.096-.827 2.002-1.402 3.336l-.096-.025c.124-1.582.243-2.901.275-4.772l.062-3.6-3.455-.06zm24.78-5.115c-.819.201-2.406.342-3.512.443-2.14.203-3.759.871-4.932 2.075-1.756 1.602-2.591 4.036-2.643 7.083-.078 4.463 1.905 7.786 6.009 7.857 3.479.061 6.063-2.247 6.129-6.063.061-3.503-1.938-5.866-5.106-5.921-1.728-.03-3.159.858-3.902 2.141l-.12-.002c.113-.934.614-2.15 1.323-2.882.807-.898 2.039-1.333 3.722-1.495.865-.057 2.091-.18 2.791-.36l.241-2.876zm-2.695 11.475c-.028 1.655-.658 3.397-2.386 3.367-1.728-.03-2.341-2.081-2.314-3.617.018-1.008.246-1.724.664-2.317.37-.545.953-.943 1.721-.93 1.799.031 2.343 1.913 2.315 3.497zm6.107-5.872l-.204 11.735 3.624.062.08-4.655.36.006c1.2.021 1.908.753 2.412 2.106.435 1.256.708 2.101 1.011 2.61l3.816.066c-.557-1.113-.989-2.489-1.356-3.48-.667-1.715-1.509-3.002-2.896-3.29l4.407-4.965-4.271-.074-3.033 4.629-.408-.008.081-4.679-3.623-.063zm22.714 12.131c-.109-.65-.138-1.73-.119-2.858l.071-4.079c.048-2.76-1.16-5.085-5.072-5.153-2.135-.037-3.753.511-4.577.953l.631 2.363c.777-.466 2.055-.852 3.255-.832 1.8.032 2.121.925 2.11 1.549l-.003.168c-4.151-.096-6.912 1.321-6.965 4.368-.032 1.872 1.354 3.624 3.729 3.665 1.392.024 2.601-.459 3.385-1.381l.072.001.195 1.18 3.288.056zm-3.646-4.335a2.588 2.588 0 01-.082.622c-.253.74-1.007 1.327-1.919 1.311-.816-.014-1.432-.481-1.416-1.416.024-1.416 1.52-1.846 3.439-1.789l-.022 1.272z" fill="#fff"/></g><defs><clipPath id="clip0"><path fill="#fff" d="M0 0h500v372.61H0z"/></clipPath></defs></svg>