<svg width="166" height="40" fill="none" xmlns="http://www.w3.org/2000/svg"><path d="M54 0h-9l-7.385 32.82H12.058L38.5 7.18h-.115L40 0H9.5L7.885 7.18H26.5L.5 32.82l.114.012L0 40h45l2.73-12.137 7.422-5.862L62 40h10.5l-9.453-24.237L83 0H71L50.208 16.854 54 0z" fill="#fff"/><path d="M116.574 0h-33.36L74 7.18h19.544L84.11 40h9.098l9.435-32.82h12.3L116.574 0zm-7.994 18.462h18.196l-1.22 5.128H107.36l1.22-5.128zm-4.253 20.512l2.8-12.307H119.7l-1.22 5.128h-7.465l-.467 2.051h12.185l-1.22 5.128h-17.186zm28.619-20.512c-2.275 0-4.27 1.542-4.873 3.768l-.369 1.36h11.682c.669 0 1.154.648.973 1.303l-.491 1.774h5.198l.818-3.015c.708-2.612-1.229-5.19-3.899-5.19h-9.039zm10.73 13.333h-5.228l-.36 1.303a1.015 1.015 0 01-.974.748h-6.18c-.67 0-1.155-.649-.974-1.303l1.627-5.876h-4.717l-1.929 7.117c-.708 2.612 1.229 5.19 3.899 5.19h9.809c1.82 0 3.416-1.234 3.899-3.014l1.128-4.165zm4.366-9.565c.603-2.226 2.598-3.768 4.874-3.768h9.038c2.67 0 4.607 2.578 3.899 5.19l-3.336 12.308c-.483 1.78-2.079 3.014-3.899 3.014h-9.809c-2.67 0-4.607-2.578-3.899-5.19l1.93-7.117h4.716l-1.626 5.876c-.181.654.303 1.303.973 1.303h6.181c.453 0 .85-.306.973-.748l2.271-8.205c.181-.655-.303-1.303-.973-1.303h-11.681l.368-1.36z" fill="#78BC27"/></svg>