<svg width="170" height="72" fill="none" xmlns="http://www.w3.org/2000/svg"><path fill="#333640" d="M0 0h170v72H0z"/><rect y="11" width="170" height="48" rx="2" fill="#333640"/><path fill-rule="evenodd" clip-rule="evenodd" d="M142 35a8 8 0 0012.906 6.32l3.387 3.387a1 1 0 101.414-1.414l-3.387-3.387A8 8 0 10142 35zm2 0a6 6 0 1012 0 6 6 0 00-12 0z" fill="#fff"/><path d="M17.944 41c.18-.324.27-.576.396-.882.432-1.152.774-2.934 1.602-3.78.432-.432.99-.594 1.746-.594h1.152V41h1.566V29.03c-.792-.162-1.872-.252-2.898-.252-1.53 0-2.718.324-3.474.936-.684.558-1.116 1.404-1.116 2.466 0 1.656 1.188 2.736 2.682 2.988v.054c-.36.108-.72.324-1.008.612-.99.99-1.314 2.682-1.836 4.068A7.748 7.748 0 0116.27 41h1.674zm4.896-6.462c-.306.018-.81.018-1.332.018-1.71 0-3.006-.846-3.006-2.304 0-1.674 1.314-2.268 2.862-2.268.702 0 1.206.09 1.476.144v4.41zm8.026-2.25V41h1.818c.936-1.53 1.89-3.204 2.718-4.554.504-.882.882-1.584 1.44-2.7h.054c-.072 1.404-.108 2.142-.108 3.564V41H38.3v-8.712h-1.854l-2.718 4.5c-.576 1.008-.882 1.62-1.404 2.682l-.054-.018c.072-1.242.09-2.106.09-3.492v-3.672h-1.494zm9.967 0V41h10.242l.072 2.772h1.224l.09-3.942-.882-.018v-7.524h-1.566v7.47H46.97v-7.47h-1.548v7.47H42.38v-7.47h-1.548zm12.313 0l3.222 8.028c.072.198.108.324.108.414 0 .09-.054.216-.126.378-.36.81-.9 1.422-1.332 1.764a4.19 4.19 0 01-1.386.774l.396 1.332c.396-.072 1.17-.342 1.944-1.026 1.08-.936 1.854-2.466 2.988-5.454l2.376-6.21h-1.674L57.934 37.4c-.216.63-.396 1.296-.558 1.818h-.036a32.82 32.82 0 00-.558-1.782l-1.908-5.148h-1.728zm9.413 8.91c.666 0 1.08-.486 1.08-1.134 0-.666-.433-1.134-1.063-1.134-.63 0-1.08.468-1.08 1.134 0 .648.432 1.134 1.063 1.134zm3.726 0c.666 0 1.08-.486 1.08-1.134 0-.666-.432-1.134-1.062-1.134-.63 0-1.08.468-1.08 1.134 0 .648.432 1.134 1.062 1.134zm3.727 0c.666 0 1.08-.486 1.08-1.134 0-.666-.432-1.134-1.062-1.134-.63 0-1.08.468-1.08 1.134 0 .648.432 1.134 1.062 1.134z" fill="#9EA1A7"/></svg>