<svg width="48" height="48" viewBox="0 0 48 48" fill="none" xmlns="http://www.w3.org/2000/svg">
<path fill-rule="evenodd" clip-rule="evenodd" d="M25 16C25 15.4477 24.5523 15 24 15C23.4477 15 23 15.4477 23 16V17L19.0233 17C19.0077 16.9996 18.9922 16.9996 18.9766 17H18.5C18.4135 17 18.3297 17.011 18.2496 17.0316C17.7695 16.9071 17.2604 17.156 17.0713 17.6286L15.0751 22.619C15.0637 22.6467 15.0535 22.6751 15.0445 22.704C15.0109 22.8122 14.9966 22.9225 15 23.0308V23.5C15 25.433 16.567 27 18.5 27C20.433 27 22 25.433 22 23.5V23.0308C22.0034 22.9225 21.9891 22.8122 21.9555 22.7039C21.9465 22.675 21.9363 22.6467 21.9249 22.619L20.4773 19L23 19V30H21.5C20.9477 30 20.5 30.4477 20.5 31C20.5 31.5523 20.9477 32 21.5 32H27C27.5523 32 28 31.5523 28 31C28 30.4477 27.5523 30 27 30H25V19L27.5227 19L26.0752 22.619C26.0637 22.6468 26.0534 22.6752 26.0445 22.7043C26.0108 22.8124 25.9966 22.9226 26 23.0308V23.5C26 25.433 27.567 27 29.5 27C31.433 27 33 25.433 33 23.5V23.0308C33.0034 22.9224 32.9891 22.812 32.9554 22.7037C32.9465 22.6749 32.9363 22.6467 32.9249 22.619L30.9327 17.6386C30.9242 17.6166 30.9149 17.595 30.9049 17.5737C30.8158 17.3842 30.6735 17.2346 30.5033 17.1357C30.3451 17.0438 30.1628 16.9956 29.9766 17H29.0234C29.0078 16.9996 28.9923 16.9996 28.9767 17L25 17V16ZM18.5 19.442L19.5232 22H17.4768L18.5 19.442ZM17.0854 24C17.2913 24.5826 17.8469 25 18.5 25C19.1531 25 19.7087 24.5826 19.9146 24H17.0854ZM29.5 19.442L28.4768 22H30.5232L29.5 19.442ZM28.0854 24C28.2913 24.5826 28.8469 25 29.5 25C30.1531 25 30.7087 24.5826 30.9146 24H28.0854Z" fill="white"/>
<circle cx="36" cy="12" r="7" fill="#78BC27"/>
<path d="M38.196 8.2H34.464L33.96 11.944C34.248 11.908 34.596 11.86 35.04 11.86C36.6 11.86 37.272 12.58 37.284 13.588C37.284 14.632 36.432 15.28 35.436 15.28C34.728 15.28 34.092 15.04 33.768 14.848L33.504 15.652C33.876 15.892 34.596 16.132 35.448 16.132C37.14 16.132 38.352 14.992 38.352 13.468C38.352 12.484 37.848 11.812 37.236 11.464C36.756 11.176 36.156 11.044 35.556 11.044C35.268 11.044 35.1 11.068 34.92 11.092L35.22 9.088H38.196V8.2Z" fill="white"/>
</svg>
