<svg width="500" height="373" viewBox="0 0 500 373" fill="none" xmlns="http://www.w3.org/2000/svg">
<g clip-path="url(#clip0)">
<path d="M500 327.45H0V327.7H500V327.45Z" fill="#F3F4F2"/>
<path d="M449.9 343.54H428.22V343.79H449.9V343.54Z" fill="#F3F4F2"/>
<path d="M344.67 338.35H310.56V338.6H344.67V338.35Z" fill="#F3F4F2"/>
<path d="M441.12 334.26H396.59V334.51H441.12V334.26Z" fill="#F3F4F2"/>
<path d="M173.02 339.3H161.88V339.55H173.02V339.3Z" fill="#F3F4F2"/>
<path d="M152.97 339.3H114.58V339.55H152.97V339.3Z" fill="#F3F4F2"/>
<path d="M94.01 335.08H66.31V335.33H94.01V335.08Z" fill="#F3F4F2"/>
<path d="M216.07 145.93L216.52 132.78L208.46 130.15C208.112 125.714 207.389 121.315 206.3 117L213.14 112L208.5 99.5702L200.04 100.25C198.034 96.2744 195.692 92.4772 193.04 88.9002L197.42 81.5902L188.42 71.9802L180.86 75.8502C177.458 72.9443 173.826 70.319 170 68.0002L171.22 59.6102L159.22 54.1602L153.72 60.6102C149.477 59.2529 145.129 58.2495 140.72 57.6102L138.72 49.3802L125.54 48.9302L122.86 57.0002C118.411 57.3499 113.999 58.0691 109.67 59.1502L104.59 52.3402L92.25 56.9102L92.93 65.3702C88.9561 67.4099 85.1595 69.7782 81.58 72.4502L74.3 68.0702L64.65 77.0702L68.52 84.6602C65.6156 88.048 63.0061 91.6779 60.72 95.5102L52.33 94.2502L46.85 106.25L53.33 111.75C51.962 115.99 50.9583 120.339 50.33 124.75L42 126.81L41.57 140L49.67 142.64C50.0051 147.091 50.7244 151.504 51.82 155.83L44.98 160.83L49.63 173.18L58.09 172.49C60.0884 176.47 62.4306 180.268 65.09 183.84L60.7 191.16L69.7 200.77L77.26 196.89C80.6504 199.799 84.2762 202.421 88.1 204.73L86.84 213.12L98.84 218.57L104.37 212.13C108.616 213.478 112.963 214.481 117.37 215.13L119.37 223.35L132.55 223.8L135.15 215.74C139.602 215.383 144.017 214.661 148.35 213.58L153.35 220.39L165.69 215.78L165.05 207.32C169.019 205.271 172.814 202.903 176.4 200.24L183.67 204.63L193.32 195.63L189.45 188.04C192.358 184.658 194.967 181.032 197.25 177.2L205.64 178.46L211.12 166.46L204.64 160.96C206.028 156.723 207.049 152.373 207.69 147.96L216.07 145.93ZM127.28 188.5C116.968 188.152 106.991 184.753 98.6108 178.733C90.2307 172.714 83.8242 164.344 80.2016 154.683C76.579 145.022 75.9031 134.504 78.2594 124.458C80.6157 114.413 85.8983 105.292 93.439 98.2496C100.98 91.207 110.44 86.5591 120.622 84.8938C130.805 83.2285 141.253 84.6205 150.644 88.8939C160.036 93.1673 167.949 100.13 173.382 108.901C178.816 117.673 181.526 127.858 181.17 138.17C180.695 151.99 174.752 165.055 164.646 174.493C154.54 183.931 141.1 188.97 127.28 188.5Z" fill="#F3F4F2"/>
<path d="M441 102.47L444.31 99.38L443 96.77C443.985 95.5905 444.869 94.3293 445.64 93L448.54 93.44L450.41 89.3L448.19 87.4C448.668 85.9396 449.019 84.4408 449.24 82.92L452.09 82.2L452.23 77.66L449.45 76.76C449.328 75.2257 449.08 73.7039 448.71 72.21L451.06 70.46L449.46 66.21L446.55 66.44C445.848 65.0693 445.035 63.7583 444.12 62.52L445.63 60.02L442.52 56.69L439.92 58.03C438.751 57.0266 437.5 56.1234 436.18 55.33L436.6 52.44L432.47 50.55L430.57 52.78C429.104 52.3234 427.602 51.9889 426.08 51.78L425.37 48.93L420.83 48.77L419.92 51.57C418.388 51.6821 416.869 51.9297 415.38 52.31L413.64 49.95L409.38 51.54L409.62 54.46C408.245 55.1549 406.934 55.968 405.7 56.89L403.18 55.39L399.86 58.48L401.2 61.1C400.191 62.2642 399.287 63.5158 398.5 64.84L395.61 64.4L393.73 68.55L396 70.42C395.539 71.8853 395.204 73.3875 395 74.91L392.14 75.62L392 80.16L394.79 81.06C394.905 82.5979 395.149 84.1233 395.52 85.62L393.16 87.35L394.76 91.61L397.68 91.39C398.347 92.7538 399.123 94.0614 400 95.3L398.49 97.81L401.6 101.13L404.2 99.8C405.371 100.797 406.622 101.697 407.94 102.49L407.51 105.38L411.65 107.27L413.55 105.05C415.018 105.502 416.519 105.836 418.04 106.05L418.75 108.89L423.29 109.05L424.2 106.26C425.732 106.144 427.251 105.896 428.74 105.52L430.48 107.87L434.74 106.28L434.51 103.36C435.881 102.664 437.189 101.851 438.42 100.93L441 102.47ZM417.34 83.34C416.466 82.4053 415.888 81.2322 415.681 79.9692C415.473 78.7062 415.645 77.41 416.174 76.2447C416.704 75.0793 417.567 74.0971 418.654 73.4224C419.742 72.7476 421.005 72.4107 422.284 72.454C423.564 72.4974 424.801 72.9192 425.841 73.6661C426.88 74.413 427.675 75.4514 428.124 76.65C428.573 77.8485 428.656 79.1533 428.364 80.3994C428.071 81.6454 427.416 82.7767 426.48 83.65C425.86 84.2306 425.131 84.6832 424.336 84.9819C423.541 85.2806 422.695 85.4195 421.846 85.3907C420.997 85.3619 420.162 85.166 419.389 84.8141C418.615 84.4622 417.919 83.9613 417.34 83.34Z" fill="#F3F4F2"/>
<path d="M320 237.38L309.66 230.24C308.648 226.516 307.254 222.907 305.5 219.47L308.15 209.07L293.15 193L282.59 194.94C279.277 192.942 275.769 191.287 272.12 190L265.7 179.19L243.7 178.43L236.56 188.77C232.829 189.812 229.214 191.229 225.77 193L215.37 190.35L199.31 205.35L201.24 215.89C199.253 219.208 197.618 222.723 196.36 226.38L185.55 232.8L184.8 254.8L195.15 261.95C196.148 265.693 197.54 269.32 199.3 272.77L196.66 283.14L211.66 299.2L222.15 297.28C225.486 299.268 229.018 300.907 232.69 302.17L239.1 312.96L261.1 313.71L268.23 303.38C271.982 302.367 275.621 300.973 279.09 299.22L289.43 301.86L305.5 286.86L303.57 276.32C305.559 273 307.195 269.481 308.45 265.82L319.26 259.4L320 237.38ZM251.55 270.77C246.666 270.603 241.94 268.991 237.972 266.139C234.004 263.286 230.97 259.321 229.255 254.745C227.541 250.168 227.221 245.186 228.338 240.428C229.455 235.67 231.958 231.35 235.53 228.015C239.102 224.679 243.582 222.478 248.406 221.689C253.229 220.9 258.177 221.559 262.626 223.582C267.075 225.606 270.823 228.903 273.398 233.057C275.972 237.212 277.257 242.036 277.09 246.92C276.863 253.471 274.044 259.663 269.253 264.135C264.462 268.608 258.09 270.994 251.54 270.77H251.55Z" fill="#F3F4F2"/>
<path d="M343.55 175H343.48L326.16 174.41C325.81 174.4 325.468 174.303 325.164 174.129C324.861 173.954 324.605 173.707 324.42 173.41L319.75 165.55C317.233 164.633 314.798 163.505 312.47 162.18L305 163.52C304.652 163.584 304.293 163.558 303.958 163.447C303.622 163.335 303.32 163.14 303.08 162.88L291.25 150.22C291.003 149.957 290.827 149.635 290.739 149.285C290.652 148.935 290.655 148.568 290.75 148.22L292.64 140.81C291.471 138.408 290.514 135.909 289.78 133.34L282.25 128.14C281.959 127.938 281.724 127.667 281.565 127.351C281.406 127.035 281.329 126.684 281.34 126.33L281.93 109.01C281.94 108.66 282.037 108.318 282.211 108.014C282.386 107.711 282.633 107.455 282.93 107.27L290.8 102.59C291.71 100.083 292.837 97.6602 294.17 95.35L292.79 87.81C292.726 87.462 292.752 87.1035 292.863 86.7679C292.975 86.4322 293.17 86.1302 293.43 85.89L306.08 74.1C306.343 73.8526 306.665 73.6767 307.015 73.5892C307.365 73.5016 307.732 73.5054 308.08 73.6L315.52 75.5C317.917 74.3295 320.409 73.366 322.97 72.62L328.17 65.1C328.363 64.8009 328.633 64.5589 328.951 64.3989C329.269 64.2389 329.625 64.1668 329.98 64.19L347.29 64.78C347.641 64.7919 347.984 64.8892 348.289 65.0634C348.594 65.2377 348.852 65.4836 349.04 65.78L353.71 73.65C356.207 74.5683 358.622 75.6956 360.93 77.02L368.49 75.64C368.838 75.5754 369.197 75.6002 369.533 75.7121C369.868 75.8241 370.17 76.0195 370.41 76.28L382.2 89C382.447 89.2628 382.623 89.5847 382.711 89.9348C382.798 90.285 382.795 90.6517 382.7 91L380.8 98.44C381.971 100.836 382.935 103.329 383.68 105.89L391.2 111C391.492 111.201 391.729 111.472 391.888 111.788C392.047 112.105 392.123 112.456 392.11 112.81L391.52 130.13C391.508 130.481 391.411 130.824 391.237 131.129C391.062 131.434 390.816 131.692 390.52 131.88L382.65 136.55C381.736 139.056 380.609 141.478 379.28 143.79L380.66 151.33C380.724 151.678 380.698 152.037 380.587 152.372C380.475 152.708 380.28 153.01 380.02 153.25L367.36 165.07C367.1 165.322 366.779 165.501 366.428 165.591C366.077 165.68 365.709 165.676 365.36 165.58L358 163.7C355.589 164.866 353.083 165.826 350.51 166.57L345.32 174.09C345.121 174.374 344.856 174.606 344.548 174.764C344.239 174.923 343.897 175.004 343.55 175ZM327.46 170.23L342.46 170.74L347.46 163.54C347.743 163.126 348.165 162.828 348.65 162.7C351.465 161.938 354.196 160.893 356.8 159.58C357.253 159.356 357.771 159.303 358.26 159.43L365.26 161.22L376.26 150.97L375 143.79C374.903 143.285 374.995 142.761 375.26 142.32C376.745 139.84 377.969 137.213 378.91 134.48C379.072 133.989 379.406 133.574 379.85 133.31L387.38 128.84L387.89 113.84L380.69 108.84C380.313 108.579 380.029 108.204 379.88 107.77C379.88 107.72 379.88 107.66 379.88 107.6C379.116 104.818 378.071 102.12 376.76 99.55C376.529 99.0925 376.472 98.5664 376.6 98.07L378.4 90.99L368.07 80L360.88 81.32C360.377 81.4127 359.857 81.3166 359.42 81.05C356.937 79.569 354.31 78.3428 351.58 77.39C351.423 77.3364 351.272 77.266 351.13 77.18C350.839 77.0035 350.598 76.7557 350.43 76.46L346 69L331 68.49L326 75.69C325.703 76.1158 325.263 76.421 324.76 76.55C321.975 77.3111 319.274 78.3531 316.7 79.66C316.246 79.8916 315.723 79.9486 315.23 79.82L308.12 78L297.12 88.25L298.44 95.42C298.518 95.8723 298.452 96.3378 298.25 96.75L298.15 96.92C296.665 99.4032 295.441 102.034 294.5 104.77C294.332 105.241 294.007 105.64 293.58 105.9L286.05 110.37L285.54 125.37L292.75 130.37C293.161 130.651 293.459 131.07 293.59 131.55C294.34 134.358 295.382 137.08 296.7 139.67C296.771 139.814 296.828 139.965 296.87 140.12C296.944 140.449 296.944 140.791 296.87 141.12L295.07 148.17L305.32 159.17L312.46 157.86C312.959 157.769 313.474 157.861 313.91 158.12C316.41 159.602 319.054 160.829 321.8 161.78C322.292 161.939 322.709 162.273 322.97 162.72L327.46 170.23ZM336.73 151.26H335.62C327.307 151.114 319.388 147.69 313.588 141.734C307.787 135.778 304.573 127.771 304.646 119.457C304.719 111.144 308.073 103.195 313.978 97.342C319.883 91.4889 327.861 88.2049 336.175 88.2049C344.489 88.2049 352.467 91.4889 358.372 97.342C364.277 103.195 367.631 111.144 367.704 119.457C367.777 127.771 364.563 135.778 358.762 141.734C352.962 147.69 345.043 151.114 336.73 151.26ZM336.73 92.17C329.542 92.2953 322.695 95.2546 317.679 100.404C312.663 105.553 309.883 112.475 309.946 119.663C310.009 126.852 312.908 133.724 318.013 138.785C323.119 143.846 330.016 146.686 337.205 146.686C344.394 146.686 351.291 143.846 356.397 138.785C361.502 133.724 364.401 126.852 364.464 119.663C364.527 112.475 361.747 105.553 356.731 100.404C351.715 95.2546 344.868 92.2953 337.68 92.17H336.73Z" fill="#F3F4F2"/>
<path d="M383.44 50.3702L376.26 48.4402L374.34 41.2702L377.15 38.4602L380.11 44.6002L386.25 47.5602L383.44 50.3702Z" fill="#D3D4D7"/>
<path d="M383.88 45.5702C384.475 44.9362 384.799 44.0958 384.786 43.2267C384.772 42.3576 384.422 41.5278 383.808 40.9125C383.194 40.2972 382.365 39.9447 381.495 39.9293C380.626 39.914 379.785 40.237 379.15 40.8302L382.72 35.4802L387.5 37.9002L388.55 42.9002L383.88 45.5702Z" fill="#D3D4D7"/>
<path d="M376.58 39.0002L381.84 33.7402L389 35.7002L390.93 42.8702L385.67 48.1302L378.5 46.2002L376.58 39.0002ZM386.13 43.3002C386.598 42.8316 386.917 42.2347 387.046 41.5849C387.175 40.9352 387.108 40.2618 386.855 39.6498C386.601 39.0379 386.172 38.5149 385.621 38.147C385.07 37.779 384.422 37.5826 383.76 37.5826C383.098 37.5826 382.45 37.779 381.899 38.147C381.348 38.5149 380.919 39.0379 380.665 39.6498C380.412 40.2618 380.345 40.9352 380.474 41.5849C380.603 42.2347 380.922 42.8316 381.39 43.3002C382.018 43.926 382.867 44.2798 383.754 44.2854C384.641 44.291 385.494 43.948 386.13 43.3302V43.3002Z" fill="#E5E6E7"/>
<path d="M90.22 241.75L94.07 240.72L95.1 236.87L93.6 235.37L92.01 238.66L88.71 240.25L90.22 241.75Z" fill="#D3D4D7"/>
<path d="M90 239.18C89.8146 239.018 89.6645 238.819 89.559 238.596C89.4535 238.374 89.3949 238.132 89.3867 237.885C89.3786 237.639 89.4211 237.394 89.5116 237.165C89.6021 236.935 89.7387 236.727 89.9129 236.553C90.0872 236.379 90.2954 236.242 90.5245 236.152C90.7537 236.061 90.9991 236.019 91.2454 236.027C91.4916 236.035 91.7336 236.094 91.9563 236.199C92.179 236.305 92.3777 236.455 92.54 236.64L90.63 233.77L88 235.06L87.44 237.76L90 239.18Z" fill="#D3D4D7"/>
<path d="M93.9 235.67L91.08 232.85L87.23 233.85L86.23 237.7L89 240.55L92.85 239.55L93.9 235.67ZM88.78 238C88.5275 237.749 88.3553 237.428 88.2852 237.079C88.2151 236.729 88.2503 236.367 88.3863 236.038C88.5223 235.708 88.753 235.427 89.0492 235.228C89.3453 235.03 89.6937 234.925 90.05 234.925C90.4064 234.925 90.7547 235.03 91.0509 235.228C91.347 235.427 91.5777 235.708 91.7137 236.038C91.8498 236.367 91.8849 236.729 91.8148 237.079C91.7447 237.428 91.5725 237.749 91.32 238C90.9814 238.334 90.5252 238.52 90.05 238.52C89.5748 238.52 89.1186 238.334 88.78 238Z" fill="#E5E6E7"/>
<path d="M76.36 30.71L79.56 33.9C79.7569 34.0972 79.9907 34.2536 80.2481 34.3603C80.5055 34.467 80.7814 34.5219 81.06 34.5219C81.3386 34.5219 81.6145 34.467 81.8719 34.3603C82.1293 34.2536 82.3631 34.0972 82.56 33.9C82.9533 33.4998 83.1737 32.9612 83.1737 32.4C83.1737 31.8389 82.9533 31.3002 82.56 30.9L79.37 27.7C78.9686 27.3091 78.4304 27.0903 77.87 27.0903C77.3097 27.0903 76.7714 27.3091 76.37 27.7C75.9747 28.1006 75.7523 28.6402 75.7504 29.203C75.7485 29.7658 75.9674 30.3068 76.36 30.71Z" fill="#E5E6E7"/>
<path d="M74.11 22.7501C74.6737 22.5233 75.2768 22.4105 75.8844 22.4181C76.492 22.4257 77.092 22.5536 77.6499 22.7944C78.2078 23.0352 78.7124 23.3842 79.1346 23.8211C79.5569 24.2581 79.8884 24.7743 80.11 25.3401C80.4606 26.5029 80.3515 27.756 79.8052 28.8407C79.2589 29.9254 78.317 30.759 77.174 31.1695C76.0309 31.58 74.7739 31.5361 73.6623 31.0468C72.5507 30.5576 71.6693 29.6603 71.2 28.5401C70.823 27.3863 70.9173 26.1303 71.4624 25.0457C72.0075 23.9612 72.9592 23.136 74.11 22.7501Z" fill="#D3D4D7"/>
<path d="M70.6255 28.0022L71.0887 29.2915L80.5939 25.8769L80.1308 24.5876L70.6255 28.0022Z" fill="#E5E6E7"/>
<path d="M250 372.61C357.082 372.61 443.89 367.542 443.89 361.29C443.89 355.038 357.082 349.97 250 349.97C142.918 349.97 56.11 355.038 56.11 361.29C56.11 367.542 142.918 372.61 250 372.61Z" fill="#F3F4F2"/>
<path d="M128.68 116.63C128.621 116.644 128.559 116.644 128.5 116.63C124 114.89 121.31 113.19 119.91 111.14C118.814 111.348 117.68 111.193 116.68 110.7C115.508 110.127 114.536 109.214 113.89 108.08C113.55 108.341 113.151 108.511 112.728 108.576C112.304 108.641 111.872 108.597 111.47 108.45C110.238 107.989 109.186 107.144 108.47 106.04C108.018 106.364 107.465 106.517 106.91 106.47C103.91 106.23 99.91 100.31 99.62 94.0002C99.6172 93.8683 99.6656 93.7404 99.7551 93.6434C99.8446 93.5464 99.9683 93.4879 100.1 93.4802C100.166 93.4775 100.231 93.4878 100.293 93.5105C100.355 93.5332 100.411 93.5678 100.46 93.6124C100.508 93.657 100.547 93.7106 100.574 93.7703C100.602 93.83 100.617 93.8945 100.62 93.9602C100.9 99.9602 104.73 105.29 107 105.47C107.166 105.487 107.333 105.471 107.493 105.423C107.653 105.375 107.801 105.296 107.93 105.19C107.148 103.766 106.656 102.201 106.485 100.586C106.313 98.9701 106.464 97.3366 106.93 95.7802C107.79 92.7802 108.55 91.6002 109.47 91.7802C111.19 92.2102 110.96 98.7802 110.05 103.07C109.912 103.844 109.627 104.584 109.21 105.25C109.803 106.236 110.692 107.009 111.75 107.46C112.033 107.568 112.34 107.592 112.636 107.53C112.932 107.468 113.204 107.322 113.42 107.11C112.64 105.18 112.42 102.54 113.54 99.1702C114.94 94.7402 115.54 94.6202 115.85 94.5502C115.967 94.5257 116.088 94.5332 116.2 94.5719C116.313 94.6106 116.413 94.6792 116.49 94.7702C117.42 95.7702 116.31 102.69 115.15 106.1C115.016 106.507 114.828 106.894 114.59 107.25C115.12 108.336 115.996 109.215 117.08 109.75C117.787 110.097 118.574 110.249 119.36 110.19C119.27 110 119.19 109.8 119.11 109.61C118.32 107.46 118.71 104.98 120.3 102.03C121.35 100.03 122.21 99.1602 123.01 99.1602C123.222 99.163 123.429 99.2267 123.607 99.3437C123.784 99.4607 123.924 99.626 124.01 99.8202C124.88 101.43 124.25 106.74 122.53 109.37C122.134 109.981 121.572 110.467 120.91 110.77C122.25 112.53 124.8 114.09 128.91 115.66C128.976 115.672 129.038 115.697 129.094 115.733C129.151 115.769 129.199 115.815 129.237 115.87C129.275 115.925 129.302 115.987 129.316 116.052C129.331 116.117 129.332 116.185 129.32 116.25C129.308 116.316 129.284 116.379 129.247 116.435C129.211 116.491 129.165 116.539 129.11 116.577C129.055 116.615 128.993 116.642 128.928 116.657C128.863 116.671 128.796 116.672 128.73 116.66L128.68 116.63ZM123 100.16C123 100.16 122.43 100.16 121.17 102.51C119.72 105.19 119.35 107.4 120.04 109.26C120.126 109.49 120.226 109.714 120.34 109.93C120.88 109.703 121.339 109.32 121.66 108.83C123.06 106.69 123.73 102.29 123.21 100.57C123.14 100.22 123 100.16 123 100.16ZM115.85 96.0002C115.309 97.1387 114.861 98.3192 114.51 99.5302C113.743 101.625 113.611 103.9 114.13 106.07L114.22 105.82C115.259 102.649 115.809 99.3373 115.85 96.0002ZM109.27 92.8502C109.1 93.0002 108.61 93.6302 107.92 96.0702C107.104 98.8085 107.361 101.755 108.64 104.31C108.845 103.863 108.996 103.393 109.09 102.91C110.13 98.0002 109.83 93.5102 109.27 92.8002V92.8502Z" fill="#333640"/>
<path d="M166.7 169C165.102 169.019 163.528 168.611 162.14 167.82C162.026 167.751 161.943 167.641 161.909 167.512C161.876 167.383 161.894 167.246 161.96 167.13C161.992 167.073 162.035 167.023 162.087 166.983C162.139 166.942 162.199 166.913 162.262 166.896C162.325 166.879 162.391 166.876 162.456 166.885C162.521 166.894 162.584 166.916 162.64 166.95C166.21 169.05 170.82 167.59 171.77 166.06C171.838 165.964 171.886 165.855 171.912 165.74C171.938 165.625 171.941 165.506 171.92 165.39C170.093 165.49 168.286 164.973 166.79 163.92C164.24 162.33 164.04 161.86 164.06 161.48C164.065 161.371 164.099 161.265 164.159 161.174C164.219 161.082 164.302 161.008 164.4 160.96C165.4 160.45 169.91 162.53 171.79 163.77C172.018 163.917 172.226 164.091 172.41 164.29C173.151 164.123 173.818 163.72 174.31 163.14C174.591 162.817 174.793 162.434 174.9 162.02H174.7C173.1 162.18 171.5 161.49 169.79 159.91C168.61 158.83 168.16 158.08 168.31 157.49C168.356 157.324 168.448 157.173 168.575 157.057C168.703 156.94 168.86 156.861 169.03 156.83C170.41 156.49 173.83 157.94 175.22 159.47C175.53 159.807 175.75 160.216 175.86 160.66C177.17 160.04 178.55 158.66 180.18 156.39C180.218 156.336 180.266 156.29 180.322 156.255C180.378 156.219 180.44 156.195 180.505 156.184C180.57 156.173 180.637 156.175 180.701 156.19C180.765 156.204 180.826 156.232 180.88 156.27C180.987 156.348 181.059 156.465 181.082 156.596C181.104 156.726 181.075 156.861 181 156.97C179.11 159.61 177.53 161.1 175.95 161.71C175.87 162.45 175.567 163.147 175.08 163.71C174.504 164.382 173.748 164.875 172.9 165.13C172.948 165.369 172.947 165.615 172.899 165.853C172.851 166.092 172.756 166.318 172.62 166.52C171.78 168 169.36 169 166.7 169ZM165.81 162.07C166.15 162.32 166.63 162.65 167.32 163.07C168.397 163.792 169.632 164.245 170.92 164.39C169.309 163.439 167.594 162.674 165.81 162.11V162.07ZM169.3 157.82C169.587 158.361 169.986 158.835 170.47 159.21C171.95 160.58 173.3 161.21 174.6 161.05L174.92 161C174.846 160.693 174.695 160.411 174.48 160.18C173.08 158.68 170 157.7 169.3 157.86V157.82Z" fill="#333640"/>
<path d="M179.94 167.67L164.36 170.5L150.21 93.29L120.15 98.75L71.15 185.75L76.41 214.46L139.26 203L143.56 226.49L173.62 221.02L169.32 197.54L184.9 194.71L179.94 167.67ZM101.09 182L127.09 136.43L134.3 176L101.09 182Z" fill="#78BC27"/>
<path d="M305.43 88C304.957 83.1457 303.882 78.3691 302.23 73.78C300.533 69.3831 298.172 65.2721 295.23 61.59C291.75 57.3046 287.427 53.7786 282.53 51.23C277.197 48.2967 270.123 46.2567 261.31 45.11C243.01 42.73 228.75 45.9767 218.53 54.85C208.31 63.7233 201.577 80.7233 198.33 105.85C197.034 115.241 196.699 124.741 197.33 134.2C197.997 142.867 199.59 149.843 202.11 155.13C205.308 162.298 210.379 168.472 216.79 173C223.103 177.433 231.77 180.367 242.79 181.8C262.377 184.353 276.9 180.59 286.36 170.51C295.82 160.43 302.087 143.397 305.16 119.41C306.524 108.99 306.615 98.4422 305.43 88Z" fill="#78BC27"/>
<path d="M251.77 171.48C249.36 171.4 246.77 171.18 244.16 170.84C235 169.64 227.92 167.33 223.1 163.95C218.293 160.552 214.492 155.919 212.1 150.54L212.05 150.44C210.13 146.44 208.87 140.69 208.32 133.44C207.737 124.732 208.046 115.986 209.24 107.34C212.82 79.5902 220.19 68.0002 225.74 63.2002C232.22 57.5802 240.97 55.0402 252.47 55.4402C254.83 55.5202 257.33 55.7302 259.9 56.0602C267.28 57.0602 273.13 58.6602 277.27 60.9202C280.845 62.7623 284.011 65.3064 286.58 68.4002C288.821 71.2027 290.624 74.328 291.93 77.6702C293.259 81.4027 294.118 85.2858 294.49 89.2302C295.561 98.7965 295.463 108.457 294.2 118C291.43 139.54 286.07 154.67 278.28 163C272.5 169.17 263.83 172 251.77 171.55V171.48Z" fill="#333640"/>
<path d="M271.34 88.3301L271.47 84.5501L269.14 83.7901C269.042 82.5048 268.834 81.2303 268.52 79.9801L270.52 78.5301L269.15 75.0001L266.71 75.2001C266.139 74.0547 265.469 72.9606 264.71 71.9301L266 69.7901L263.35 67.0001L261.17 68.1101C260.194 67.2747 259.151 66.5221 258.05 65.8601L258.4 63.4401L254.94 61.8701L253.36 63.7201C252.136 63.3269 250.882 63.0359 249.61 62.8501L249 60.4901L245.2 60.3601L244.45 62.6901C243.168 62.7878 241.897 62.9952 240.65 63.3101L239.18 61.3101L235.62 62.6401L235.82 65.0801C234.678 65.6578 233.584 66.3266 232.55 67.0801L230.45 65.8201L227.67 68.4101L228.79 70.6001C227.949 71.5714 227.196 72.6155 226.54 73.7201L224.12 73.3601L222.54 76.8201L224.41 78.4001C224.005 79.6213 223.711 80.8763 223.53 82.1501L221.15 82.7501L221 86.6101L223.33 87.3701C223.428 88.6522 223.635 89.9235 223.95 91.1701L221.95 92.6301L223.29 96.1901L225.73 95.9901C226.3 97.1362 226.969 98.2304 227.73 99.2601L226.46 101.37L229.06 104.14L231.24 103.02C232.215 103.859 233.259 104.615 234.36 105.28L234 107.7L237.46 109.27L239.05 107.41C240.275 107.812 241.533 108.107 242.81 108.29L243.4 110.66L247.19 110.79L247.94 108.47C249.225 108.368 250.499 108.16 251.75 107.85L253.2 109.85L256.76 108.52L256.57 106.08C257.714 105.506 258.808 104.837 259.84 104.08L261.94 105.35L264.72 102.76L263.61 100.57C264.501 99.5774 265.301 98.5065 266 97.3701L268.42 97.7301L270 94.2701L268.14 92.6901C268.539 91.4645 268.83 90.2064 269.01 88.9301L271.34 88.3301ZM245.74 100.61C242.778 100.502 239.915 99.5187 237.511 97.7845C235.108 96.0504 233.272 93.643 232.235 90.8664C231.198 88.0898 231.008 85.0683 231.687 82.1833C232.366 79.2983 233.884 76.6791 236.051 74.6564C238.217 72.6337 240.934 71.298 243.859 70.8181C246.783 70.3381 249.785 70.7354 252.484 71.9597C255.183 73.184 257.459 75.1805 259.024 77.6971C260.59 80.2138 261.375 83.1378 261.28 86.1001C261.139 90.0835 259.424 93.8484 256.511 96.5687C253.597 99.2889 249.724 100.742 245.74 100.61Z" fill="#78BC27"/>
<path opacity="0.3" d="M287.12 157.91L287.4 155.36L285.86 154.73C285.857 153.862 285.783 152.996 285.64 152.14L287.03 151.25L286.32 148.78H284.66C284.33 147.978 283.932 147.205 283.47 146.47L284.41 145.11L282.81 143.11L281.28 143.74C280.657 143.133 279.989 142.575 279.28 142.07L279.65 140.45L277.4 139.21L276.22 140.4C275.418 140.065 274.588 139.801 273.74 139.61L273.46 137.98L270.91 137.69L270.28 139.22C269.412 139.234 268.546 139.314 267.69 139.46L266.8 138.05L264.33 138.77V140.44C263.529 140.773 262.756 141.171 262.02 141.63L260.66 140.63L258.66 142.24L259.3 143.77C258.69 144.391 258.132 145.06 257.63 145.77L256.01 145.41L254.78 147.66L255.96 148.83C255.625 149.636 255.36 150.469 255.17 151.32L253.53 151.59L253.26 154.14L254.79 154.78C254.792 155.645 254.869 156.508 255.02 157.36L253.61 158.25L254.33 160.72H256C256.336 161.519 256.737 162.288 257.2 163.02L256.2 164.38L257.8 166.38L259.35 165.73C259.971 166.34 260.639 166.898 261.35 167.4L260.98 169.02L263.23 170.26L264.4 169.08C265.204 169.406 266.034 169.667 266.88 169.86L267.17 171.49L269.72 171.78L270.34 170.25C271.211 170.235 272.081 170.155 272.94 170.01L273.83 171.42L276.29 170.69V169.03C277.094 168.696 277.869 168.298 278.61 167.84L279.95 168.84L281.95 167.23L281.3 165.7C281.916 165.08 282.481 164.411 282.99 163.7L284.6 164.06L285.84 161.81L284.66 160.64C284.982 159.838 285.239 159.013 285.43 158.17L287.12 157.91ZM274.25 156.91C273.833 157.691 273.193 158.33 272.412 158.746C271.631 159.162 270.743 159.337 269.863 159.247C268.982 159.157 268.148 158.807 267.467 158.241C266.786 157.676 266.288 156.921 266.038 156.072C265.787 155.223 265.795 154.318 266.06 153.474C266.326 152.629 266.836 151.883 267.527 151.329C268.218 150.776 269.058 150.44 269.94 150.366C270.822 150.291 271.706 150.481 272.48 150.91C273.504 151.48 274.263 152.429 274.594 153.553C274.925 154.677 274.802 155.886 274.25 156.92V156.91Z" fill="#78BC27"/>
<path d="M301.29 114.7L298.29 112.64C297.995 111.569 297.593 110.531 297.09 109.54L297.85 106.54L293.53 101.91L290.53 102.47C289.581 101.899 288.575 101.427 287.53 101.06L285.68 97.9402L279.35 97.7202L277.29 100.72C276.219 101.012 275.181 101.411 274.19 101.91L271.19 101.15L266.56 105.47L267.12 108.47C266.548 109.419 266.075 110.424 265.71 111.47L262.6 113.32L262.38 119.65L265.38 121.71C265.671 122.789 266.073 123.835 266.58 124.83L265.82 127.83L270.14 132.46L273.14 131.9C274.088 132.474 275.093 132.946 276.14 133.31L277.98 136.42L284.32 136.63L286.37 133.63C287.45 133.332 288.498 132.93 289.5 132.43L292.5 133.19L297.13 128.86L296.58 125.86C297.151 124.911 297.623 123.906 297.99 122.86L301.1 121.01L301.29 114.7ZM281.56 124.32C280.153 124.272 278.791 123.807 277.648 122.985C276.504 122.163 275.63 121.02 275.136 119.701C274.643 118.383 274.551 116.947 274.873 115.576C275.195 114.205 275.916 112.96 276.946 112C277.975 111.039 279.267 110.405 280.657 110.178C282.046 109.951 283.472 110.141 284.754 110.724C286.036 111.308 287.116 112.258 287.857 113.455C288.599 114.653 288.969 116.043 288.92 117.45C288.852 119.336 288.039 121.118 286.66 122.406C285.28 123.694 283.446 124.382 281.56 124.32Z" fill="white"/>
<path d="M323 64.1701L323.52 62.9201C323.875 62.7276 324.21 62.4998 324.52 62.2401H325.68L327.04 60.2401L326.6 59.1701C326.772 58.7944 326.906 58.4024 327 58.0001L328 57.0701L327.58 54.7301L326.32 54.2101C326.125 53.8381 325.894 53.4864 325.63 53.1601V52.0001L323.68 50.6401L322.6 51.0801C322.204 50.949 321.795 50.8585 321.38 50.8101L320.46 49.8101L318.12 50.2301L317.59 51.4801C317.219 51.6759 316.867 51.9069 316.54 52.1701L315.39 52.1201L314.03 54.1201L314.47 55.1801C314.337 55.5799 314.243 55.9919 314.19 56.4101L313.19 57.3401L313.61 59.6801L314.87 60.2001C315.058 60.5738 315.286 60.9259 315.55 61.2501V62.4101L317.55 63.7701L318.62 63.3201C319.019 63.4581 319.431 63.552 319.85 63.6001L320.77 64.6001L323 64.1701ZM318 57.6801C317.907 57.1583 317.972 56.6208 318.184 56.1355C318.397 55.6502 318.749 55.2388 319.196 54.9535C319.642 54.6682 320.163 54.5216 320.693 54.5324C321.223 54.5431 321.738 54.7107 322.172 55.0139C322.607 55.3172 322.942 55.7425 323.135 56.236C323.328 56.7295 323.37 57.2692 323.256 57.7868C323.143 58.3044 322.878 58.7767 322.496 59.1439C322.114 59.5111 321.632 59.7569 321.11 59.8501C320.763 59.912 320.408 59.905 320.064 59.8294C319.72 59.7538 319.394 59.6112 319.105 59.4097C318.816 59.2081 318.57 58.9516 318.38 58.6549C318.191 58.3581 318.062 58.0268 318 57.6801Z" fill="#78BC27"/>
<path d="M295.61 57.5401L294.84 56.8901C296.493 54.8465 298.532 53.1476 300.84 51.8901L301.31 52.7801C299.113 53.9736 297.176 55.5916 295.61 57.5401Z" fill="#78BC27"/>
<path d="M303.59 51.8502L303.2 50.9302C306.893 49.3255 310.931 48.6788 314.94 49.0502L314.84 50.0502C310.998 49.6832 307.126 50.3028 303.59 51.8502Z" fill="#78BC27"/>
<path d="M301.7 58.7701L300.88 58.2001C303.293 54.9525 306.798 52.6865 310.75 51.8201L310.94 52.8201C307.244 53.6271 303.964 55.7396 301.7 58.7701Z" fill="#78BC27"/>
<path d="M235.34 155C235.205 155 235.075 154.946 234.98 154.85L232.89 152.69C231.824 152.59 230.77 152.393 229.74 152.1L226.47 153.55C226.398 153.59 226.317 153.61 226.235 153.61C226.153 153.61 226.072 153.59 226 153.55L220.52 149.92C220.45 149.873 220.393 149.809 220.355 149.734C220.316 149.658 220.297 149.575 220.3 149.49V145.93C219.631 145.094 219.042 144.196 218.54 143.25L215.73 142.16C215.652 142.131 215.583 142.083 215.528 142.02C215.474 141.957 215.437 141.882 215.42 141.8L214.12 135.36C214.102 135.278 214.105 135.192 214.13 135.112C214.154 135.031 214.199 134.958 214.26 134.9L216.42 132.81C216.522 131.745 216.716 130.692 217 129.66L215.56 126.39C215.521 126.316 215.5 126.234 215.5 126.15C215.5 126.066 215.521 125.984 215.56 125.91L219.19 120.44C219.236 120.368 219.3 120.309 219.375 120.269C219.45 120.229 219.535 120.209 219.62 120.21L223.18 120.27C224.016 119.598 224.914 119.006 225.86 118.5L226.95 115.7C226.979 115.622 227.027 115.553 227.09 115.499C227.153 115.444 227.229 115.407 227.31 115.39L233.75 114.08C233.832 114.065 233.917 114.069 233.997 114.094C234.077 114.118 234.15 114.162 234.21 114.22L236.3 116.38C237.369 116.481 238.427 116.679 239.46 116.97L242.72 115.53C242.794 115.491 242.876 115.47 242.96 115.47C243.044 115.47 243.126 115.491 243.2 115.53L248.67 119.16C248.74 119.205 248.798 119.267 248.839 119.341C248.879 119.414 248.9 119.497 248.9 119.58L248.84 123.15C249.51 123.985 250.102 124.878 250.61 125.82L253.41 126.91C253.489 126.941 253.558 126.991 253.613 127.055C253.667 127.12 253.704 127.197 253.72 127.28L255.03 133.72C255.045 133.802 255.039 133.887 255.015 133.967C254.991 134.047 254.948 134.12 254.89 134.18L252.72 136.27C252.62 137.335 252.426 138.389 252.14 139.42L253.58 142.69C253.619 142.762 253.64 142.843 253.64 142.925C253.64 143.007 253.619 143.088 253.58 143.16L250 148.64C249.953 148.708 249.89 148.764 249.817 148.802C249.744 148.84 249.663 148.86 249.58 148.86L246.01 148.81C245.173 149.473 244.279 150.062 243.34 150.57L242.25 153.38C242.219 153.458 242.169 153.528 242.104 153.582C242.039 153.636 241.962 153.673 241.88 153.69L235.44 154.99L235.34 155ZM229.71 151.07H229.85C230.93 151.385 232.039 151.589 233.16 151.68C233.281 151.69 233.395 151.743 233.48 151.83L235.48 153.93L241.38 152.73L242.44 150C242.486 149.888 242.572 149.795 242.68 149.74C243.677 149.22 244.618 148.6 245.49 147.89C245.533 147.848 245.585 147.816 245.642 147.797C245.7 147.778 245.76 147.772 245.82 147.78L249.29 147.83L252.61 142.83L251.21 139.64C251.169 139.53 251.169 139.41 251.21 139.3C251.521 138.219 251.725 137.111 251.82 135.99C251.834 135.87 251.887 135.758 251.97 135.67L254.07 133.67L252.88 127.77L250.15 126.71C250.035 126.664 249.939 126.579 249.88 126.47C249.363 125.471 248.743 124.529 248.03 123.66C247.96 123.568 247.921 123.456 247.92 123.34V119.86L242.92 116.54L239.75 117.94C239.636 117.976 239.514 117.976 239.4 117.94C238.317 117.624 237.205 117.416 236.08 117.32C235.959 117.311 235.845 117.257 235.76 117.17L233.76 115.08L227.86 116.27L226.81 119C226.768 119.112 226.686 119.204 226.58 119.26C225.579 119.782 224.634 120.406 223.76 121.12C223.67 121.194 223.556 121.234 223.44 121.23H219.97L216.64 126.23L218.04 129.41C218.072 129.476 218.088 129.547 218.088 129.62C218.088 129.693 218.072 129.765 218.04 129.83C217.745 130.889 217.55 131.974 217.46 133.07C217.452 133.189 217.398 133.3 217.31 133.38L215.21 135.38L216.41 141.28L219.13 142.34C219.251 142.387 219.35 142.475 219.41 142.59C219.923 143.586 220.54 144.524 221.25 145.39C221.326 145.479 221.365 145.593 221.36 145.71V149.18L226.36 152.51L229.54 151.11C229.594 151.088 229.652 151.074 229.71 151.07ZM234.62 147.84C232.213 147.838 229.852 147.184 227.787 145.947C225.722 144.71 224.031 142.936 222.893 140.815C221.756 138.694 221.214 136.304 221.326 133.9C221.438 131.495 222.2 129.166 223.53 127.16C224.802 125.236 226.552 123.674 228.608 122.628C230.665 121.583 232.957 121.088 235.262 121.194C237.567 121.3 239.804 122.002 241.756 123.232C243.708 124.462 245.308 126.177 246.398 128.21C247.488 130.244 248.032 132.525 247.977 134.831C247.921 137.138 247.268 139.39 246.081 141.368C244.894 143.347 243.214 144.983 241.205 146.118C239.196 147.252 236.927 147.845 234.62 147.84ZM224.37 127.71C223.025 129.742 222.313 132.127 222.324 134.563C222.335 136.999 223.067 139.378 224.429 141.398C225.791 143.418 227.722 144.988 229.977 145.911C232.231 146.834 234.709 147.068 237.097 146.583C239.484 146.098 241.674 144.916 243.39 143.186C245.106 141.457 246.27 139.257 246.736 136.866C247.202 134.474 246.949 131.998 246.008 129.751C245.067 127.504 243.481 125.586 241.45 124.24C240.103 123.338 238.591 122.712 237.001 122.398C235.411 122.084 233.774 122.089 232.186 122.412C230.598 122.734 229.089 123.369 227.747 124.278C226.406 125.188 225.258 126.354 224.37 127.71Z" fill="white"/>
<path d="M425.91 177.02L410.21 174.9L420.59 97.09L390.31 93L316.86 160.63L313 189.56L376.29 198.1L373.13 221.76L403.41 225.85L406.57 202.19L422.27 204.31L425.91 177.02ZM346.49 166.32L385.25 130.99L379.93 170.83L346.49 166.32Z" fill="#78BC27"/>
<path d="M394.13 224.79H394C393.87 224.766 393.755 224.691 393.68 224.583C393.606 224.474 393.577 224.34 393.6 224.21L417 96.2702C417.027 96.1417 417.102 96.0284 417.21 95.9539C417.318 95.8794 417.45 95.8494 417.58 95.8702C417.71 95.8945 417.825 95.9691 417.9 96.0778C417.974 96.1864 418.003 96.3203 417.98 96.4502L394.63 224.38C394.607 224.496 394.544 224.6 394.453 224.675C394.362 224.749 394.248 224.79 394.13 224.79Z" fill="#333640"/>
<path d="M414.83 98.4201C414.826 98.5278 414.801 98.6337 414.756 98.7317C414.711 98.8297 414.648 98.918 414.569 98.9913C414.49 99.0647 414.397 99.1218 414.296 99.1593C414.195 99.1969 414.088 99.2141 413.98 99.2101C413.763 99.2022 413.557 99.1082 413.409 98.9487C413.261 98.7893 413.182 98.5776 413.19 98.3601C413.198 98.1427 413.292 97.9372 413.451 97.7891C413.611 97.6409 413.823 97.5622 414.04 97.5701C414.148 97.574 414.254 97.5991 414.352 97.6439C414.45 97.6887 414.538 97.7524 414.611 97.8314C414.685 97.9103 414.742 98.0029 414.779 98.104C414.817 98.205 414.834 98.3124 414.83 98.4201Z" fill="#333640"/>
<path d="M411.5 115.72C411.494 115.882 411.44 116.039 411.345 116.17C411.25 116.302 411.118 116.402 410.966 116.458C410.814 116.515 410.649 116.525 410.491 116.487C410.333 116.45 410.19 116.367 410.08 116.248C409.97 116.129 409.897 115.98 409.871 115.82C409.845 115.66 409.867 115.496 409.935 115.349C410.002 115.201 410.112 115.077 410.25 114.992C410.388 114.907 410.548 114.864 410.71 114.87C410.927 114.881 411.131 114.975 411.278 115.134C411.426 115.293 411.505 115.503 411.5 115.72Z" fill="#333640"/>
<path d="M408.17 133C408.164 133.162 408.11 133.319 408.015 133.45C407.92 133.582 407.788 133.682 407.636 133.738C407.484 133.795 407.319 133.805 407.161 133.767C407.003 133.73 406.86 133.647 406.75 133.528C406.64 133.409 406.567 133.26 406.541 133.1C406.515 132.94 406.537 132.776 406.605 132.629C406.672 132.481 406.782 132.357 406.92 132.272C407.058 132.187 407.218 132.144 407.38 132.15C407.488 132.154 407.594 132.179 407.692 132.224C407.79 132.269 407.878 132.332 407.951 132.411C408.025 132.49 408.082 132.583 408.119 132.684C408.157 132.785 408.174 132.892 408.17 133Z" fill="#333640"/>
<path d="M401.61 151C401.604 151.162 401.55 151.319 401.455 151.45C401.36 151.582 401.228 151.682 401.076 151.738C400.924 151.795 400.759 151.805 400.601 151.767C400.443 151.73 400.3 151.647 400.19 151.528C400.08 151.409 400.007 151.26 399.981 151.1C399.955 150.94 399.977 150.776 400.045 150.629C400.112 150.481 400.222 150.357 400.36 150.272C400.498 150.187 400.658 150.144 400.82 150.15C400.928 150.154 401.034 150.179 401.132 150.224C401.23 150.269 401.318 150.332 401.391 150.411C401.465 150.49 401.522 150.583 401.559 150.684C401.597 150.785 401.614 150.892 401.61 151Z" fill="#333640"/>
<path d="M401.5 167.62C401.496 167.728 401.471 167.834 401.426 167.932C401.381 168.03 401.318 168.118 401.239 168.191C401.16 168.264 401.067 168.322 400.966 168.359C400.865 168.397 400.758 168.414 400.65 168.41C400.542 168.406 400.436 168.381 400.338 168.336C400.24 168.291 400.152 168.228 400.079 168.149C400.006 168.07 399.949 167.977 399.911 167.876C399.873 167.775 399.856 167.668 399.86 167.56C399.864 167.452 399.889 167.347 399.934 167.249C399.979 167.151 400.042 167.062 400.121 166.989C400.2 166.916 400.293 166.859 400.394 166.821C400.495 166.783 400.602 166.766 400.71 166.77C400.818 166.774 400.924 166.799 401.022 166.844C401.119 166.889 401.208 166.953 401.281 167.031C401.354 167.11 401.411 167.203 401.449 167.304C401.487 167.405 401.504 167.512 401.5 167.62Z" fill="#333640"/>
<path d="M398.17 184.92C398.164 185.082 398.11 185.239 398.015 185.37C397.92 185.501 397.788 185.602 397.636 185.658C397.484 185.715 397.319 185.725 397.161 185.687C397.003 185.65 396.86 185.567 396.75 185.448C396.64 185.329 396.567 185.18 396.541 185.02C396.515 184.86 396.537 184.696 396.605 184.549C396.672 184.401 396.782 184.277 396.92 184.192C397.058 184.107 397.218 184.064 397.38 184.07C397.488 184.074 397.594 184.099 397.692 184.144C397.79 184.189 397.878 184.252 397.951 184.331C398.025 184.41 398.082 184.503 398.119 184.604C398.157 184.705 398.174 184.812 398.17 184.92Z" fill="#333640"/>
<path d="M394.84 202.22C394.836 202.328 394.811 202.434 394.766 202.532C394.721 202.63 394.658 202.718 394.579 202.791C394.5 202.865 394.407 202.922 394.306 202.959C394.205 202.997 394.098 203.014 393.99 203.01C393.883 203.008 393.777 202.984 393.679 202.94C393.581 202.896 393.493 202.833 393.419 202.755C393.346 202.677 393.289 202.585 393.251 202.485C393.213 202.384 393.196 202.277 393.2 202.17C393.203 202.062 393.227 201.955 393.271 201.855C393.315 201.756 393.379 201.667 393.458 201.593C393.537 201.518 393.63 201.46 393.732 201.422C393.833 201.384 393.941 201.366 394.05 201.37C394.267 201.381 394.471 201.475 394.618 201.634C394.766 201.793 394.845 202.003 394.84 202.22Z" fill="#333640"/>
<path d="M391.5 219.52C391.496 219.683 391.444 219.84 391.35 219.973C391.256 220.106 391.125 220.208 390.973 220.266C390.821 220.324 390.655 220.335 390.497 220.299C390.338 220.263 390.194 220.18 390.083 220.061C389.972 219.943 389.898 219.794 389.871 219.634C389.845 219.473 389.866 219.309 389.934 219.161C390.001 219.013 390.111 218.888 390.249 218.802C390.387 218.717 390.548 218.674 390.71 218.68C390.818 218.681 390.924 218.704 391.023 218.748C391.121 218.791 391.21 218.854 391.284 218.932C391.358 219.011 391.415 219.103 391.452 219.204C391.489 219.305 391.505 219.413 391.5 219.52Z" fill="#333640"/>
<path d="M400.79 151.5C400.677 151.5 400.568 151.461 400.481 151.39C400.393 151.319 400.333 151.22 400.31 151.11C400.295 151.046 400.293 150.979 400.305 150.914C400.316 150.849 400.34 150.787 400.375 150.731C400.41 150.675 400.456 150.627 400.51 150.589C400.564 150.551 400.626 150.524 400.69 150.51L403.17 149.98C403.236 149.966 403.303 149.966 403.369 149.978C403.435 149.99 403.498 150.016 403.554 150.052C403.611 150.089 403.659 150.136 403.697 150.192C403.735 150.247 403.761 150.309 403.775 150.375C403.789 150.441 403.79 150.509 403.777 150.574C403.765 150.64 403.739 150.703 403.703 150.759C403.666 150.816 403.619 150.864 403.563 150.902C403.508 150.94 403.446 150.966 403.38 150.98L400.9 151.51L400.79 151.5Z" fill="#333640"/>
<path d="M409.08 142.29C407.9 145.35 406.899 148.475 406.08 151.65C405.33 155.18 405.29 163.07 405.29 163.07" fill="#333640"/>
<path d="M405.29 163.57C405.157 163.57 405.03 163.517 404.936 163.424C404.843 163.33 404.79 163.203 404.79 163.07C404.79 162.75 404.85 155.07 405.6 151.54C406.415 148.341 407.417 145.192 408.6 142.11C408.647 141.987 408.741 141.888 408.86 141.834C408.98 141.779 409.117 141.774 409.24 141.82C409.302 141.843 409.359 141.879 409.407 141.924C409.455 141.969 409.494 142.024 409.521 142.084C409.548 142.145 409.563 142.21 409.564 142.276C409.566 142.342 409.554 142.408 409.53 142.47C408.353 145.503 407.351 148.602 406.53 151.75C405.8 155.2 405.75 163 405.74 163.08C405.74 163.203 405.694 163.322 405.611 163.413C405.527 163.504 405.413 163.56 405.29 163.57Z" fill="#333640"/>
<path d="M222.45 249.89C223.84 227.49 221.29 186.76 263.4 192.15C308.53 197.93 295.62 250.71 295.62 250.71L222.45 249.89Z" fill="#333640"/>
<path d="M251.51 236.43C261.661 236.43 269.89 228.201 269.89 218.05C269.89 207.899 261.661 199.67 251.51 199.67C241.359 199.67 233.13 207.899 233.13 218.05C233.13 228.201 241.359 236.43 251.51 236.43Z" fill="white"/>
<path d="M253.93 199.7C245.22 198.21 235.93 204.63 235 211.13L269.51 214.3C268.29 206.89 260.83 200.88 253.93 199.7Z" fill="#333640"/>
<path d="M265.58 217.59C265.33 222.39 262.71 226.16 259.73 226.01C256.75 225.86 254.53 221.84 254.73 217.01C254.93 212.18 257.6 208.43 260.58 208.58C263.56 208.73 265.82 212.79 265.58 217.59Z" fill="#333640"/>
<path d="M251.51 237.42C247.677 237.42 243.929 236.283 240.742 234.153C237.555 232.023 235.071 228.996 233.604 225.454C232.138 221.912 231.755 218.015 232.503 214.256C233.252 210.496 235.098 207.043 237.81 204.333C240.521 201.623 243.975 199.778 247.735 199.031C251.495 198.285 255.392 198.67 258.933 200.138C262.474 201.607 265.5 204.092 267.629 207.28C269.757 210.469 270.892 214.217 270.89 218.05C270.885 223.188 268.841 228.113 265.207 231.745C261.574 235.376 256.647 237.418 251.51 237.42ZM251.51 200.67C248.073 200.67 244.712 201.689 241.854 203.599C238.996 205.509 236.768 208.223 235.453 211.399C234.138 214.575 233.793 218.069 234.464 221.441C235.135 224.812 236.79 227.909 239.22 230.34C241.651 232.77 244.748 234.426 248.119 235.096C251.491 235.767 254.985 235.423 258.161 234.107C261.337 232.792 264.051 230.564 265.961 227.706C267.871 224.848 268.89 221.488 268.89 218.05C268.885 213.442 267.052 209.025 263.794 205.766C260.535 202.508 256.118 200.675 251.51 200.67Z" fill="#78BC27"/>
<path opacity="0.3" d="M290.49 249.32H290.37C290.306 249.306 290.245 249.279 290.191 249.241C290.138 249.203 290.092 249.155 290.058 249.099C290.023 249.043 290 248.98 289.99 248.915C289.98 248.85 289.984 248.784 290 248.72C290 248.58 293.22 235.02 289.91 221.31C289.879 221.178 289.903 221.038 289.975 220.923C290.047 220.808 290.162 220.726 290.295 220.695C290.428 220.665 290.567 220.688 290.682 220.76C290.798 220.833 290.879 220.948 290.91 221.08C294.28 235.08 291.03 248.81 291 248.95C290.972 249.062 290.906 249.16 290.812 249.228C290.719 249.296 290.605 249.328 290.49 249.32Z" fill="white"/>
<path opacity="0.3" d="M287.7 213.81C287.603 213.809 287.508 213.78 287.426 213.727C287.345 213.674 287.28 213.599 287.24 213.51C285.995 210.767 284.402 208.196 282.5 205.86C282.415 205.757 282.375 205.624 282.388 205.491C282.401 205.357 282.467 205.235 282.57 205.15C282.673 205.065 282.806 205.025 282.939 205.038C283.073 205.051 283.195 205.117 283.28 205.22C285.233 207.628 286.87 210.276 288.15 213.1C288.178 213.159 288.195 213.223 288.198 213.289C288.201 213.354 288.192 213.419 288.169 213.481C288.147 213.542 288.112 213.599 288.068 213.647C288.023 213.695 287.97 213.733 287.91 213.76C287.844 213.791 287.773 213.808 287.7 213.81Z" fill="white"/>
<path d="M128.73 355H128.36C127.034 354.963 125.777 354.401 124.865 353.437C123.954 352.473 123.463 351.186 123.5 349.86C123.537 348.534 124.1 347.277 125.063 346.366C126.027 345.454 127.314 344.963 128.64 345H128.73C131.62 345 138.57 341.49 153.11 318.57C153.496 317.961 154.009 317.443 154.614 317.051C155.219 316.659 155.901 316.403 156.615 316.299C157.328 316.196 158.055 316.248 158.746 316.452C159.438 316.655 160.077 317.006 160.62 317.48C172.034 327.299 184.488 335.84 197.76 342.95C198.935 343.554 199.823 344.598 200.231 345.855C200.638 347.112 200.532 348.479 199.935 349.657C199.338 350.836 198.298 351.73 197.044 352.145C195.789 352.559 194.422 352.461 193.24 351.87C180.907 345.316 169.251 337.562 158.44 328.72C146.25 347 137.21 355 128.73 355Z" fill="#333640"/>
<path d="M159.67 316.55H159.24C158.85 316.494 158.475 316.361 158.136 316.16C157.797 315.958 157.501 315.692 157.266 315.376C157.03 315.061 156.858 314.702 156.761 314.32C156.664 313.938 156.643 313.54 156.7 313.15C157.41 308.15 156.53 289.53 150.22 275.03C149.94 274.389 149.893 273.671 150.086 272.999C150.28 272.327 150.702 271.744 151.28 271.35C164.98 262.02 194.16 260.9 195.4 260.86C195.794 260.847 196.187 260.912 196.556 261.05C196.925 261.189 197.263 261.399 197.551 261.668C197.838 261.937 198.07 262.261 198.233 262.62C198.396 262.979 198.487 263.366 198.5 263.76C198.513 264.154 198.449 264.547 198.31 264.916C198.171 265.285 197.961 265.623 197.692 265.911C197.423 266.199 197.099 266.431 196.74 266.593C196.381 266.756 195.994 266.847 195.6 266.86C195.33 266.86 169.82 267.86 156.72 275.06C162.3 289.5 163.57 307.5 162.64 314.06C162.519 314.759 162.155 315.393 161.611 315.849C161.067 316.305 160.38 316.553 159.67 316.55Z" fill="#333640"/>
<path d="M164.71 312.66C162.71 307.96 153.71 308.49 148.44 312.52C145.62 314.68 141.8 321.17 141.44 323.52C141.319 324.08 141.337 324.662 141.491 325.214C141.646 325.766 141.932 326.272 142.326 326.688C142.72 327.105 143.209 327.419 143.752 327.604C144.294 327.789 144.874 327.839 145.44 327.75C148.89 327.46 153.62 322.45 153.62 322.45C150.47 325.53 154.54 327.71 160.62 323.25C163.94 320.77 166.94 317.93 164.71 312.66Z" fill="#78BC27"/>
<path d="M336.71 251.21H336.57C336.506 251.193 336.447 251.163 336.395 251.122C336.343 251.081 336.3 251.03 336.268 250.973C336.236 250.915 336.216 250.851 336.21 250.785C336.203 250.719 336.21 250.653 336.23 250.59C337.56 245.95 339.01 243.12 340.92 241.59C340.621 240.515 340.677 239.371 341.08 238.33C341.543 237.113 342.366 236.067 343.44 235.33C343.149 235.013 342.942 234.628 342.839 234.211C342.736 233.793 342.74 233.356 342.85 232.94C343.21 231.689 343.96 230.586 344.99 229.79C344.619 229.375 344.416 228.837 344.42 228.28C344.42 225.28 349.93 220.76 356.18 219.9C356.245 219.889 356.312 219.891 356.377 219.907C356.441 219.923 356.502 219.952 356.554 219.992C356.607 220.033 356.651 220.084 356.683 220.142C356.714 220.2 356.734 220.264 356.74 220.33C356.757 220.46 356.723 220.591 356.644 220.696C356.566 220.801 356.449 220.87 356.32 220.89C350.38 221.7 345.4 226 345.42 228.27C345.416 228.606 345.546 228.93 345.78 229.17C347.127 228.262 348.641 227.63 350.234 227.311C351.827 226.992 353.467 226.991 355.06 227.31C358.13 227.9 359.38 228.55 359.24 229.48C358.96 231.23 352.43 231.59 348.05 231.07C347.266 231.001 346.503 230.784 345.8 230.43C344.857 231.101 344.156 232.059 343.8 233.16C343.712 233.45 343.712 233.759 343.799 234.049C343.886 234.339 344.057 234.597 344.29 234.79C346.15 233.84 348.76 233.44 352.21 234.2C356.74 235.2 356.91 235.75 357.02 236.08C357.056 236.195 357.058 236.318 357.028 236.434C356.998 236.551 356.937 236.657 356.85 236.74C355.9 237.74 348.95 237.28 345.46 236.42C345.039 236.324 344.632 236.173 344.25 235.97C343.217 236.598 342.422 237.551 341.99 238.68C341.701 239.41 341.621 240.207 341.76 240.98C341.938 240.87 342.121 240.77 342.31 240.68C344.38 239.68 346.88 239.87 349.97 241.19C351.97 242.06 352.97 242.84 353.07 243.63C353.073 243.833 353.022 244.032 352.922 244.208C352.822 244.384 352.676 244.53 352.5 244.63C350.97 245.63 345.63 245.49 342.85 244.01C342.211 243.663 341.678 243.148 341.31 242.52C339.68 244.01 338.36 246.69 337.16 250.88C337.125 250.973 337.064 251.054 336.984 251.112C336.904 251.171 336.809 251.205 336.71 251.21ZM342.13 241.88C342.41 242.394 342.834 242.814 343.35 243.09C345.61 244.3 350.05 244.57 351.71 243.9C352.05 243.76 352.1 243.65 352.1 243.65C352.1 243.65 352.05 243.08 349.6 242.04C346.8 240.84 344.6 240.67 342.77 241.52C342.547 241.623 342.333 241.743 342.13 241.88ZM345.47 235.31L345.72 235.38C348.977 236.129 352.328 236.378 355.66 236.12C354.475 235.692 353.258 235.357 352.02 235.12C349.866 234.534 347.586 234.6 345.47 235.31ZM346.73 229.69C347.194 229.847 347.673 229.954 348.16 230.01C353.16 230.6 357.55 229.9 358.16 229.28C357.99 229.13 357.32 228.7 354.84 228.22C352.048 227.667 349.15 228.192 346.73 229.69Z" fill="#333640"/>
<path d="M206.53 353.3C207.19 353.08 206.97 352.45 206.23 352.45H192.69C166.91 349.72 148.9 353.38 160.25 354.24C171.6 355.1 159.45 354.92 151.16 358.06C142.87 361.2 212.81 361.98 219.16 358.06C225 354.44 197.39 356.22 206.53 353.3Z" fill="#333640"/>
<path d="M303.47 357.29L185.67 353.38L180.78 239.16L319.89 242.27L303.47 357.29Z" fill="#78BC27"/>
<path d="M222.45 355.1C222.325 355.098 222.204 355.05 222.112 354.966C222.02 354.881 221.962 354.765 221.95 354.64L212.51 239.92C212.505 239.854 212.512 239.788 212.532 239.726C212.552 239.663 212.585 239.605 212.628 239.554C212.67 239.504 212.723 239.463 212.781 239.433C212.84 239.403 212.904 239.385 212.97 239.38C213.102 239.372 213.232 239.415 213.333 239.501C213.434 239.587 213.497 239.708 213.51 239.84L223 354.56C223.005 354.626 222.998 354.692 222.978 354.755C222.957 354.818 222.925 354.876 222.882 354.926C222.84 354.976 222.787 355.017 222.729 355.047C222.67 355.077 222.606 355.095 222.54 355.1H222.45Z" fill="#333640"/>
<path d="M303.47 357.29L335.13 352.46L345.1 246.26L319.89 242.27L303.47 357.29Z" fill="#78BC27"/>
<path opacity="0.2" d="M303.47 357.29L335.13 352.46L345.1 246.26L319.89 242.27L303.47 357.29Z" fill="#333640"/>
<path d="M195.73 331.36L192.83 263.5C192.758 261.823 193.032 260.15 193.633 258.583C194.234 257.016 195.15 255.589 196.324 254.39C197.498 253.192 198.906 252.246 200.46 251.613C202.015 250.98 203.682 250.673 205.36 250.71L293.42 252.71C295.154 252.749 296.86 253.155 298.425 253.902C299.991 254.649 301.38 255.719 302.502 257.042C303.624 258.365 304.452 259.911 304.933 261.577C305.413 263.244 305.535 264.993 305.29 266.71L295.53 335.1C295.097 338.084 293.579 340.804 291.268 342.741C288.957 344.677 286.014 345.695 283 345.6L207.61 343.1C204.513 343.004 201.568 341.741 199.364 339.563C197.161 337.386 195.862 334.455 195.73 331.36Z" fill="#333640"/>
<path d="M284 318.21C283.812 318.214 283.626 318.177 283.454 318.103C283.281 318.029 283.127 317.919 283 317.78L274.44 308.41L265.2 316.85C264.944 317.085 264.605 317.208 264.258 317.193C263.912 317.178 263.585 317.026 263.35 316.77L254.79 307.4L245.55 315.84C245.423 315.957 245.274 316.047 245.112 316.106C244.95 316.165 244.778 316.191 244.606 316.182C244.434 316.174 244.265 316.131 244.11 316.057C243.954 315.983 243.815 315.879 243.7 315.75L235.13 306.38L225.9 314.82C225.774 314.939 225.625 315.031 225.462 315.092C225.3 315.152 225.126 315.18 224.953 315.172C224.78 315.165 224.61 315.123 224.453 315.048C224.296 314.974 224.156 314.869 224.04 314.74L215.48 305.37L206.25 313.81C206.123 313.926 205.974 314.016 205.811 314.075C205.649 314.134 205.477 314.16 205.305 314.152C205.133 314.144 204.964 314.102 204.808 314.029C204.651 313.956 204.511 313.852 204.395 313.725C204.279 313.598 204.189 313.449 204.13 313.286C204.072 313.124 204.045 312.952 204.053 312.78C204.061 312.608 204.103 312.439 204.176 312.283C204.249 312.126 204.353 311.986 204.48 311.87L214.68 302.55C214.938 302.315 215.278 302.191 215.627 302.206C215.975 302.221 216.303 302.374 216.54 302.63L225.1 312L234.33 303.56C234.589 303.327 234.929 303.205 235.276 303.22C235.624 303.235 235.952 303.386 236.19 303.64L244.75 313.01L253.99 304.57C254.117 304.453 254.266 304.363 254.428 304.304C254.59 304.245 254.762 304.219 254.934 304.228C255.106 304.236 255.275 304.279 255.43 304.353C255.586 304.427 255.725 304.532 255.84 304.66L264.4 314.03L273.64 305.59C273.766 305.473 273.914 305.382 274.076 305.322C274.238 305.262 274.41 305.236 274.582 305.243C274.754 305.25 274.923 305.292 275.079 305.365C275.235 305.439 275.374 305.542 275.49 305.67L285 316C285.171 316.191 285.282 316.428 285.321 316.681C285.36 316.934 285.324 317.193 285.218 317.426C285.112 317.66 284.94 317.857 284.724 317.994C284.508 318.132 284.256 318.203 284 318.2V318.21Z" fill="white"/>
<path d="M125.75 359.71L119.49 356.73L113.91 329.56L116.94 326.23L125.75 359.71Z" fill="#78BC27"/>
<path d="M125.75 359.71L134.06 354.86L126.94 332.48L116.94 326.23L125.75 359.71Z" fill="#78BC27"/>
<path opacity="0.2" d="M125.75 359.71L134.06 354.86L126.94 332.48L116.94 326.23L125.75 359.71Z" fill="#333640"/>
<path d="M262 364.65H261.31C259.984 364.614 258.726 364.053 257.814 363.09C256.902 362.127 256.409 360.841 256.445 359.515C256.481 358.189 257.042 356.932 258.005 356.019C258.968 355.107 260.254 354.614 261.58 354.65C269.28 354.9 285.58 350.17 294.9 341.13C295.463 340.578 296.148 340.167 296.9 339.93C312.69 335.19 318.56 344.76 318.8 345.17L310.2 350.26C310.23 350.324 310.267 350.384 310.31 350.44C310.22 350.31 307.98 347.44 300.86 349.2C289.17 359.87 271.23 364.65 262 364.65Z" fill="#333640"/>
<path d="M261.39 371.3L243.18 370.15L241.75 336.58L266.22 337.49L261.39 371.3Z" fill="#78BC27"/>
<path d="M261.39 371.3L265.65 367.06L268.29 346.13L266.22 337.49L261.39 371.3Z" fill="#78BC27"/>
<path opacity="0.2" d="M261.39 371.3L265.65 367.06L268.29 346.13L266.22 337.49L261.39 371.3Z" fill="#333640"/>
<path d="M366.91 358.58C366.255 358.585 365.618 358.37 365.1 357.97C354.7 350.07 340.65 336.05 335.26 322.52C335.179 322.321 335.122 322.113 335.09 321.9C332.46 306.27 329.95 273.36 329.84 271.97C329.81 271.576 329.859 271.18 329.982 270.805C330.106 270.43 330.302 270.082 330.56 269.783C330.817 269.483 331.131 269.238 331.484 269.059C331.837 268.881 332.221 268.775 332.615 268.745C333.009 268.715 333.405 268.764 333.78 268.887C334.155 269.011 334.503 269.207 334.802 269.465C335.102 269.722 335.347 270.036 335.526 270.389C335.704 270.742 335.81 271.126 335.84 271.52C335.84 271.85 338.41 305.08 340.97 320.59C346.35 333.74 360.97 347.25 368.75 353.2C369.247 353.581 369.612 354.108 369.794 354.708C369.976 355.307 369.966 355.948 369.765 356.541C369.565 357.135 369.183 357.65 368.675 358.016C368.166 358.381 367.556 358.579 366.93 358.58H366.91Z" fill="#333640"/>
<path d="M380.78 360.1C378.46 360.1 375.83 359.05 372.96 356.98C372.64 356.749 372.369 356.457 372.162 356.121C371.955 355.785 371.816 355.412 371.754 355.022C371.627 354.236 371.818 353.431 372.285 352.785C372.752 352.139 373.456 351.705 374.243 351.579C375.029 351.452 375.834 351.643 376.48 352.11C378.96 353.91 380.31 354.11 380.78 354.11C381.576 354.11 382.339 354.426 382.901 354.989C383.464 355.551 383.78 356.314 383.78 357.11C383.78 357.906 383.464 358.669 382.901 359.231C382.339 359.794 381.576 360.11 380.78 360.11V360.1Z" fill="#333640"/>
<path d="M373.8 356.89C377.01 347.35 390.17 349.24 394.71 350.65C398.587 351.783 402.306 353.399 405.78 355.46C408.23 357.06 408.27 359.74 405 361.27C401 363.16 390.84 361.49 390.84 361.49C396.08 363.78 390.84 367.49 381.63 363.85C378.64 362.67 372.67 360.38 373.8 356.89Z" fill="#78BC27"/>
<path d="M341.86 276.08C340.67 284.19 333.96 290.16 328.5 289.36C323.04 288.56 322.82 281.36 324.01 273.22C325.2 265.08 327.36 259.22 332.82 260.02C338.28 260.82 343.05 268 341.86 276.08Z" fill="#333640"/>
<path d="M209.88 243.74C210.333 243.74 210.7 243.373 210.7 242.92C210.7 242.467 210.333 242.1 209.88 242.1C209.427 242.1 209.06 242.467 209.06 242.92C209.06 243.373 209.427 243.74 209.88 243.74Z" fill="#333640"/>
<path d="M218.21 248.83C218.21 248.992 218.162 249.151 218.072 249.286C217.982 249.42 217.854 249.526 217.704 249.588C217.554 249.65 217.389 249.666 217.23 249.634C217.071 249.603 216.925 249.525 216.81 249.41C216.695 249.295 216.617 249.149 216.586 248.99C216.554 248.831 216.57 248.666 216.632 248.516C216.694 248.366 216.8 248.238 216.934 248.148C217.069 248.058 217.228 248.01 217.39 248.01C217.607 248.01 217.816 248.096 217.97 248.25C218.124 248.404 218.21 248.613 218.21 248.83Z" fill="#333640"/>
<path d="M219.13 345.73C219.13 345.892 219.082 346.051 218.992 346.186C218.902 346.321 218.774 346.426 218.624 346.488C218.474 346.55 218.309 346.566 218.15 346.534C217.991 346.503 217.845 346.425 217.73 346.31C217.615 346.195 217.537 346.049 217.506 345.89C217.474 345.731 217.49 345.566 217.552 345.416C217.614 345.267 217.72 345.138 217.854 345.048C217.989 344.958 218.148 344.91 218.31 344.91C218.527 344.91 218.736 344.997 218.89 345.15C219.044 345.304 219.13 345.513 219.13 345.73Z" fill="#333640"/>
<path d="M226.64 351.63C226.64 351.792 226.592 351.951 226.502 352.086C226.412 352.22 226.284 352.326 226.134 352.388C225.984 352.45 225.819 352.466 225.66 352.434C225.501 352.403 225.355 352.325 225.24 352.21C225.125 352.095 225.047 351.949 225.016 351.79C224.984 351.631 225 351.466 225.062 351.316C225.124 351.166 225.23 351.038 225.364 350.948C225.499 350.858 225.658 350.81 225.82 350.81C226.037 350.81 226.246 350.896 226.4 351.05C226.554 351.204 226.64 351.413 226.64 351.63Z" fill="#333640"/>
<path d="M82.51 361.47C81.0668 361.394 79.6591 360.995 78.3905 360.303C77.1219 359.611 76.0248 358.643 75.18 357.47C75.1051 357.361 75.0757 357.227 75.0981 357.096C75.1205 356.965 75.1929 356.848 75.3 356.77C75.3543 356.732 75.4157 356.706 75.4804 356.692C75.5452 356.678 75.6121 356.677 75.6772 356.689C75.7423 356.701 75.8044 356.726 75.8598 356.762C75.9152 356.798 75.9629 356.845 76 356.9C77.87 359.59 82 361.03 83.8 360.18C83.9803 360.104 84.1409 359.987 84.27 359.84C83.3605 359.44 82.5635 358.822 81.9496 358.04C81.3357 357.259 80.9237 356.339 80.75 355.36C80.52 354.09 80.34 352.36 81.38 352.14C82.82 351.82 84.7 355.29 85.38 357.92C85.504 358.355 85.5481 358.809 85.51 359.26C86.0877 359.427 86.6933 359.475 87.29 359.4C87.5588 359.38 87.8204 359.303 88.058 359.176C88.2956 359.048 88.504 358.873 88.67 358.66C88.0128 358.163 87.4675 357.533 87.0696 356.811C86.6716 356.089 86.4298 355.291 86.36 354.47C85.98 351.73 86.27 351.26 86.57 351.02C86.6672 350.946 86.7826 350.9 86.904 350.885C87.0254 350.871 87.1484 350.89 87.26 350.94C88.33 351.4 89.62 355.28 89.87 357.47C89.9 357.703 89.9 357.938 89.87 358.17C90.3011 358.336 90.7582 358.424 91.22 358.43C92.0674 358.458 92.9048 358.24 93.63 357.8C93.4902 357.709 93.3566 357.609 93.23 357.5C92.23 356.62 91.77 355.2 91.95 353.17C92.09 351.61 92.44 350.75 93.07 350.48C93.2732 350.399 93.4958 350.378 93.7106 350.421C93.9255 350.463 94.1233 350.567 94.28 350.72C94.955 351.466 95.4595 352.349 95.7583 353.309C96.057 354.27 96.1429 355.283 96.01 356.28C95.9232 356.695 95.7494 357.087 95.5 357.43C97.7438 357.586 99.9973 357.332 102.15 356.68C102.213 356.664 102.279 356.66 102.343 356.669C102.408 356.679 102.47 356.701 102.526 356.734C102.581 356.768 102.63 356.812 102.669 356.865C102.707 356.917 102.735 356.977 102.75 357.04C102.781 357.169 102.76 357.304 102.693 357.418C102.626 357.532 102.517 357.615 102.39 357.65C99.68 358.32 96.76 358.86 94.7 358.27C93.6923 359.031 92.4624 359.438 91.2 359.43C90.6395 359.423 90.0845 359.318 89.56 359.12C89.3273 359.48 89.0152 359.782 88.6477 360.002C88.2801 360.222 87.867 360.355 87.44 360.39C86.6883 360.487 85.9247 360.422 85.2 360.2C84.9637 360.591 84.6152 360.901 84.2 361.09C83.6696 361.334 83.0938 361.464 82.51 361.47ZM81.65 353.19C81.5182 353.854 81.5456 354.539 81.73 355.19C81.8712 355.991 82.2029 356.746 82.6972 357.392C83.1914 358.038 83.8338 358.555 84.57 358.9C84.5552 358.66 84.515 358.422 84.45 358.19C83.67 355.37 82.17 353.4 81.65 353.19ZM87.22 352.32C87.2272 353.01 87.284 353.698 87.39 354.38C87.5019 355.599 88.0402 356.739 88.91 357.6C88.6639 355.754 88.0917 353.966 87.22 352.32ZM93.51 351.45C93.51 351.45 93.13 351.64 92.99 353.31C92.85 354.98 93.14 356.13 93.92 356.79C94.102 356.943 94.3038 357.071 94.52 357.17C94.7864 356.891 94.9729 356.546 95.06 356.17C95.2381 354.596 94.8129 353.013 93.87 351.74C93.66 351.49 93.54 351.45 93.51 351.45Z" fill="#333640"/>
<path d="M228.87 369.02L231.58 364.32L228.87 359.63H225.97L227.61 364.32L225.97 369.02H228.87Z" fill="#333640"/>
<path d="M226.16 366.78C225.826 366.802 225.491 366.754 225.175 366.641C224.86 366.528 224.572 366.351 224.327 366.122C224.083 365.893 223.888 365.616 223.755 365.309C223.622 365.002 223.554 364.67 223.554 364.335C223.554 364 223.622 363.669 223.755 363.362C223.888 363.054 224.083 362.777 224.327 362.548C224.572 362.319 224.86 362.143 225.175 362.029C225.491 361.916 225.826 361.869 226.16 361.89L221.56 360.96L220.33 364.68L222.39 367.82L226.16 366.78Z" fill="#333640"/>
<path d="M226.56 359.63H221.13L218.42 364.33L221.13 369.03H226.56L229.27 364.33L226.56 359.63ZM223.85 366.78C223.365 366.782 222.89 366.64 222.486 366.372C222.082 366.104 221.766 365.722 221.579 365.275C221.392 364.827 221.342 364.334 221.436 363.858C221.529 363.382 221.762 362.945 222.104 362.601C222.446 362.258 222.883 362.023 223.358 361.928C223.834 361.833 224.327 361.881 224.775 362.066C225.224 362.251 225.607 362.565 225.876 362.968C226.146 363.371 226.29 363.845 226.29 364.33C226.29 364.978 226.033 365.6 225.576 366.059C225.119 366.518 224.498 366.777 223.85 366.78Z" fill="#78BC27"/>
<path d="M417.89 359.31L415.88 355.82L417.89 352.33H420.04L418.83 355.82L420.04 359.31H417.89Z" fill="#78BC27"/>
<path d="M419.9 357.64C420.15 357.659 420.401 357.625 420.637 357.543C420.873 357.46 421.09 357.329 421.273 357.159C421.457 356.988 421.603 356.782 421.703 356.553C421.803 356.323 421.855 356.075 421.855 355.825C421.855 355.575 421.803 355.327 421.703 355.098C421.603 354.868 421.457 354.662 421.273 354.491C421.09 354.321 420.873 354.19 420.637 354.107C420.401 354.025 420.15 353.992 419.9 354.01L423.32 353.32L424.23 356.09L422.71 358.42L419.9 357.64Z" fill="#78BC27"/>
<path d="M419.61 352.33H423.61L425.61 355.82L423.61 359.31H419.61L417.61 355.82L419.61 352.33ZM421.61 357.64C421.97 357.642 422.323 357.537 422.624 357.338C422.924 357.139 423.159 356.856 423.299 356.524C423.438 356.191 423.475 355.825 423.406 355.471C423.337 355.117 423.165 354.792 422.91 354.537C422.656 354.281 422.332 354.107 421.979 354.036C421.625 353.965 421.259 354 420.926 354.138C420.593 354.275 420.308 354.508 420.107 354.808C419.907 355.107 419.8 355.46 419.8 355.82C419.8 356.303 419.992 356.766 420.333 357.107C420.674 357.448 421.137 357.64 421.62 357.64H421.61Z" fill="#333640"/>
<path d="M343 364H347.52C348.085 363.995 348.625 363.768 349.024 363.367C349.422 362.967 349.647 362.425 349.65 361.86C349.65 361.294 349.426 360.752 349.027 360.351C348.628 359.949 348.086 359.723 347.52 359.72H343C342.432 359.72 341.888 359.946 341.487 360.347C341.085 360.748 340.86 361.293 340.86 361.86C340.863 362.427 341.089 362.97 341.49 363.371C341.89 363.771 342.433 363.998 343 364Z" fill="#333640"/>
<path d="M335.73 359.91C336.15 359.151 336.783 358.531 337.55 358.126C338.318 357.722 339.187 357.551 340.051 357.634C340.915 357.717 341.735 358.051 342.412 358.595C343.088 359.138 343.591 359.868 343.858 360.693C344.125 361.519 344.145 362.405 343.916 363.241C343.686 364.078 343.217 364.83 342.565 365.403C341.914 365.977 341.109 366.347 340.25 366.469C339.391 366.591 338.515 366.46 337.73 366.09C336.647 365.535 335.828 364.572 335.453 363.414C335.078 362.255 335.178 360.995 335.73 359.91Z" fill="#78BC27"/>
<path d="M336.958 366.083L338.198 366.667L342.504 357.531L341.265 356.947L336.958 366.083Z" fill="#333640"/>
<path d="M111.093 44.9191L125.027 62.8246C125.341 63.2536 125.551 63.6143 125.392 64.142C125.153 65.585 124.062 67.2507 122.037 67.6726C121.09 67.8701 120.383 67.9276 119.839 67.9061L120.46 73.26C121.341 73.3909 122.282 73.3747 123.79 73.0605C127.192 72.3512 129.299 70.384 130.701 67.6198C132.298 64.5004 133.191 59.7297 134.015 54.8388L136.506 39.6223L129.615 41.0587L128.58 51.8366C128.359 54.4444 128.29 56.4815 128.162 57.8115L128.033 57.8384C127.019 56.207 126.057 54.6097 124.85 52.7038L118.501 43.3749L111.093 44.9191ZM139.144 47.3876L143.534 68.451L150.081 67.0864L146.732 51.0196L153.193 49.673L156.542 65.7397L163.132 64.3662L158.742 43.3028L139.144 47.3876ZM182.315 54.795C181.405 55.3891 180.253 55.8989 178.702 56.2221C175.514 56.8865 172.508 55.4006 171.7 51.5239C170.939 48.087 172.667 45.1649 176.113 44.4467C177.836 44.0876 179.062 44.1467 179.909 44.3297L179.928 39.2468C178.442 39.0172 176.484 39.1107 174.761 39.4698C166.921 41.1037 163.75 47.0232 165.034 53.1829C166.417 59.8163 171.629 63.0447 178.435 61.6263C180.933 61.1056 183.04 60.217 184.096 59.4577L182.315 54.795ZM191.445 48.5324L188.325 28.8222L181.476 30.2496L186.534 49.5558L191.445 48.5324ZM191.072 59.0374C193.398 58.5526 194.556 56.5585 194.089 54.3186C193.57 52.0446 191.721 50.722 189.438 51.1978C187.155 51.6736 185.903 53.6426 186.378 55.9256C186.845 58.1655 188.746 59.5222 191.072 59.0374Z" fill="#21232E"/>
<path d="M210.364 272.714C205.589 272.632 202.431 276.201 202.347 281.049C202.267 285.656 205.012 289.328 209.811 289.411C214.538 289.493 217.81 286.333 217.901 281.03C217.979 276.567 215.331 272.8 210.364 272.714ZM210.218 275.616C212.738 275.66 214.086 278.18 214.036 281.083C213.981 284.227 212.525 286.554 210.053 286.511C207.606 286.469 206.157 284.211 206.211 281.044C206.266 277.9 207.746 275.573 210.218 275.616ZM220.212 277.589L220.009 289.324L236.639 289.612L236.842 277.877L233.218 277.815L233.063 286.765L230.184 286.715L230.339 277.765L226.715 277.702L226.56 286.653L223.681 286.603L223.836 277.652L220.212 277.589ZM239.733 277.927L239.53 289.662L243.969 289.738C244.817 287.929 245.74 285.905 246.512 284.286C247.011 283.19 247.312 282.427 247.791 281.139L247.886 281.141C247.723 283.635 247.614 284.401 247.582 286.225L247.521 289.8L250.976 289.86L251.179 278.126L246.716 278.048L244.349 283.048C243.85 284.144 243.522 285.05 242.947 286.384L242.851 286.359C242.975 284.777 243.094 283.458 243.126 281.587L243.188 277.987L239.733 277.927ZM264.513 272.812C263.694 273.013 262.107 273.154 261.001 273.255C258.861 273.458 257.242 274.126 256.069 275.33C254.313 276.932 253.478 279.366 253.426 282.413C253.348 286.876 255.331 290.199 259.435 290.27C262.914 290.331 265.498 288.023 265.564 284.207C265.625 280.704 263.626 278.341 260.458 278.286C258.73 278.256 257.299 279.144 256.556 280.427L256.436 280.425C256.549 279.491 257.05 278.275 257.759 277.543C258.566 276.645 259.798 276.21 261.481 276.048C262.346 275.991 263.572 275.868 264.272 275.688L264.513 272.812ZM261.818 284.287C261.79 285.942 261.16 287.684 259.432 287.654C257.704 287.624 257.091 285.573 257.118 284.037C257.136 283.029 257.364 282.313 257.782 281.72C258.152 281.175 258.735 280.777 259.503 280.79C261.302 280.821 261.846 282.703 261.818 284.287ZM267.925 278.415L267.721 290.15L271.345 290.212L271.425 285.557L271.785 285.563C272.985 285.584 273.693 286.316 274.197 287.669C274.632 288.925 274.905 289.77 275.208 290.279L279.024 290.345C278.467 289.232 278.035 287.856 277.668 286.865C277.001 285.15 276.159 283.863 274.772 283.575L279.179 278.61L274.908 278.536L271.875 283.165L271.467 283.157L271.548 278.478L267.925 278.415ZM290.639 290.546C290.53 289.896 290.501 288.816 290.52 287.688L290.591 283.609C290.639 280.849 289.431 278.524 285.519 278.456C283.384 278.419 281.766 278.967 280.942 279.409L281.573 281.772C282.35 281.306 283.628 280.92 284.828 280.94C286.628 280.972 286.949 281.865 286.938 282.489L286.935 282.657C282.784 282.561 280.023 283.978 279.97 287.025C279.938 288.897 281.324 290.649 283.699 290.69C285.091 290.714 286.3 290.231 287.084 289.309L287.156 289.31L287.351 290.49L290.639 290.546ZM286.993 286.211C286.99 286.427 286.962 286.642 286.911 286.833C286.658 287.573 285.904 288.16 284.992 288.144C284.176 288.13 283.56 287.663 283.576 286.728C283.6 285.312 285.096 284.882 287.015 284.939L286.993 286.211Z" fill="white"/>
</g>
<defs>
<clipPath id="clip0">
<rect width="500" height="372.61" fill="white"/>
</clipPath>
</defs>
</svg>
