<svg width="48" height="48" viewBox="0 0 48 48" fill="none" xmlns="http://www.w3.org/2000/svg">
<path d="M15 18C15 17.4477 15.4477 17 16 17H19C19.4436 17 19.8342 17.2923 19.9594 17.7178L22.2482 25.5H29.2192L30.2192 21.5H24C23.4477 21.5 23 21.0523 23 20.5C23 19.9477 23.4477 19.5 24 19.5H31.5C31.8079 19.5 32.0987 19.6419 32.2882 19.8846C32.4777 20.1273 32.5448 20.4438 32.4701 20.7425L30.9701 26.7425C30.8589 27.1877 30.4589 27.5 30 27.5H21.5C21.0564 27.5 20.6658 27.2077 20.5406 26.7822L18.2518 19H16C15.4477 19 15 18.5523 15 18Z" fill="white"/>
<path d="M23 30C23 31.1046 22.1046 32 21 32C19.8954 32 19 31.1046 19 30C19 28.8954 19.8954 28 21 28C22.1046 28 23 28.8954 23 30Z" fill="white"/>
<path d="M30 32C31.1046 32 32 31.1046 32 30C32 28.8954 31.1046 28 30 28C28.8954 28 28 28.8954 28 30C28 31.1046 28.8954 32 30 32Z" fill="white"/>
<circle cx="36" cy="12" r="7" fill="#78BC27"/>
<path d="M38.196 8.2H34.464L33.96 11.944C34.248 11.908 34.596 11.86 35.04 11.86C36.6 11.86 37.272 12.58 37.284 13.588C37.284 14.632 36.432 15.28 35.436 15.28C34.728 15.28 34.092 15.04 33.768 14.848L33.504 15.652C33.876 15.892 34.596 16.132 35.448 16.132C37.14 16.132 38.352 14.992 38.352 13.468C38.352 12.484 37.848 11.812 37.236 11.464C36.756 11.176 36.156 11.044 35.556 11.044C35.268 11.044 35.1 11.068 34.92 11.092L35.22 9.088H38.196V8.2Z" fill="white"/>
</svg>
