<svg width="18" height="17" viewBox="0 0 18 17" fill="none" xmlns="http://www.w3.org/2000/svg">
<path fill-rule="evenodd" clip-rule="evenodd" d="M10 1C10 0.447715 9.55229 0 9 0C8.44771 0 8 0.447715 8 1V2L4.02327 2C4.00774 1.99963 3.99216 1.99963 3.97656 2H3.5C3.41355 2 3.32965 2.01097 3.24964 2.0316C2.76955 1.90708 2.26035 2.15597 2.0713 2.6286L0.0751442 7.61899C0.0637101 7.64672 0.0534865 7.67507 0.044539 7.70398C0.0108702 7.81221 -0.00339641 7.92252 3.66708e-09 8.03083V8.5C3.66708e-09 10.433 1.567 12 3.5 12C5.433 12 7 10.433 7 8.5V8.03083C7.0034 7.9225 6.98913 7.81219 6.95545 7.70395C6.94651 7.67505 6.93629 7.64671 6.92486 7.619L5.47726 4L8 4V15H6.5C5.94772 15 5.5 15.4477 5.5 16C5.5 16.5523 5.94772 17 6.5 17H12C12.5523 17 13 16.5523 13 16C13 15.4477 12.5523 15 12 15H10V4L12.5227 4L11.0752 7.61895C11.0637 7.64678 11.0534 7.67524 11.0445 7.70427C11.0108 7.8124 10.9966 7.9226 11 8.03082V8.5C11 10.433 12.567 12 14.5 12C16.433 12 18 10.433 18 8.5V8.03082C18.0034 7.92242 17.9891 7.81203 17.9554 7.70371C17.9465 7.67491 17.9363 7.64666 17.9249 7.61904L15.9327 2.63863C15.9242 2.6166 15.9149 2.59495 15.9049 2.57372C15.8158 2.38424 15.6735 2.23464 15.5033 2.13573C15.3451 2.04377 15.1628 1.99562 14.9766 2H14.0234C14.0078 1.99963 13.9923 1.99963 13.9767 2L10 2V1ZM3.5 4.44202L4.52319 7H2.47681L3.5 4.44202ZM2.08535 9C2.29127 9.5826 2.84689 10 3.5 10C4.15311 10 4.70873 9.5826 4.91465 9H2.08535ZM14.5 4.44202L13.4768 7H15.5232L14.5 4.44202ZM13.0854 9C13.2913 9.5826 13.8469 10 14.5 10C15.1531 10 15.7087 9.5826 15.9146 9H13.0854Z" fill="white"/>
</svg>
